<?xml version="1.0" encoding="UTF-8"?>
<svg width="243px" height="144px" viewBox="0 0 243 144" version="1.1" xmlns="http://www.w3.org/2000/svg" xmlns:xlink="http://www.w3.org/1999/xlink">
    <!-- Generator: Sketch 51.2 (57519) - http://www.bohemiancoding.com/sketch -->
    <title>Group 2</title>
    <desc>Created with Sketch.</desc>
    <defs>
        <linearGradient x1="50%" y1="0%" x2="50%" y2="100%" id="linearGradient-1">
            <stop stop-color="#00EEFF" offset="0%"></stop>
            <stop stop-color="#00D8FF" offset="100%"></stop>
        </linearGradient>
    </defs>
    <g id="Page-1" stroke="none" stroke-width="1" fill="none" fill-rule="evenodd">
        <g id="1_Homepage" transform="translate(-64.000000, -103.000000)">
            <g id="Group-2" transform="translate(64.000000, 103.000000)">
                <g id="Group-4" fill="url(#linearGradient-1)">
                    <path d="M76.1099189,130.179384 C81.9927711,112.920907 98.7992752,101.47619 118.399666,101.356719 C142.875326,101.2099 167.355303,101.435887 191.830962,101.286188 C224.42775,101.084671 247.527337,73.7402762 242.33396,41.7278874 C238.389988,17.4148811 217.213447,0.1391306 190.928455,0.0757967375 C150.81221,-0.0206434626 110.695966,-0.0566286119 70.5811606,0.162161096 C64.6824749,0.195267433 58.6124999,1.14095716 52.9239675,2.73869779 C15.3007742,13.29818 -6.71206136,50.7903874 1.83657071,89.0843439 C10.8889949,129.636728 46.7287642,144.130107 73.2901226,143.999121 C74.248767,139.142565 74.6446036,134.47889 76.1099189,130.179384 Z" id="Fill-1"></path>
                </g>
                <path d="M72.5726363,28.974 L68.7746363,28.974 L68.7746363,39 L65.5706363,39 L65.5706363,28.974 L61.8086363,28.974 L61.8086363,26.382 L72.5726363,26.382 L72.5726363,28.974 Z M85.6559091,39 L82.4519091,39 L82.4519091,34.104 L77.2319091,34.104 L77.2319091,39 L74.0279091,39 L74.0279091,26.4 L77.2319091,26.4 L77.2319091,31.584 L82.4519091,31.584 L82.4519091,26.4 L85.6559091,26.4 L85.6559091,39 Z M96.6331818,36.678 L91.1251818,36.678 L90.2071818,39 L86.9131818,39 L92.3491818,26.4 L95.6431818,26.4 L100.953182,39 L97.5331818,39 L96.6331818,36.678 Z M95.6971818,34.248 L93.8971818,29.586 L92.0611818,34.248 L95.6971818,34.248 Z M113.838455,39 L111.012455,39 L105.216455,31.242 L105.216455,39 L102.210455,39 L102.210455,26.4 L105.036455,26.4 L110.850455,34.176 L110.850455,26.4 L113.838455,26.4 L113.838455,39 Z M124.653727,39 L121.323727,34.05 L119.649727,35.904 L119.649727,39 L116.445727,39 L116.445727,26.4 L119.649727,26.4 L119.649727,31.854 L124.473727,26.4 L128.181727,26.4 L123.501727,31.62 L128.487727,39 L124.653727,39 Z M134.821,26.256 C136.639,26.256 138.493,26.814 139.789,27.66 L138.583,30.162 C137.251,29.388 135.577,28.848 134.551,28.848 C133.723,28.848 133.165,29.154 133.165,29.766 C133.165,31.944 139.825,30.702 139.825,35.256 C139.825,37.776 137.593,39.108 134.785,39.108 C132.679,39.108 130.519,38.316 129.025,37.092 L130.267,34.626 C131.563,35.76 133.507,36.516 134.821,36.516 C135.829,36.516 136.459,36.138 136.459,35.418 C136.459,33.186 129.799,34.518 129.799,30.054 C129.799,27.732 131.797,26.256 134.821,26.256 Z M155.263545,28.92 L149.125545,28.92 L149.125545,31.836 L154.777545,31.836 L154.777545,34.356 L149.125545,34.356 L149.125545,39 L145.921545,39 L145.921545,26.4 L155.263545,26.4 L155.263545,28.92 Z M162.856818,26.292 C166.762818,26.292 169.678818,29.028 169.678818,32.682 C169.678818,36.354 166.762818,39.144 162.856818,39.144 C158.968818,39.144 156.052818,36.372 156.052818,32.682 C156.052818,29.01 158.968818,26.292 162.856818,26.292 Z M162.892818,28.974 C160.948818,28.974 159.328818,30.576 159.328818,32.7 C159.328818,34.824 160.966818,36.462 162.892818,36.462 C164.836818,36.462 166.384818,34.824 166.384818,32.7 C166.384818,30.576 164.836818,28.974 162.892818,28.974 Z M179.054091,39 L177.182091,35.454 L174.662091,35.454 L174.662091,39 L171.458091,39 L171.458091,26.4 L177.092091,26.4 C180.422091,26.4 182.330091,27.984 182.330091,30.792 C182.330091,32.718 181.520091,34.104 180.044091,34.842 L182.690091,39 L179.054091,39 Z M174.662091,32.934 L177.092091,32.934 C178.478091,32.934 179.288091,32.232 179.288091,30.9 C179.288091,29.586 178.478091,28.92 177.092091,28.92 L174.662091,28.92 L174.662091,32.934 Z M75.1826363,49.974 L71.3846363,49.974 L71.3846363,60 L68.1806363,60 L68.1806363,49.974 L64.4186363,49.974 L64.4186363,47.382 L75.1826363,47.382 L75.1826363,49.974 Z M83.6579091,57.678 L78.1499091,57.678 L77.2319091,60 L73.9379091,60 L79.3739091,47.4 L82.6679091,47.4 L87.9779091,60 L84.5579091,60 L83.6579091,57.678 Z M82.7219091,55.248 L80.9219091,50.586 L79.0859091,55.248 L82.7219091,55.248 Z M97.4431818,60 L94.1131818,55.05 L92.4391818,56.904 L92.4391818,60 L89.2351818,60 L89.2351818,47.4 L92.4391818,47.4 L92.4391818,52.854 L97.2631818,47.4 L100.971182,47.4 L96.2911818,52.62 L101.277182,60 L97.4431818,60 Z M105.972455,60 L102.768455,60 L102.768455,47.4 L105.972455,47.4 L105.972455,60 Z M120.207727,60 L117.381727,60 L111.585727,52.242 L111.585727,60 L108.579727,60 L108.579727,47.4 L111.405727,47.4 L117.219727,55.176 L117.219727,47.4 L120.207727,47.4 L120.207727,60 Z M131.185,53.592 L133.957,53.592 L133.957,58.506 C132.607,59.46 130.483,60.144 128.719,60.144 C124.885,60.144 121.987,57.372 121.987,53.7 C121.987,50.046 124.957,47.292 128.935,47.292 C130.807,47.292 132.787,48.012 134.083,49.164 L132.283,51.342 C131.365,50.496 130.087,49.974 128.917,49.974 C126.847,49.974 125.263,51.594 125.263,53.7 C125.263,55.842 126.865,57.462 128.953,57.462 C129.601,57.462 130.429,57.228 131.185,56.85 L131.185,53.592 Z M146.515545,47.292 C150.421545,47.292 153.337545,50.028 153.337545,53.682 C153.337545,57.354 150.421545,60.144 146.515545,60.144 C142.627545,60.144 139.711545,57.372 139.711545,53.682 C139.711545,50.01 142.627545,47.292 146.515545,47.292 Z M146.551545,49.974 C144.607545,49.974 142.987545,51.576 142.987545,53.7 C142.987545,55.824 144.625545,57.462 146.551545,57.462 C148.495545,57.462 150.043545,55.824 150.043545,53.7 C150.043545,51.576 148.495545,49.974 146.551545,49.974 Z M166.456818,47.4 L166.456818,54.708 C166.456818,58.038 164.242818,60.144 160.714818,60.144 C157.168818,60.144 154.900818,58.038 154.900818,54.708 L154.900818,47.4 L158.104818,47.4 L158.104818,54.708 C158.104818,56.418 159.202818,57.462 160.732818,57.462 C162.244818,57.462 163.270818,56.418 163.270818,54.708 L163.270818,47.4 L166.456818,47.4 Z M176.444091,60 L174.572091,56.454 L172.052091,56.454 L172.052091,60 L168.848091,60 L168.848091,47.4 L174.482091,47.4 C177.812091,47.4 179.720091,48.984 179.720091,51.792 C179.720091,53.718 178.910091,55.104 177.434091,55.842 L180.080091,60 L176.444091,60 Z M172.052091,53.934 L174.482091,53.934 C175.868091,53.934 176.678091,53.232 176.678091,51.9 C176.678091,50.586 175.868091,49.92 174.482091,49.92 L172.052091,49.92 L172.052091,53.934 Z M90.5221818,68.256 C92.3401818,68.256 94.1941818,68.814 95.4901818,69.66 L94.2841818,72.162 C92.9521818,71.388 91.2781818,70.848 90.2521818,70.848 C89.4241818,70.848 88.8661818,71.154 88.8661818,71.766 C88.8661818,73.944 95.5261818,72.702 95.5261818,77.256 C95.5261818,79.776 93.2941818,81.108 90.4861818,81.108 C88.3801818,81.108 86.2201818,80.316 84.7261818,79.092 L85.9681818,76.626 C87.2641818,77.76 89.2081818,78.516 90.5221818,78.516 C91.5301818,78.516 92.1601818,78.138 92.1601818,77.418 C92.1601818,75.186 85.5001818,76.518 85.5001818,72.054 C85.5001818,69.732 87.4981818,68.256 90.5221818,68.256 Z M108.699455,68.4 L108.699455,75.708 C108.699455,79.038 106.485455,81.144 102.957455,81.144 C99.4114545,81.144 97.1434545,79.038 97.1434545,75.708 L97.1434545,68.4 L100.347455,68.4 L100.347455,75.708 C100.347455,77.418 101.445455,78.462 102.975455,78.462 C104.487455,78.462 105.513455,77.418 105.513455,75.708 L105.513455,68.4 L108.699455,68.4 Z M118.686727,81 L116.814727,77.454 L114.294727,77.454 L114.294727,81 L111.090727,81 L111.090727,68.4 L116.724727,68.4 C120.054727,68.4 121.962727,69.984 121.962727,72.792 C121.962727,74.718 121.152727,76.104 119.676727,76.842 L122.322727,81 L118.686727,81 Z M114.294727,74.934 L116.724727,74.934 C118.110727,74.934 118.920727,74.232 118.920727,72.9 C118.920727,71.586 118.110727,70.92 116.724727,70.92 L114.294727,70.92 L114.294727,74.934 Z M131.014,81 L127.702,81 L122.806,68.4 L126.226,68.4 L129.448,77.67 L132.67,68.4 L135.964,68.4 L131.014,81 Z M147.157273,70.92 L140.497273,70.92 L140.497273,73.422 L146.509273,73.422 L146.509273,75.942 L140.497273,75.942 L140.497273,78.48 L147.355273,78.48 L147.355273,81 L137.293273,81 L137.293273,68.4 L147.157273,68.4 L147.157273,70.92 Z M156.010545,76.932 L156.010545,81 L152.824545,81 L152.824545,77.022 L148.162545,68.4 L151.366545,68.4 L154.408545,73.89 L157.378545,68.4 L160.582545,68.4 L156.010545,76.932 Z" id="THANKS-FOR-TAKING-OU" fill="#FFFFFF"></path>
            </g>
        </g>
    </g>
</svg>