<?xml version="1.0" encoding="UTF-8"?>
<svg width="375px" height="718px" viewBox="0 0 375 718" version="1.1" xmlns="http://www.w3.org/2000/svg" xmlns:xlink="http://www.w3.org/1999/xlink">
    <!-- Generator: Sketch 50.2 (55047) - http://www.bohemiancoding.com/sketch -->
    <title>0_Preferences Copy 3</title>
    <desc>Created with Sketch.</desc>
    <defs>
        <linearGradient x1="50%" y1="0%" x2="50%" y2="100%" id="linearGradient-1">
            <stop stop-color="#00EEFF" offset="0%"></stop>
            <stop stop-color="#00D8FF" offset="100%"></stop>
        </linearGradient>
    </defs>
    <g id="0_Preferences-Copy-3" stroke="none" stroke-width="1" fill="none" fill-rule="evenodd">
        <rect id="Rectangle-10" fill="#FFF3E6" x="18" y="16" width="340" height="683"></rect>
        <text id="Enter-here" font-family="Montserrat-UltraLight, Montserrat" font-size="13" font-weight="200" line-spacing="20" letter-spacing="0.04727273" fill="#9B9B9B">
            <tspan x="41" y="652">Enter here</tspan>
        </text>
        <text id="Understanding-who-is" font-family="Abel-Regular, Abel" font-size="12" font-weight="normal" letter-spacing="0.2181818" fill="#2D297C">
            <tspan x="43.6990058" y="423">Understanding </tspan>
            <tspan x="47.0161045" y="439">who is on my </tspan>
            <tspan x="45.7416905" y="455">medical team</tspan>
        </text>
        <text id="Something-else:" font-family="Abel-Regular, Abel" font-size="12" font-weight="normal" letter-spacing="0.2181818" fill="#2D297C">
            <tspan x="40" y="619">Something else:</tspan>
        </text>
        <text id="Knowing-my-surgery-s" font-family="Abel-Regular, Abel" font-size="12" font-weight="normal" letter-spacing="0.2181818" fill="#2D297C">
            <tspan x="138.137926" y="423">Knowing my surgery </tspan>
            <tspan x="164.204421" y="439">schedule </tspan>
        </text>
        <text id="A-preparation-checkl" font-family="Abel-Regular, Abel" font-size="12" font-weight="normal" letter-spacing="0.2181818" fill="#2D297C">
            <tspan x="97.9968574" y="559">A preparation </tspan>
            <tspan x="107.474237" y="575">checklist</tspan>
        </text>
        <text id="Logistics-for-transp" font-family="Abel-Regular, Abel" font-size="12" font-weight="normal" letter-spacing="0.2181818" fill="#2D297C">
            <tspan x="259.099396" y="423">Logistics for </tspan>
            <tspan x="249.306303" y="439">transportation &amp; </tspan>
            <tspan x="271.569372" y="455">parking </tspan>
        </text>
        <g id="Group-6" transform="translate(153.000000, 335.000000)" stroke="#00D8FF">
            <circle id="Oval-3-Copy-10" stroke-width="2" cx="35" cy="35" r="34"></circle>
            <circle id="Oval" cx="15.9649123" cy="35.6140351" r="4.4122807"></circle>
            <circle id="Oval-Copy" fill="#00D8FF" cx="34.3859649" cy="35.6140351" r="4.4122807"></circle>
            <path d="M20.2631579,36.2280702 L47.5307409,36.2280702" id="Line" stroke-linecap="square"></path>
            <circle id="Oval-Copy-2" cx="52.8070175" cy="35.6140351" r="4.4122807"></circle>
        </g>
        <g id="Group-5" transform="translate(42.000000, 335.000000)">
            <circle id="Oval-3-Copy-9" stroke="#00D8FF" stroke-width="2" cx="35" cy="35" r="34"></circle>
            <g id="Group" transform="translate(11.052632, 14.736842)" fill="#00D8FF">
                <path d="M12.5300171,24.3231996 C12.5521224,24.3305681 12.5791399,24.3330242 12.6061575,24.3330242 C12.6540522,24.3317961 12.7056312,24.3244277 12.7424733,24.3133751 C14.5391399,23.7939014 15.7622978,23.0054803 16.5949294,22.2023224 L16.623175,23.0668838 C16.5973856,23.1098663 16.5777364,23.156533 16.5740522,23.2105681 L16.5654557,23.3444277 C16.3333505,27.0912698 15.7794908,28.6730242 15.3545785,29.3410944 C14.5158066,30.6624979 13.3012452,31.6584628 12.6454557,32.0895154 C11.9884382,31.6633751 10.7665084,30.6760067 9.91913995,29.3595154 C9.49054346,28.6951295 8.92563118,27.1146031 8.66773644,23.3714453 L8.65913995,23.2363575 C8.65422767,23.1675856 8.62352591,23.1086382 8.5829996,23.0582874 L9.11475398,22.8298663 C9.16387679,22.8102172 9.20194697,22.7758312 9.23387679,22.7389891 C10.0345785,23.3505681 11.1005435,23.9203926 12.5300171,24.3231996 M8.02791188,20.426533 C7.43106977,19.3888137 7.08106977,17.8647786 6.9398417,16.8909189 C7.73563118,16.6895154 9.94124521,16.2007435 12.5852803,16.192147 C15.2452803,16.1823224 17.4656312,16.663726 18.250368,16.856533 C18.1152803,17.8328488 17.7751049,19.3556558 17.1868592,20.3958312 C16.5900171,21.4495154 15.3201926,22.8654803 12.6172101,23.6686382 C9.92036802,22.893726 8.63335048,21.4802172 8.02791188,20.426533 M8.88633293,10.1488137 C10.0849294,9.24249788 10.5822978,7.96653297 10.8340522,7.20635753 C10.9261575,7.25916455 11.0268592,7.31442771 11.1386136,7.37828736 C12.0744031,7.90144525 13.8158066,8.8753049 14.3254557,9.68460314 C14.6582628,10.2139014 14.9198417,10.7886382 15.1015961,11.3940768 C15.1433505,11.5353049 15.2735259,11.6274102 15.4159821,11.6274102 C15.4466838,11.6274102 15.4773856,11.6224979 15.5080873,11.6126733 C15.6812452,11.5610944 15.7794908,11.37934 15.7279119,11.204954 C15.5289645,10.5442523 15.2440522,9.91670841 14.8793154,9.33583121 C14.5845785,8.86916455 14.0073856,8.39267332 13.3712452,7.95916455 C13.6058066,7.99600665 13.8379119,8.02916455 14.0614207,8.06109437 C14.871947,8.17284876 15.571947,8.26863823 16.1012452,8.58916455 L16.2142277,8.65670841 C16.8921224,9.0607435 18.3056312,9.90319964 18.3117715,11.7379365 L18.3252803,16.0668838 C18.3240522,16.0791645 18.3179119,16.0889891 18.3179119,16.1024979 C18.3179119,16.1295154 18.3166838,16.1639014 18.3142277,16.1982874 C17.4312452,15.9833751 15.2465084,15.527761 12.5828242,15.5375856 C9.93510486,15.5461821 7.76387679,16.0091645 6.87106977,16.2326733 C6.8698417,16.2007435 6.86861363,16.1663575 6.86738556,16.13934 C6.86738556,16.1258312 6.86124521,16.1135505 6.86001714,16.1000417 L6.84282416,10.9875856 C6.86247328,10.9839014 6.87721012,10.9789891 6.89685925,10.9740768 C7.44949083,10.8426733 8.20598205,10.6633751 8.88633293,10.1488137 M0.352473282,36.5891645 C0.532999598,36.5879365 0.680368019,36.4417961 0.679139949,36.2612698 L0.654578545,28.932147 C0.649666265,27.4191645 1.54615749,26.0584628 2.93633293,25.466533 L3.85370135,25.0747786 C3.85615749,25.0735505 3.85738556,25.0735505 3.8598417,25.0723224 L8.00826276,23.3026733 L8.01563118,23.4168838 C8.23054346,26.533726 8.68492942,28.652147 9.36773644,29.7144277 C10.3612452,31.2556558 11.8386136,32.37934 12.4808943,32.7575856 C12.5324733,32.7882874 12.5901926,32.8030242 12.6479119,32.8030242 C12.7056312,32.8017961 12.7633505,32.7870593 12.8149294,32.7563575 C13.454754,32.3731996 14.924754,31.2396909 15.9072101,29.6910944 C16.2572101,29.1409189 16.5421224,28.3033751 16.7644031,27.1981119 L16.8515961,29.7561821 C16.8515961,29.7746031 16.8601926,29.7917961 16.8638768,29.8114453 C16.8687891,29.8310944 16.8700171,29.8519716 16.8786136,29.8703926 C16.8859821,29.8900417 16.8994908,29.9072347 16.9117715,29.9256558 C16.9228242,29.9416207 16.9314207,29.9588137 16.9461575,29.9735505 C16.9621224,29.9882874 16.9817715,30.0005681 17.0014207,30.0128488 C17.0161575,30.0239014 17.0296663,30.034954 17.0468592,30.0423224 C17.0689645,30.0533751 17.094754,30.0558312 17.1193154,30.0607435 C17.1352803,30.0644277 17.1487891,30.0717961 17.164754,30.0730242 L19.9794908,30.1823224 L19.9942277,30.1823224 C20.1686136,30.1823224 20.3122978,30.0435505 20.3196663,29.8691645 C20.3270347,29.6874102 20.1858066,29.5363575 20.0052803,29.5289891 L17.4951049,29.4295154 L17.2249294,21.5047786 C17.4398417,21.232147 17.6154557,20.9668838 17.7554557,20.7175856 C18.4235259,19.5386382 18.7870347,17.8389891 18.9159821,16.8000417 C18.9344031,16.7730242 18.9515961,16.7460067 18.9614207,16.7140768 C18.9810698,16.6428488 18.9724733,16.5728488 18.9479119,16.5102172 C18.9614207,16.366533 18.9687891,16.244954 18.9712452,16.1467084 C18.9737014,16.1307435 18.9798417,16.1172347 18.9798417,16.1024979 L18.9651049,11.7354803 C18.9577364,9.5298663 17.2691399,8.5253049 16.5482628,8.09548034 L16.4414207,8.03039262 C15.7966838,7.63863823 14.9972101,7.52811192 14.1510698,7.41144525 C13.1305435,7.27144525 11.9737014,7.11179613 10.8156312,6.43512946 C10.8058066,6.42898911 10.7935259,6.42898911 10.7837014,6.42407683 C10.7726487,6.41916455 10.7652803,6.41056806 10.7542277,6.40565578 C10.7468592,6.40319964 10.7394908,6.40565578 10.7321224,6.40319964 C10.7210698,6.4007435 10.7124733,6.39705929 10.7026487,6.39460314 C10.6854557,6.392147 10.6694908,6.39460314 10.6535259,6.39337507 C10.637561,6.39337507 10.6228242,6.39337507 10.6080873,6.39583121 C10.5982628,6.39705929 10.5884382,6.39705929 10.5786136,6.39828736 C10.5614207,6.40319964 10.5466838,6.41056806 10.531947,6.41793648 C10.5172101,6.42284876 10.5037014,6.42776104 10.4901926,6.43635753 C10.4815961,6.44004174 10.4729996,6.44372595 10.4644031,6.44863823 C10.4521224,6.45846279 10.4422978,6.4707435 10.4312452,6.48179613 C10.4177364,6.49284876 10.4054557,6.50512946 10.393175,6.5198663 C10.3882628,6.52600665 10.3821224,6.52969086 10.3784382,6.53583121 C10.3759821,6.53828736 10.3759821,6.54197157 10.374754,6.54319964 C10.3722978,6.54688385 10.3698417,6.54811192 10.3673856,6.55056806 C10.3612452,6.56162069 10.3612452,6.57390139 10.3563329,6.58495402 C10.3514207,6.59355051 10.3440522,6.602147 10.340368,6.61319964 L10.287561,6.77284876 C10.0824733,7.41267332 9.65510486,8.74635753 8.4921224,9.62688385 C7.92106977,10.0591645 7.24194697,10.2200417 6.74703469,10.3367084 C6.63036802,10.364954 6.52352591,10.3907435 6.42896451,10.416533 C6.42159609,10.417761 6.41668381,10.4239014 6.40931539,10.4263575 C6.38721012,10.4324979 6.367561,10.4435505 6.34913995,10.4558312 C6.33194697,10.4668838 6.31475398,10.4767084 6.30001714,10.4889891 C6.28405223,10.503726 6.27177153,10.5209189 6.25949083,10.5368838 C6.24598205,10.5540768 6.23370135,10.5700417 6.22510486,10.5872347 C6.2152803,10.6056558 6.21036802,10.6253049 6.20545574,10.644954 C6.19931539,10.6670593 6.19440311,10.6879365 6.19194697,10.7112698 C6.19194697,10.7186382 6.18826276,10.7247786 6.18826276,10.7333751 L6.20668381,16.1454803 C6.20668381,16.1614453 6.21282416,16.173726 6.2152803,16.1884628 C6.21773644,16.27934 6.22387679,16.3874102 6.23615749,16.5175856 C6.20054346,16.5875856 6.18826276,16.6735505 6.21282416,16.7558312 C6.22633293,16.8000417 6.25089433,16.8356558 6.27791188,16.8700417 C6.41668381,17.9102172 6.79124521,19.587761 7.46054346,20.7531996 C7.73317504,21.2260067 8.13106977,21.7651295 8.70457855,22.2944277 L4.07598205,24.2691645 L4.51563118,11.2110944 C4.51563118,11.2086382 4.51440311,11.2074102 4.51440311,11.204954 C4.51440311,11.2024979 4.51563118,11.2012698 4.51563118,11.1988137 C4.49966626,6.75442771 8.10405223,3.12548034 12.5496663,3.11197157 C16.9940522,3.09723472 20.6229996,6.70039262 20.6377364,11.1460067 C20.6377364,11.1472347 20.6389645,11.1496909 20.6389645,11.152147 C20.6389645,11.1533751 20.6377364,11.1558312 20.6389645,11.1582874 L21.2640522,26.6896909 C21.2714207,26.8653049 21.4163329,27.0040768 21.591947,27.0040768 C21.5956312,27.0040768 21.5993154,27.0028488 21.6042277,27.0028488 C21.784754,26.9954803 21.924754,26.8431996 21.9173856,26.6626733 L21.8584382,25.2024979 L22.310368,25.4014453 C22.537561,25.4960067 22.7549294,25.6151295 22.9587891,25.7514453 C23.0152803,25.7882874 23.0791399,25.8079365 23.1417715,25.8067084 C23.2473856,25.8067084 23.3505435,25.7563575 23.413175,25.6630242 C23.5138768,25.5131996 23.4745785,25.3105681 23.324754,25.2086382 C23.0852803,25.047761 22.8286136,24.9102172 22.5682628,24.8009189 L21.8289645,24.4742523 L21.2910698,11.1312698 L21.2910698,11.1300417 C21.2677364,6.3307435 17.3477364,2.44144525 12.5472101,2.45618209 C7.74668381,2.47337507 3.85370135,6.38846279 3.86106977,11.187761 L3.86106977,11.1889891 L3.41159609,24.5528488 L2.67966626,24.8635505 C1.04633293,25.5610944 -0.00489513887,27.1588137 1.71418298e-05,28.9346031 L0.0245785453,36.263726 C0.0258066155,36.4442523 0.171946966,36.5891645 0.352473282,36.5891645" id="Fill-5"></path>
                <path d="M8.42456952,35.7270257 L4.52176251,35.7393064 L4.5180783,34.6917625 L8.42088531,34.6794818 L8.42456952,35.7270257 Z M4.33878005,30.7152713 C4.33755198,30.3922888 4.59913093,30.1282538 4.92211338,30.1270257 C5.24509584,30.1270257 5.50913093,30.3886046 5.50913093,30.7115871 C5.510359,31.0345695 5.24878005,31.2986046 4.92579759,31.2998327 C4.60281514,31.3010608 4.34000812,31.0382538 4.33878005,30.7152713 Z M4.18895549,34.0384292 C4.00842917,34.0396573 3.86228882,34.1857976 3.86228882,34.367552 L3.86842917,36.0684292 C3.86965724,36.2501836 4.01579759,36.3963239 4.19632391,36.3950959 L8.75369233,36.3791309 C8.93421865,36.3791309 9.080359,36.2317625 9.07913093,36.0524643 L9.07421865,34.350359 C9.07299058,34.1686046 8.92685022,34.0224643 8.74632391,34.0236923 L6.79369233,34.0298327 L6.79000812,32.6740432 L7.6926397,31.7640432 C7.820359,31.6363239 7.820359,31.4287801 7.69141163,31.3010608 C7.56369233,31.1733415 7.35614847,31.1745695 7.22842917,31.3022888 L6.23000812,32.3080783 C6.20053444,32.337552 6.17597303,32.3756222 6.16000812,32.4149204 C6.14527128,32.4517625 6.13790286,32.4910608 6.13667479,32.530359 C6.13667479,32.5328152 6.13544672,32.5364994 6.13544672,32.5389555 L6.140359,34.0322888 L5.26228882,34.034745 L5.2549204,31.9028152 C5.77930637,31.7566748 6.16614847,31.2789555 6.16369233,30.7091309 C6.16246426,30.0250959 5.60369233,29.4712362 4.91965724,29.4736923 C4.23685022,29.4749204 3.68176251,30.0336923 3.68421865,30.7177274 C3.68667479,31.287552 4.07597303,31.7615871 4.60158707,31.9052713 L4.60895549,34.0372011 L4.18895549,34.0384292 Z" id="Fill-6"></path>
                <path d="M35.1044099,29.1937163 L29.488445,24.6265234 L30.6219537,24.1328391 C30.6293222,24.1291549 30.6354625,24.1217865 30.6428309,24.1168742 C30.6673923,24.1033655 30.6894976,24.0898567 30.7103748,24.0702076 C30.7214274,24.0591549 30.7300239,24.0505584 30.7398485,24.0395058 C30.7558134,24.0198567 30.7680941,24.0002076 30.7791467,23.9768742 C30.7865151,23.9633655 30.7938836,23.9498567 30.7987959,23.9351199 C30.801252,23.9289795 30.8049362,23.9240672 30.8061643,23.9166988 L31.5417783,21.1793304 L33.4219537,22.0217865 C33.9573923,22.2624883 34.5321292,22.3816111 35.105638,22.380383 C35.6803748,22.3779269 36.2538836,22.2551199 36.7880941,22.0107339 L38.6191467,21.1756462 L39.3670415,23.8896813 C39.3694976,23.8958216 39.3731818,23.8995058 39.375638,23.9068742 C39.3805502,23.9216111 39.3879187,23.9351199 39.3952871,23.9486286 C39.4063397,23.9707339 39.4186204,23.9916111 39.4345853,24.0100321 C39.4444099,24.0210848 39.4542344,24.0309093 39.464059,24.041962 C39.4849362,24.0591549 39.5070415,24.0751199 39.5316029,24.0886286 C39.5401994,24.0923128 39.5451116,24.0996813 39.5537081,24.1021374 L40.689673,24.5896813 L35.1044099,29.1937163 Z M29.6787959,19.6061725 L29.6603748,13.9533655 C30.1724801,13.7016111 31.938445,12.9635409 35.0503748,12.9524883 C38.1623046,12.9438918 39.9331818,13.6684532 40.4477432,13.9177514 L40.4661643,19.597576 C40.4059888,19.6295058 40.3494976,19.6663479 40.286866,19.6958216 L38.7886204,20.3798567 C38.7714274,20.3810848 38.7566906,20.3786286 38.7407257,20.3835409 C38.6866906,20.3982777 38.6449362,20.4265234 38.606866,20.4621374 L36.5166906,21.4163479 C35.6189713,21.8252953 34.5898485,21.8277514 33.6909011,21.4261725 L29.908445,19.7302076 C29.8286204,19.6945935 29.7549362,19.6479269 29.6787959,19.6061725 Z M27.8821292,16.6133655 L27.8723046,13.7151199 L29.0058134,14.0098567 L29.0230064,19.1481023 C28.3144099,18.5107339 27.8858134,17.5958216 27.8821292,16.6133655 Z M26.9316029,5.06459354 C26.9230064,2.52003213 29.4724801,0.666874237 32.9933573,0.654593535 C33.9377432,0.650909325 34.7138836,0.873190027 35.3094976,1.31406722 C34.4044099,2.05582161 33.8272169,3.18196196 33.8309011,4.44073389 C33.8321292,4.64336547 33.8530064,4.84108476 33.8824801,5.03511985 C33.7461643,5.00933038 33.6061643,4.97862862 33.461252,4.94792687 C32.6175678,4.76740055 31.6609011,4.56108476 30.6563397,4.77845318 C28.9517783,5.14687424 27.6438836,6.21161108 26.9377432,6.91038301 L26.9316029,5.06459354 Z M41.2287959,4.41494441 C41.2349362,6.27424266 39.726866,7.7921374 37.8675678,7.79827775 C36.0094976,7.8044181 34.4916029,6.29634792 34.4866906,4.43827775 C34.4805502,2.5789795 35.9873923,1.06231283 37.8454625,1.05617248 C39.7047608,1.05003213 41.2214274,2.55687424 41.2287959,4.41494441 Z M40.9586204,1.65792687 C43.9280941,2.95108476 42.7110766,6.84529529 42.3659888,7.78231283 L40.0621292,7.79090932 C41.161252,7.06757599 41.8870415,5.82476897 41.8833573,4.41371634 C41.879673,3.28511985 41.4080941,2.26704968 40.6552871,1.53634792 C40.7559888,1.57810231 40.8480941,1.61003213 40.9586204,1.65792687 Z M41.1182695,19.1554707 L41.1023046,13.9705584 L42.281252,13.6537163 L42.2910766,16.4537163 C42.2947608,17.5307339 41.861252,18.4996813 41.1182695,19.1554707 Z M30.7938836,5.41950582 C31.6621292,5.23161108 32.5451116,5.42073389 33.3237081,5.58775143 C33.5779187,5.64178652 33.8186204,5.68968125 34.0507257,5.72775143 C34.3454625,6.58862862 34.9238836,7.31933038 35.6754625,7.80564617 L27.8538836,7.83020757 L27.8501994,6.96687424 C28.5428309,6.37371634 29.5621292,5.6835409 30.7938836,5.41950582 Z M29.2882695,13.4068742 L27.8710766,13.0372251 L27.8551116,8.48599704 L42.2652871,8.43810231 L42.2800239,12.9770497 L40.8149362,13.367576 C40.3310766,13.1182777 38.466866,12.2868742 35.0491467,12.2979269 C31.6289713,12.3102076 29.7709011,13.1526637 29.2882695,13.4068742 Z M46.3142344,26.2893304 C46.3142344,26.2893304 46.3142344,26.2881023 46.3130064,26.2881023 L39.9565151,23.5630146 L39.2221292,20.9005584 L40.5582695,20.2902076 C40.6810766,20.2337163 40.794059,20.1649444 40.9082695,20.0986286 C40.9266906,20.0912602 40.9426555,20.0802076 40.9598485,20.070383 C42.1977432,19.3286286 42.9505502,17.9838918 42.945638,16.4512602 L42.9186204,8.17038301 C43.1544099,7.55634792 44.8945853,2.65757599 41.2189713,1.05862862 C40.5435327,0.763891781 39.7587959,0.485119851 39.0293222,0.574768974 C38.6535327,0.461786518 38.255638,0.400383009 37.8442344,0.401611079 C37.1270415,0.40406722 36.4552871,0.596874237 35.8719537,0.928453185 C35.1400239,0.309505816 34.1747608,-0.00365207861 32.9909011,3.21319154e-05 C29.0917783,0.0123128337 26.2672169,2.14424266 26.2770415,5.06704968 L26.285638,7.75529529 C26.285638,7.89406722 26.3752871,8.01933038 26.5079187,8.0635409 C26.5423046,8.07582161 26.5791467,8.08196196 26.6135327,8.08196196 C26.7130064,8.08073389 26.8087959,8.03529529 26.8714274,7.95424266 C26.8763397,7.94933038 26.9917783,7.80319003 27.1980941,7.58459354 L27.2275678,16.6158216 C27.2324801,18.0072251 27.9509011,19.2893304 29.0979187,20.0298567 C29.1507257,20.0986286 29.2280941,20.1428391 29.3189713,20.1526637 C29.4245853,20.2128391 29.5277432,20.2754707 29.6407257,20.3258216 L30.9363397,20.9079269 L30.2154625,23.5949444 L23.8761643,26.3617865 C23.8761643,26.3617865 23.8749362,26.3630146 23.8749362,26.3630146 C22.0475678,27.1440672 20.8710766,28.9321374 20.8772169,30.920383 L20.9042344,39.2012602 C20.9054625,39.3817865 21.0528309,39.5279269 21.2333573,39.5279269 C21.4138836,39.5266988 21.5600239,39.3805584 21.5587959,39.1988041 L21.5317783,30.9179269 C21.525638,29.1924883 22.5473923,27.6389795 24.1377432,26.9623128 L28.8130064,24.9212602 L34.7789713,29.7733655 L34.809673,39.1545935 C34.8109011,39.3363479 34.9570415,39.4824883 35.1387959,39.4812602 C35.3193222,39.4812602 35.4654625,39.3338918 35.4642344,39.1521374 L35.4335327,29.7709093 L41.3663397,24.8795058 L46.0551116,26.8898567 L46.0575678,26.8898567 C47.6503748,27.5566988 48.6831818,29.1028391 48.6893222,30.8282777 L48.7151116,39.1091549 C48.7163397,39.2896813 48.8637081,39.4358216 49.0442344,39.4358216 C49.2259888,39.4345935 49.3709011,39.2884532 49.3709011,39.1066988 L49.3426555,30.8258216 C49.3365151,28.8388041 48.1477432,27.0581023 46.3142344,26.2893304 Z" id="Fill-7"></path>
                <path d="M45.7345691,37.6870252 L39.9601831,37.7066744 L39.9540428,35.6779024 L45.7284287,35.6594814 L45.7345691,37.6870252 Z M46.0526393,35.0024638 L43.3263235,35.0122884 L43.317727,32.4038673 C43.3164989,32.223341 43.1703586,32.0772007 42.9898322,32.0784287 C42.8080779,32.0784287 42.6631656,32.2257972 42.6631656,32.4063235 L42.6717621,35.0135165 L41.3343936,35.0184287 L41.3221129,31.0272007 C41.3208849,30.8466744 41.1747445,30.700534 40.9942182,30.7017621 C40.8124638,30.7017621 40.6675515,30.8491305 40.6675515,31.0284287 L40.6810603,35.0208849 L39.6236919,35.0245691 C39.4431656,35.0245691 39.2970252,35.1719375 39.2982533,35.3536919 L39.3068498,38.0357972 C39.3080779,38.2175515 39.4542182,38.3624638 39.6359726,38.3624638 L46.06492,38.3403586 C46.2454463,38.3403586 46.3915866,38.1929901 46.3903586,38.0124638 L46.3817621,35.3291305 C46.380534,35.1486042 46.2343936,35.0024638 46.0526393,35.0024638 Z" id="Fill-8"></path>
            </g>
        </g>
        <path d="M42.5,661.5 L334.749893,661.5" id="Line-6" stroke="#9B9B9B" stroke-linecap="square"></path>
        <g id="Group-7" transform="translate(255.000000, 334.000000)" stroke="#00D8FF">
            <circle id="Oval-3-Copy-11" stroke-width="2" fill-opacity="0.2" fill="#10E06C" cx="35" cy="35.9649123" r="34"></circle>
            <g id="Group" transform="translate(13.508772, 26.000000)" stroke-linecap="round" stroke-linejoin="round">
                <path d="M11.0526316,17.3333333 C11.0526316,19.7059649 9.40210526,21.6315789 7.36842105,21.6315789 C5.33473684,21.6315789 3.68421053,19.7059649 3.68421053,17.3333333 C3.68421053,14.9607018 5.33473684,13.0350877 7.36842105,13.0350877 C9.40210526,13.0350877 11.0526316,14.9607018 11.0526316,17.3333333 Z" id="Stroke-1"></path>
                <path d="M39.2982456,17.9473684 L45.4385965,17.9473684" id="Stroke-3"></path>
                <path d="M39.2982456,17.3333333 C39.2982456,19.7059649 37.6477193,21.6315789 35.6140351,21.6315789 C33.5803509,21.6315789 31.9298246,19.7059649 31.9298246,17.3333333 C31.9298246,14.9607018 33.5803509,13.0350877 35.6140351,13.0350877 C37.6477193,13.0350877 39.2982456,14.9607018 39.2982456,17.3333333 Z" id="Stroke-5"></path>
                <path d="M11.0526316,17.9473684 L31.9298246,17.9473684" id="Stroke-7"></path>
                <path d="M44.2105263,17.9473684 L44.2105263,11.2612086 C44.2105263,9.67754386 42.8600957,8.3957115 41.1961722,8.3957115 L38.1818182,8.3957115 L34.1626794,0.754385965 L15.0717703,0.754385965 L11.0526316,8.3957115 L3.01435407,8.3957115 C1.35043062,8.3957115 0,9.67754386 0,11.2612086 L0,17.9473684 L3.01435407,17.9473684" id="Stroke-9"></path>
                <polyline id="Stroke-11" points="15.9649123 9.35087719 18.4210526 4.43859649 20.877193 4.43859649"></polyline>
            </g>
        </g>
        <polyline id="Path-2-Copy-2" stroke="#10E06C" stroke-width="3" points="283 369.071985 287.62166 374 297 364"></polyline>
        <text id="What-would-make-you" font-family="Montserrat-SemiBold, Montserrat" font-size="18" font-weight="500" letter-spacing="0.08727273" fill="#2D297C">
            <tspan x="65.3577272" y="242">What would make you feel </tspan>
            <tspan x="51.6984545" y="264">more informed and confident </tspan>
            <tspan x="52.369909" y="286">as you prepare for your day of </tspan>
            <tspan x="148.603909" y="308">surgery? </tspan>
        </text>
        <text id="Recovery-information" font-family="Abel-Regular, Abel" font-size="12" font-weight="normal" letter-spacing="0.2181818" fill="#2D297C">
            <tspan x="216.587234" y="559">Recovery </tspan>
            <tspan x="210.758008" y="575">information </tspan>
        </text>
        <polyline id="Path-2-Copy-3" stroke="#10E06C" stroke-width="3" points="233 510.071985 237.62166 515 247 505"></polyline>
        <g id="Group-8" transform="translate(203.000000, 472.000000)">
            <circle id="Oval-3-Copy-12" stroke="#00D8FF" stroke-width="2" fill-opacity="0.2" fill="#10E06C" cx="35" cy="35" r="34"></circle>
            <path d="M34.020507,37.6575827 C34.5270322,37.8835452 35.0705336,37.9965264 35.6140351,37.9965264 C36.1575366,37.9965264 36.701038,37.8835452 37.2070566,37.6575827 L39.3957517,36.6802451 L39.8668201,39.4277886 C39.8516243,40.8360547 37.9496225,41.9793647 35.612009,41.9793647 C33.2733825,41.9793647 31.3718871,40.8360547 31.3561849,39.4277886 L31.8277597,36.6787453 L34.020507,37.6575827 Z M28.8498985,32.5929241 L28.8498985,21.5162642 L28.8585094,21.4222798 C28.9238512,20.6049156 29.2424555,19.9295278 29.7996331,19.3906174 C31.8150966,22.3166313 33.8857713,23.7378952 36.1615888,24.3662908 C35.9118719,24.6467442 35.7639665,25.020682 35.7639665,25.376123 L35.7639665,26.9303648 C35.7639665,27.663743 36.3687575,28.2601439 37.1118299,28.2601439 L39.5548006,28.2601439 C40.2973664,28.2601439 40.9016509,27.663743 40.9016509,26.9303648 L40.9016509,24.7917201 C41.3828498,24.7747229 41.8751922,24.7507269 42.3781717,24.7167325 L42.3781717,32.4894413 C42.3781717,33.8132214 41.6558668,34.9580312 40.4928851,35.4774449 L36.9360657,37.0651811 C36.0967535,37.4401188 35.1328362,37.4401188 34.291498,37.0651811 L30.735185,35.4774449 C29.5899317,34.9660298 28.8498985,33.8337179 28.8498985,32.5929241 Z M36.4229557,25.376123 C36.4229557,25.0166827 36.6979989,24.6047511 37.0591513,24.5777556 C37.9820401,24.750227 38.9408921,24.8152162 39.9438119,24.8152162 C40.0415712,24.8152162 40.1443958,24.8087173 40.2426617,24.8077174 L40.2426617,26.9303648 C40.2426617,27.3053025 39.9341879,27.6102518 39.5548006,27.6102518 L37.1118299,27.6102518 C36.731936,27.6102518 36.4229557,27.3053025 36.4229557,26.9303648 L36.4229557,25.376123 Z M42.3781717,21.5052661 L42.3781717,24.0683403 C40.4863003,24.1968189 38.7955194,24.2378121 37.2323829,23.9538593 C37.1903413,23.9348624 37.144754,23.9228644 37.0951146,23.9228644 C37.0885297,23.9228644 37.0824514,23.9248641 37.0758666,23.925364 C34.6045305,23.4399447 32.4477465,22.1086658 30.3056517,18.9766861 C31.4316571,18.2233113 33.204495,17.8428745 35.6140351,17.8428745 C39.9762295,17.8428745 42.3781717,19.1436584 42.3781717,21.5052661 Z M21.2064343,55.2631579 C21.3882768,55.2631579 21.5356757,55.1176821 21.5356757,54.9382119 L21.5356757,46.4706186 C21.5356757,44.7019124 22.6024176,43.1146761 24.2476112,42.4287901 L30.7513938,39.8682154 C31.0927918,41.4264566 33.1391533,42.6287568 35.612009,42.6287568 C38.0838516,42.6287568 40.1307197,41.4264566 40.4716111,39.8682154 L46.9759003,42.4287901 C46.9779264,42.42929 46.9794459,42.4287901 46.981472,42.4297899 C48.6281852,43.1196753 49.691888,44.704412 49.691888,46.4706186 L49.691888,54.9382119 C49.691888,55.1176821 49.8392868,55.2631579 50.0216359,55.2631579 C50.2034784,55.2631579 50.3508772,55.1176821 50.3508772,54.9382119 L50.3508772,46.4706186 C50.3508772,44.4399559 49.1260994,42.6177587 47.2306824,41.8278899 C47.2276432,41.8263901 47.2240976,41.82689 47.2215649,41.8258902 C47.2210584,41.8258902 47.2210584,41.8253903 47.2205519,41.8253903 L40.4913656,39.1763304 L40.016245,36.4032911 L40.7638761,36.0693465 C42.1659376,35.4434505 43.0371609,34.0721783 43.0371609,32.4894413 L43.0371609,21.5052661 C43.0371609,19.8950336 42.0722305,17.1929825 35.6140351,17.1929825 C32.8899429,17.1929825 30.9119623,17.6699032 29.6836389,18.6082473 C29.6785736,18.6112468 29.6724953,18.6112468 29.6674301,18.6147463 C29.6512213,18.6252445 29.6410908,18.6407419 29.6274146,18.6532399 C28.7749328,19.3281277 28.2932274,20.2324775 28.2020529,21.3707884 L28.1929354,21.4722715 C28.1924289,21.4777706 28.1949615,21.4827698 28.194455,21.4882689 C28.1939485,21.4942679 28.1909093,21.4992671 28.1909093,21.5052661 L28.1909093,32.5929241 C28.1909093,34.0886756 29.0834066,35.4529489 30.4641941,36.0693465 L31.2072665,36.4012914 L30.7316394,39.1768303 L24.0034661,41.8253903 L23.9973878,41.8278899 C22.1019707,42.6172587 20.877193,44.4399559 20.877193,46.4706186 L20.877193,54.9382119 C20.877193,55.1176821 21.0245918,55.2631579 21.2064343,55.2631579 Z" id="Fill-1" fill="#00D8FF"></path>
        </g>
        <g id="Group-2" transform="translate(64.000000, 53.000000)">
            <g id="Group-4">
                <path d="M76.1099189,130.179384 C81.9927711,112.920907 98.7992752,101.47619 118.399666,101.356719 C142.875326,101.2099 167.355303,101.435887 191.830962,101.286188 C224.42775,101.084671 247.527337,73.7402762 242.33396,41.7278874 C238.389988,17.4148811 217.213447,0.1391306 190.928455,0.0757967375 C150.81221,-0.0206434626 110.695966,-0.0566286119 70.5811606,0.162161096 C64.6824749,0.195267433 58.6124999,1.14095716 52.9239675,2.73869779 C15.3007742,13.29818 -6.71206136,50.7903874 1.83657071,89.0843439 C10.8889949,129.636728 46.7287642,144.130107 73.2901226,143.999121 C74.248767,139.142565 74.6446036,134.47889 76.1099189,130.179384 Z" id="Fill-1" fill="url(#linearGradient-1)"></path>
                <text id="Hello!" font-family="Montserrat-Bold, Montserrat" font-size="40" font-weight="bold" line-spacing="33" letter-spacing="0.1939395" fill="#FFFFFF">
                    <tspan x="62.5" y="74">Hello!</tspan>
                </text>
            </g>
        </g>
        <g id="Group-9-Copy-2" transform="translate(95.000000, 472.000000)">
            <path d="M22,28.2280702 L23.2280702,28.2280702 L23.2280702,27 L22,27 L22,28.2280702 Z M22,35.5964912 L23.2280702,35.5964912 L23.2280702,34.367193 L22,34.367193 L22,35.5964912 Z M22,42.9649123 L23.2280702,42.9649123 L23.2280702,41.735614 L22,41.735614 L22,42.9649123 Z M26.9122807,28.2280702 L47.7894737,28.2280702 L47.7894737,27 L26.9122807,27 L26.9122807,28.2280702 Z M26.9122807,35.5964912 L47.7894737,35.5964912 L47.7894737,34.367193 L26.9122807,34.367193 L26.9122807,35.5964912 Z M26.9122807,42.9649123 L47.7894737,42.9649123 L47.7894737,41.735614 L26.9122807,41.735614 L26.9122807,42.9649123 Z" id="Fill-3" fill="#00D8FF"></path>
            <circle id="Oval-3-Copy-13" stroke="#00D8FF" stroke-width="2" fill-opacity="0.2" fill="#10E06C" cx="35" cy="35" r="34"></circle>
            <polyline id="Path-2-Copy-2" stroke="#10E06C" stroke-width="3" points="28 35.0719847 32.6216602 40 42 30"></polyline>
        </g>
    </g>
</svg>