<?xml version="1.0" encoding="UTF-8"?>
<svg width="126px" height="20px" viewBox="0 0 126 20" version="1.1" xmlns="http://www.w3.org/2000/svg" xmlns:xlink="http://www.w3.org/1999/xlink">
    <!-- Generator: Sketch 50.2 (55047) - http://www.bohemiancoding.com/sketch -->
    <title>Group 4</title>
    <desc>Created with Sketch.</desc>
    <defs>
        <polygon id="path-1" points="0 10 108.9 10 108.9 0 0 0"></polygon>
        <polygon id="path-3" points="1.24456612e-05 0.0344554455 16.8437831 0.0344554455 16.8437831 19.6038812 1.24456612e-05 19.6038812"></polygon>
    </defs>
    <g id="Symbols" stroke="none" stroke-width="1" fill="none" fill-rule="evenodd">
        <g id="Nav" transform="translate(-36.000000, -19.000000)">
            <g id="Group-4" transform="translate(36.000000, 19.000000)">
                <g id="Group" transform="translate(23.000000, 4.000000)">
                    <polygon id="Fill-1" fill="#00D8FF" points="4.9608 2.3383 4.9608 6.5873 4.9428 6.5873 2.1518 2.3383 0.6838 2.3383 0.6838 9.0003 2.0348 9.0003 2.0348 4.7153 2.0528 4.7153 4.9608 9.0003 6.3108 9.0003 6.3108 2.3383"></polygon>
                    <g id="Group-26">
                        <path d="M7.6319,2.3382 L9.1089,2.3382 L9.8109,5.3722 C9.9369,5.8592 10.0449,6.2642 10.1349,6.8302 L10.1529,6.8302 C10.2339,6.2812 10.3419,5.8592 10.4589,5.3812 L11.1339,2.3382 L12.4839,2.3382 L13.2049,5.3992 C13.3309,5.9302 13.4289,6.2362 13.5189,6.8302 L13.5379,6.8302 C13.6279,6.2282 13.7089,5.9572 13.8349,5.4172 L14.5089,2.3382 L15.8599,2.3382 L14.1229,9.0002 L12.8719,9.0002 L11.8189,4.3632 L11.7999,4.3632 L10.6749,9.0002 L9.4049,9.0002 L7.6319,2.3382 Z" id="Fill-2" fill="#00D8FF"></path>
                        <polygon id="Fill-4" fill="#00D8FF" points="17.1812 2.3382 18.6492 2.3382 18.6492 4.9222 21.2682 4.9222 21.2682 2.3382 22.7362 2.3382 22.7362 9.0002 21.2682 9.0002 21.2682 6.1552 18.6492 6.1552 18.6492 9.0002 17.1812 9.0002"></polygon>
                        <path d="M28.6617,5.4984 C29.5707,5.4984 29.9127,5.1464 29.9127,4.5084 C29.9127,3.8874 29.5797,3.5354 28.6617,3.5354 L27.6627,3.5354 L27.6627,5.4984 L28.6617,5.4984 Z M26.2037,2.3384 L28.6257,2.3384 C30.0487,2.3384 31.3447,2.7164 31.3447,4.4724 C31.3447,6.2644 29.9397,6.6324 28.6077,6.6324 L27.6627,6.6324 L27.6627,9.0004 L26.2037,9.0004 L26.2037,2.3384 Z" id="Fill-6" fill="#9B9B9B"></path>
                        <polygon id="Fill-8" fill="#9B9B9B" points="32.7379 2.3382 37.2749 2.3382 37.2749 3.5632 34.2059 3.5632 34.2059 4.9942 36.4289 4.9942 36.4289 6.1552 34.2059 6.1552 34.2059 7.8122 37.4369 7.8122 37.4369 9.0002 32.7379 9.0002"></polygon>
                        <path d="M42.1441,6.4525 L41.3781,4.1835 L41.3611,4.1835 L40.5771,6.4525 L42.1441,6.4525 Z M40.7121,2.3105 L42.1081,2.3105 L44.4661,9.0005 L42.9811,9.0005 L42.4861,7.5145 L40.2171,7.5145 L39.7041,9.0005 L38.3531,9.0005 L40.7121,2.3105 Z" id="Fill-10" fill="#9B9B9B"></path>
                        <path d="M45.4371,5.6605 C45.4371,3.3475 46.7781,2.2125 48.4611,2.2125 C50.1451,2.2125 50.8741,3.1125 51.1631,4.3095 L49.7761,4.7155 C49.5601,3.9495 49.2361,3.4285 48.4531,3.4285 C47.4441,3.4285 46.9041,4.2825 46.9041,5.6605 C46.9041,7.0645 47.4621,7.9465 48.4701,7.9465 C49.2531,7.9465 49.6411,7.4515 49.8751,6.5425 L51.2521,6.8485 C50.9281,8.1895 50.1361,9.1265 48.4611,9.1265 C46.7241,9.1265 45.4371,8.0105 45.4371,5.6605" id="Fill-12" fill="#9B9B9B"></path>
                        <polygon id="Fill-14" fill="#9B9B9B" points="52.7623 2.3382 57.3003 2.3382 57.3003 3.5632 54.2303 3.5632 54.2303 4.9942 56.4533 4.9942 56.4533 6.1552 54.2303 6.1552 54.2303 7.8122 57.4623 7.8122 57.4623 9.0002 52.7623 9.0002"></polygon>
                        <path d="M66.2818,5.6693 C66.2818,4.2733 65.6338,3.4283 64.6078,3.4283 C63.5718,3.4283 62.9328,4.2733 62.9328,5.6693 C62.9328,7.0653 63.5718,7.9463 64.6078,7.9463 C65.6338,7.9463 66.2818,7.0653 66.2818,5.6693 M61.4658,5.6693 C61.4658,3.3283 62.9958,2.2123 64.6078,2.2123 C66.2098,2.2123 67.7408,3.3283 67.7408,5.6693 C67.7408,8.0103 66.2098,9.1263 64.6078,9.1263 C62.9958,9.1263 61.4658,8.0103 61.4658,5.6693" id="Fill-16" fill="#9B9B9B"></path>
                        <polygon id="Fill-18" fill="#9B9B9B" points="69.2506 2.3382 73.6526 2.3382 73.6526 3.5632 70.7186 3.5632 70.7186 5.1832 72.8066 5.1832 72.8066 6.3442 70.7186 6.3442 70.7186 9.0002 69.2506 9.0002"></polygon>
                        <path d="M77.8453,2.3382 L79.7813,2.3382 L81.2663,7.2352 L81.2843,7.2352 L82.6713,2.3382 L84.6523,2.3382 L84.6523,9.0002 L83.2383,9.0002 L83.2383,4.4542 L83.2203,4.4542 C83.1213,5.0302 82.9943,5.4532 82.8513,5.9402 L81.8523,9.0002 L80.5553,9.0002 L79.5653,5.9402 C79.4113,5.4352 79.3223,5.1472 79.1783,4.3822 L79.1593,4.3822 L79.1593,9.0002 L77.8453,9.0002 L77.8453,2.3382 Z" id="Fill-20" fill="#9B9B9B"></path>
                        <mask id="mask-2" fill="white">
                            <use xlink:href="#path-1"></use>
                        </mask>
                        <g id="Clip-23"></g>
                        <polygon id="Fill-22" fill="#9B9B9B" mask="url(#mask-2)" points="86.54 9 87.999 9 87.999 2.338 86.54 2.338"></polygon>
                        <polygon id="Fill-24" fill="#9B9B9B" mask="url(#mask-2)" points="89.8873 2.3382 91.3553 2.3382 94.1453 6.5872 94.1633 6.5872 94.1633 2.3382 95.5143 2.3382 95.5143 9.0002 94.1633 9.0002 91.2553 4.7152 91.2383 4.7152 91.2383 9.0002 89.8873 9.0002"></polygon>
                        <path d="M99.4733,7.8118 C100.9223,7.8118 101.4713,7.1638 101.4713,5.6518 C101.4713,4.2288 100.9133,3.5628 99.4543,3.5628 L98.7883,3.5628 L98.7883,7.8118 L99.4733,7.8118 Z M97.3303,2.3378 L99.3743,2.3378 C101.4093,2.3378 102.9393,3.2028 102.9393,5.6328 C102.9393,8.1358 101.3813,8.9998 99.3743,8.9998 L97.3303,8.9998 L97.3303,2.3378 Z" id="Fill-25" fill="#9B9B9B" mask="url(#mask-2)"></path>
                    </g>
                </g>
                <g id="Group-2">
                    <g id="Group">
                        <g id="Group-3" transform="translate(0.000000, 0.163604)">
                            <mask id="mask-4" fill="white">
                                <use xlink:href="#path-3"></use>
                            </mask>
                            <g id="Clip-2"></g>
                            <path d="M0.21302,0.24249505 L0.21302,5.8759604 C0.21142,5.91378218 0.08582,9.24744554 1.68222,12.6676436 C3.74562,17.0761584 7.95082,19.1537822 8.42162,19.3751683 C8.89302,19.1537822 13.10842,17.0737822 15.16082,12.6678416 C16.76882,9.24506931 16.63182,5.91417822 16.63022,5.88091089 L16.63002,0.24249505 L0.21302,0.24249505 Z M8.42142,19.6038812 L8.37882,19.5850693 C8.33222,19.5644752 3.70082,17.4753663 1.49162,12.7549703 C-0.12738,9.2870495 0.00142,5.90526733 0.00302,5.87160396 L0.00282,0.0343762376 L16.84022,0.0343762376 L16.84022,5.8759604 C16.84182,5.90487129 16.98082,9.28685149 15.35162,12.7551683 C13.15282,17.4753663 8.51102,19.5644752 8.46442,19.5852673 L8.42142,19.6038812 Z" id="Fill-1" fill="#00D8FF" mask="url(#mask-4)"></path>
                        </g>
                        <path d="M8.42162,5.15508911 L7.43922,4.1630099 L8.42162,3.1689505 L9.39342,4.1630099 L8.42162,5.15508911 Z M9.40402,6.57786139 L8.42162,7.57192079 L7.44982,6.57786139 L8.42162,5.58360396 L9.40402,6.57786139 Z M9.39342,9.03568317 L8.42162,10.0275644 L7.43922,9.03568317 L8.42162,8.03944554 L9.39342,9.03568317 Z M16.16482,5.44479208 L16.16482,0.91449505 L0.75242,0.91449505 L0.74182,4.74617822 C5.65402,2.47627723 8.25262,5.42518812 8.25262,5.42518812 L7.27022,6.41924752 C4.63982,3.7010297 0.74182,5.33310891 0.74182,5.33310891 L0.77342,7.12756436 C5.84402,4.92221782 8.26322,7.87132673 8.26322,7.87132673 L7.27022,8.87310891 C4.69262,6.05726733 0.80522,7.73825743 0.80522,7.73825743 C1.63962,16.1899406 8.46382,18.9764752 8.46382,18.9764752 C15.47802,15.2780594 16.00622,8.56776238 16.00622,8.56776238 C10.85122,10.663604 8.59062,7.73627723 8.59062,7.73627723 L9.56242,6.74221782 C12.23502,9.51310891 16.05922,7.91231683 16.05922,7.91231683 C16.20702,6.64439604 16.14362,6.03370297 16.14362,6.03370297 C10.90402,8.30558416 8.59062,5.30776238 8.59062,5.30776238 L9.56242,4.31568317 C12.28802,7.0610297 16.16482,5.44479208 16.16482,5.44479208 Z" id="Fill-4" fill="#00D8FF"></path>
                    </g>
                    <path d="M4.01654,11.7810297 C4.01654,11.5580594 3.99534,11.5325149 3.74174,11.5424158 L3.74174,11.4093465 C3.86854,11.4190495 3.97434,11.4249901 4.05874,11.4249901 C4.14334,11.4249901 4.24894,11.4190495 4.38634,11.4150891 L5.11514,12.3095446 L5.61174,12.8748911 L5.67494,12.9513267 L5.67494,11.7810297 C5.67494,11.5580594 5.66454,11.5325149 5.41094,11.5424158 L5.41094,11.4093465 C5.54834,11.4190495 5.67494,11.4249901 5.75954,11.4249901 C5.85454,11.4249901 5.97074,11.4190495 6.12914,11.4093465 L6.12914,11.5424158 C5.87574,11.5325149 5.86514,11.5580594 5.86514,11.7810297 L5.86514,13.2449901 L5.86514,13.4776634 L5.86514,13.554099 L5.85454,13.5697426 L5.59054,13.5285545 L4.19614,11.894495 L4.19614,13.1645941 C4.19614,13.3875644 4.20674,13.4111287 4.46014,13.4032079 L4.46014,13.5364752 C4.31234,13.5265743 4.19614,13.5208317 4.10094,13.5208317 C4.01654,13.5208317 3.88974,13.5265743 3.74174,13.5364752 L3.74174,13.4032079 C3.99534,13.4111287 4.01654,13.3875644 4.01654,13.1645941" id="Fill-6" fill="#FEFEFE"></path>
                    <path d="M9.28782,12.0080594 L9.34062,11.7595446 C9.38282,11.5795446 9.31942,11.5423168 9.11882,11.5423168 L9.11882,11.4094455 C9.26662,11.4189505 9.37222,11.4250891 9.45682,11.4250891 C9.54142,11.4250891 9.65762,11.4189505 9.79482,11.4094455 L9.79482,11.5423168 C9.69982,11.5423168 9.61522,11.5795446 9.56242,11.7518218 C9.44622,12.123505 9.13982,13.2858812 9.07642,13.5286535 L8.84402,13.5286535 C8.80182,13.3722178 8.49562,12.6264752 8.26302,12.0452871 C7.99902,12.6793465 7.72442,13.2781584 7.63982,13.5286535 L7.41802,13.5286535 L6.98482,11.6696436 C6.95322,11.554198 6.83702,11.544297 6.76302,11.5423168 L6.76302,11.4094455 C6.96382,11.4189505 7.11162,11.4250891 7.21722,11.4250891 C7.33362,11.4250891 7.48142,11.4189505 7.67142,11.4094455 L7.67142,11.5423168 C7.47082,11.5423168 7.42862,11.5795446 7.47082,11.7674653 L7.72442,12.8886535 C7.92502,12.3898416 8.12582,11.8945941 8.33702,11.3995446 L8.48502,11.3995446 C8.52722,11.5423168 8.58002,11.6773663 8.63282,11.8104356 L9.06602,12.8613267" id="Fill-8" fill="#FEFEFE"></path>
                    <path d="M11.897,13.4054059 C12.1506,13.4111485 12.161,13.3875842 12.161,13.1646139 L12.161,12.5030297 C11.9498,12.4992673 11.7914,12.4935248 11.6646,12.4935248 C11.5272,12.4935248 11.3688,12.4992673 11.1576,12.5030297 L11.1576,13.1646139 C11.1576,13.3875842 11.168,13.4111485 11.4216,13.4032277 L11.4216,13.536495 C11.2104,13.5265941 11.0626,13.5208515 10.9358,13.5208515 C10.809,13.5208515 10.6506,13.5265941 10.4498,13.536495 L10.4498,13.4054059 C10.7034,13.4111485 10.7138,13.3875842 10.7138,13.1646139 L10.7138,11.7810495 C10.7138,11.5580792 10.7034,11.5325347 10.4498,11.5384752 L10.4498,11.4093663 C10.6506,11.4190693 10.809,11.4250099 10.9358,11.4250099 C11.0626,11.4250099 11.2104,11.4190693 11.4216,11.4093663 L11.4216,11.5424356 C11.168,11.5325347 11.1576,11.5580792 11.1576,11.7810495 L11.1576,12.3095644 C11.3688,12.3115446 11.5272,12.3172871 11.6646,12.3172871 C11.7914,12.3172871 11.9498,12.3115446 12.161,12.3095644 L12.161,11.7810495 C12.161,11.5580792 12.1506,11.5325347 11.897,11.5384752 L11.897,11.4093663 C12.1084,11.4190693 12.2668,11.4250099 12.383,11.4250099 C12.5096,11.4250099 12.6682,11.4190693 12.8688,11.4093663 L12.8688,11.5424356 C12.6154,11.5325347 12.6048,11.5580792 12.6048,11.7810495 L12.6048,13.1646139 C12.6048,13.3875842 12.6154,13.4111485 12.8688,13.4032277 L12.8688,13.536495 C12.6682,13.5265941 12.5096,13.5208515 12.383,13.5208515 C12.2668,13.5208515 12.1084,13.5265941 11.897,13.536495" id="Fill-10" fill="#FEFEFE"></path>
                </g>
            </g>
        </g>
    </g>
</svg>