<?xml version="1.0" encoding="UTF-8"?>
<svg width="154px" height="25px" viewBox="0 0 154 25" version="1.1" xmlns="http://www.w3.org/2000/svg" xmlns:xlink="http://www.w3.org/1999/xlink">
    <!-- Generator: Sketch 51.2 (57519) - http://www.bohemiancoding.com/sketch -->
    <title>Group 4</title>
    <desc>Created with Sketch.</desc>
    <defs>
        <polygon id="path-1" points="0 12.1969697 132.825 12.1969697 132.825 0 0 0"></polygon>
        <polygon id="path-3" points="1.51799352e-05 0.0420252025 20.5443112 0.0420252025 20.5443112 23.9107945 1.51799352e-05 23.9107945"></polygon>
    </defs>
    <g id="Page-1" stroke="none" stroke-width="1" fill="none" fill-rule="evenodd">
        <g id="iPad-Copy-2" transform="translate(-24.000000, -28.000000)">
            <g id="Group-4" transform="translate(24.000000, 28.000000)">
                <g id="Group" transform="translate(28.053030, 4.878788)">
                    <polygon id="Fill-1" fill="#00D8FF" points="6.05067273 2.85201742 6.05067273 8.03450985 6.02871818 8.03450985 2.62454394 2.85201742 0.834028788 2.85201742 0.834028788 10.9776386 2.48183939 10.9776386 2.48183939 5.75123712 2.50379394 5.75123712 6.05067273 10.9776386 7.69726364 10.9776386 7.69726364 2.85201742"></polygon>
                    <g id="Group-26">
                        <path d="M9.3086053,2.85189545 L11.1100977,2.85189545 L11.966325,6.55245606 C12.1200068,7.14644848 12.2517341,7.64042576 12.3615068,8.33077424 L12.3834614,8.33077424 C12.4822568,7.66116061 12.6139841,7.14644848 12.7566886,6.56343333 L13.5799841,2.85189545 L15.226575,2.85189545 L16.1059765,6.58538788 C16.2596583,7.23304697 16.3791886,7.60627424 16.4889614,8.33077424 L16.5121356,8.33077424 C16.6219083,7.59651667 16.7207038,7.26597879 16.8743856,6.60734242 L17.6964614,2.85189545 L19.344272,2.85189545 L17.2256583,10.9775167 L15.6998174,10.9775167 L14.4154765,5.32178182 L14.3923023,5.32178182 L13.0201432,10.9775167 L11.471128,10.9775167 L9.3086053,2.85189545 Z" id="Fill-2" fill="#00D8FF"></path>
                        <polygon id="Fill-4" fill="#00D8FF" points="20.9558576 2.85189545 22.7463727 2.85189545 22.7463727 6.00359242 25.9407591 6.00359242 25.9407591 2.85189545 27.7312742 2.85189545 27.7312742 10.9775167 25.9407591 10.9775167 25.9407591 7.50747879 22.7463727 7.50747879 22.7463727 10.9775167 20.9558576 10.9775167"></polygon>
                        <path d="M34.9585886,6.70638182 C36.0672932,6.70638182 36.4844295,6.27704848 36.4844295,5.49888182 C36.4844295,4.74145 36.0782705,4.31211667 34.9585886,4.31211667 L33.7401114,4.31211667 L33.7401114,6.70638182 L34.9585886,6.70638182 Z M31.9605735,2.85213939 L34.9146795,2.85213939 C36.6503083,2.85213939 38.2310356,3.31318485 38.2310356,5.45497273 C38.2310356,7.6406697 36.5173614,8.08951818 34.892725,8.08951818 L33.7401114,8.08951818 L33.7401114,10.9777606 L31.9605735,10.9777606 L31.9605735,2.85213939 Z" id="Fill-6" fill="#9B9B9B"></path>
                        <polygon id="Fill-8" fill="#9B9B9B" points="39.9303174 2.85189545 45.4640826 2.85189545 45.4640826 4.34602424 41.7208326 4.34602424 41.7208326 6.09141061 44.4322189 6.09141061 44.4322189 7.50747879 41.7208326 7.50747879 41.7208326 9.52851667 45.6616735 9.52851667 45.6616735 10.9775167 39.9303174 10.9775167"></polygon>
                        <path d="M51.4030311,7.8700947 L50.4687432,5.10260227 L50.4480083,5.10260227 L49.4917659,7.8700947 L51.4030311,7.8700947 Z M49.656425,2.81810985 L51.359122,2.81810985 L54.2351674,10.9778826 L52.4239174,10.9778826 L51.8201674,9.16541288 L49.052675,9.16541288 L48.4269705,10.9778826 L46.7791598,10.9778826 L49.656425,2.81810985 Z" id="Fill-10" fill="#9B9B9B"></path>
                        <path d="M55.4194932,6.9040947 C55.4194932,4.08293561 57.0551068,2.69857955 59.1078568,2.69857955 C61.1618265,2.69857955 62.0509856,3.79630682 62.403478,5.25628409 L60.7117583,5.75148106 C60.4483038,4.81719318 60.053122,4.18173106 59.0980992,4.18173106 C57.867425,4.18173106 57.2087886,5.22335227 57.2087886,6.9040947 C57.2087886,8.61654924 57.8893795,9.69232197 59.1188341,9.69232197 C60.0738568,9.69232197 60.5470992,9.08857197 60.8325083,7.97986742 L62.5120311,8.3530947 C62.1168492,9.98870833 61.1508492,11.1315644 59.1078568,11.1315644 C56.9892432,11.1315644 55.4194932,9.77038258 55.4194932,6.9040947" id="Fill-12" fill="#9B9B9B"></path>
                        <polygon id="Fill-14" fill="#9B9B9B" points="64.3540174 2.85189545 69.8890023 2.85189545 69.8890023 4.34602424 66.1445326 4.34602424 66.1445326 6.09141061 68.8559189 6.09141061 68.8559189 7.50747879 66.1445326 7.50747879 66.1445326 9.52851667 70.0865932 9.52851667 70.0865932 10.9775167 64.3540174 10.9775167"></polygon>
                        <path d="M80.8437106,6.91482803 C80.8437106,5.21213106 80.053347,4.18148712 78.8019379,4.18148712 C77.5383318,4.18148712 76.7589455,5.21213106 76.7589455,6.91482803 C76.7589455,8.617525 77.5383318,9.69207803 78.8019379,9.69207803 C80.053347,9.69207803 80.8437106,8.617525 80.8437106,6.91482803 M74.96965,6.91482803 C74.96965,4.05951742 76.8357864,2.69833561 78.8019379,2.69833561 C80.7558924,2.69833561 82.6232485,4.05951742 82.6232485,6.91482803 C82.6232485,9.77013864 80.7558924,11.1313205 78.8019379,11.1313205 C76.8357864,11.1313205 74.96965,9.77013864 74.96965,6.91482803" id="Fill-16" fill="#9B9B9B"></path>
                        <polygon id="Fill-18" fill="#9B9B9B" points="84.464747 2.85189545 89.833853 2.85189545 89.833853 4.34602424 86.2552621 4.34602424 86.2552621 6.32193333 88.8019894 6.32193333 88.8019894 7.73800152 86.2552621 7.73800152 86.2552621 10.9775167 84.464747 10.9775167"></polygon>
                        <path d="M94.9476765,2.85189545 L97.3090098,2.85189545 L99.1202598,8.82475152 L99.1422144,8.82475152 L100.833934,2.85189545 L103.250154,2.85189545 L103.250154,10.9775167 L101.525502,10.9775167 L101.525502,5.43277424 L101.503548,5.43277424 C101.382798,6.1353197 101.227896,6.65125152 101.05348,7.24524394 L99.8350023,10.9775167 L98.2530553,10.9775167 L97.0455553,7.24524394 C96.857722,6.62929697 96.7491689,6.27802424 96.5735326,5.34495606 L96.5503583,5.34495606 L96.5503583,10.9775167 L94.9476765,10.9775167 L94.9476765,2.85189545 Z" id="Fill-20" fill="#9B9B9B"></path>
                        <mask id="mask-2" fill="white">
                            <use xlink:href="#path-1"></use>
                        </mask>
                        <g id="Clip-23"></g>
                        <polygon id="Fill-22" fill="#9B9B9B" mask="url(#mask-2)" points="105.552576 10.9772727 107.332114 10.9772727 107.332114 2.85165152 105.552576 2.85165152"></polygon>
                        <polygon id="Fill-24" fill="#9B9B9B" mask="url(#mask-2)" points="109.635267 2.85189545 111.425783 2.85189545 114.828737 8.03438788 114.850692 8.03438788 114.850692 2.85189545 116.498502 2.85189545 116.498502 10.9775167 114.850692 10.9775167 111.303813 5.75111515 111.283078 5.75111515 111.283078 10.9775167 109.635267 10.9775167"></polygon>
                        <path d="M121.327283,9.52802879 C123.094623,9.52802879 123.764237,8.73766515 123.764237,6.89348333 C123.764237,5.15785455 123.083646,4.34553636 121.304108,4.34553636 L120.49179,4.34553636 L120.49179,9.52802879 L121.327283,9.52802879 Z M118.713472,2.85140758 L121.206533,2.85140758 C123.688616,2.85140758 125.554752,3.90644545 125.554752,6.87030909 C125.554752,9.92321061 123.654464,10.9770288 121.206533,10.9770288 L118.713472,10.9770288 L118.713472,2.85140758 Z" id="Fill-25" fill="#9B9B9B" mask="url(#mask-2)"></path>
                    </g>
                </g>
                <g id="Group-2">
                    <g id="Group">
                        <g id="Group-3" transform="translate(0.000000, 0.199547)">
                            <mask id="mask-4" fill="white">
                                <use xlink:href="#path-3"></use>
                            </mask>
                            <g id="Clip-2"></g>
                            <path d="M0.259819848,0.295770477 L0.259819848,7.16689109 C0.257868333,7.2130222 0.104674394,11.2790813 2.05179864,15.4506865 C4.56852136,20.8277387 9.69759106,23.3618101 10.2718244,23.6318341 C10.8467895,23.3618101 15.9883002,20.8248404 18.4916062,15.450928 C20.4528789,11.276183 20.2857805,7.21350525 20.2838289,7.17292919 L20.283585,0.295770477 L0.259819848,0.295770477 Z M10.2715805,23.9107945 L10.2196214,23.8878497 C10.1627835,23.8627312 4.51387894,21.3146514 1.81932439,15.5571986 C-0.155365,11.3273861 0.0017319697,7.20263666 0.00368348485,7.16157756 L0.00343954545,0.0419285929 L20.5399653,0.0419285929 L20.5399653,7.16689109 C20.5419168,7.20215362 20.7114547,11.3271446 18.7243244,15.5574401 C16.0424547,21.3146514 10.3808653,23.8627312 10.3240274,23.8880912 L10.2715805,23.9107945 Z" id="Fill-1" fill="#00D8FF" mask="url(#mask-4)"></path>
                        </g>
                        <path d="M10.2718244,6.28764656 L9.07359409,5.07761056 L10.2718244,3.86515932 L11.4571259,5.07761056 L10.2718244,6.28764656 Z M11.4700547,8.0229976 L10.2718244,9.23544884 L9.08652288,8.0229976 L10.2718244,6.81030483 L11.4700547,8.0229976 Z M11.4571259,11.0207954 L10.2718244,12.2305899 L9.07359409,11.0207954 L10.2718244,9.80568737 L11.4571259,11.0207954 Z M19.716182,6.6409964 L19.716182,1.11540684 L0.917724394,1.11540684 L0.904795606,5.78889919 C6.89619106,3.02030783 10.0656956,6.61708551 10.0656956,6.61708551 L8.8674653,7.82953675 C5.65917439,4.51413471 0.904795606,6.50477678 0.904795606,6.50477678 L0.94333803,8.69346865 C7.12793348,6.00361416 10.0786244,9.60063336 10.0786244,9.60063336 L8.8674653,10.8225041 C5.72357439,7.3880306 0.982124394,9.43832913 0.982124394,9.43832913 C1.99983955,19.7468215 10.3232956,23.1455494 10.3232956,23.1455494 C18.8784941,18.6346028 19.522738,10.4500738 19.522738,10.4500738 C13.2352002,13.0063654 10.4779532,9.43591389 10.4779532,9.43591389 L11.6632547,8.22346265 C14.9230168,11.6031101 19.587382,9.65062886 19.587382,9.65062886 C19.7676532,8.10414971 19.6903244,7.35928923 19.6903244,7.35928923 C13.2996002,10.1302958 10.4779532,6.47386169 10.4779532,6.47386169 L11.6632547,5.26382568 C14.9876608,8.61231653 19.716182,6.6409964 19.716182,6.6409964 Z" id="Fill-4" fill="#00D8FF"></path>
                    </g>
                    <path d="M4.89896167,14.3692862 C4.89896167,14.09733 4.87310409,14.0661734 4.56378894,14.0782496 L4.56378894,13.9159454 C4.71844652,13.9277801 4.84749045,13.9350258 4.95043288,13.9350258 C5.05361924,13.9350258 5.18241924,13.9277801 5.35000561,13.9229496 L6.23892076,15.0139142 L6.84462227,15.7034656 L6.92170712,15.796694 L6.92170712,14.3692862 C6.92170712,14.09733 6.90902227,14.0661734 6.59970712,14.0782496 L6.59970712,13.9159454 C6.76729348,13.9277801 6.92170712,13.9350258 7.02489348,13.9350258 C7.1407647,13.9350258 7.28249348,13.9277801 7.47569348,13.9159454 L7.47569348,14.0782496 C7.16662227,14.0661734 7.15369348,14.09733 7.15369348,14.3692862 L7.15369348,16.1548743 L7.15369348,16.4386652 L7.15369348,16.5318935 L7.1407647,16.5509739 L6.8187647,16.5007369 L5.11801924,14.5076796 L5.11801924,16.0568155 C5.11801924,16.3287717 5.13094803,16.3575131 5.44001924,16.3478521 L5.44001924,16.5103978 C5.25974803,16.4983216 5.11801924,16.4913174 5.00190409,16.4913174 C4.89896167,16.4913174 4.74430409,16.4983216 4.56378894,16.5103978 L4.56378894,16.3478521 C4.87310409,16.3575131 4.89896167,16.3287717 4.89896167,16.0568155" id="Fill-6" fill="#FEFEFE"></path>
                    <path d="M11.3283259,14.6461937 L11.3927259,14.3430809 C11.4441971,14.1235354 11.3668683,14.0781289 11.1221971,14.0781289 L11.1221971,13.9160662 C11.3024683,13.9276593 11.4312683,13.9351466 11.5344547,13.9351466 C11.6376411,13.9351466 11.7793698,13.9276593 11.9467123,13.9160662 L11.9467123,14.0781289 C11.8308411,14.0781289 11.7276547,14.1235354 11.6632547,14.3336614 C11.5215259,14.7870023 11.1478108,16.204749 11.070482,16.5008576 L10.7870244,16.5008576 C10.7355532,16.3100536 10.362082,15.4004736 10.0783805,14.6916002 C9.75638045,15.4649605 9.42145167,16.1953296 9.3182653,16.5008576 L9.04773652,16.5008576 L8.51936379,14.2334289 C8.48082136,14.0926203 8.33909258,14.0805441 8.248835,14.0781289 L8.248835,13.9160662 C8.49375015,13.9276593 8.67402136,13.9351466 8.80282136,13.9351466 C8.94479409,13.9351466 9.1250653,13.9276593 9.35680773,13.9160662 L9.35680773,14.0781289 C9.11213652,14.0781289 9.0606653,14.1235354 9.11213652,14.3527418 L9.42145167,15.7202516 C9.66612288,15.1118522 9.91103803,14.5078003 10.168638,13.9039899 L10.3491532,13.9039899 C10.4006244,14.0781289 10.4650244,14.2428483 10.5294244,14.4051526 L11.0577971,15.6869212" id="Fill-8" fill="#FEFEFE"></path>
                    <path d="M14.5107348,16.350533 C14.82005,16.3575372 14.8327348,16.3287958 14.8327348,16.0568396 L14.8327348,15.2499074 C14.5751348,15.2453185 14.3819348,15.2383143 14.2272773,15.2383143 C14.0596909,15.2383143 13.8664909,15.2453185 13.6088909,15.2499074 L13.6088909,16.0568396 C13.6088909,16.3287958 13.6215758,16.3575372 13.9308909,16.3478762 L13.9308909,16.510422 C13.6732909,16.4983458 13.4930197,16.4913416 13.3383621,16.4913416 C13.1837045,16.4913416 12.9905045,16.4983458 12.7455894,16.510422 L12.7455894,16.350533 C13.0549045,16.3575372 13.0675894,16.3287958 13.0675894,16.0568396 L13.0675894,14.3693104 C13.0675894,14.0973542 13.0549045,14.0661976 12.7455894,14.0734433 L12.7455894,13.9159695 C12.9905045,13.9278042 13.1837045,13.93505 13.3383621,13.93505 C13.4930197,13.93505 13.6732909,13.9278042 13.9308909,13.9159695 L13.9308909,14.0782738 C13.6215758,14.0661976 13.6088909,14.0973542 13.6088909,14.3693104 L13.6088909,15.0139383 C13.8664909,15.0163536 14.0596909,15.0233578 14.2272773,15.0233578 C14.3819348,15.0233578 14.5751348,15.0163536 14.8327348,15.0139383 L14.8327348,14.3693104 C14.8327348,14.0973542 14.82005,14.0661976 14.5107348,14.0734433 L14.5107348,13.9159695 C14.7685788,13.9278042 14.9617788,13.93505 15.1035076,13.93505 C15.2579212,13.93505 15.4513652,13.9278042 15.6960364,13.9159695 L15.6960364,14.0782738 C15.3869652,14.0661976 15.3740364,14.0973542 15.3740364,14.3693104 L15.3740364,16.0568396 C15.3740364,16.3287958 15.3869652,16.3575372 15.6960364,16.3478762 L15.6960364,16.510422 C15.4513652,16.4983458 15.2579212,16.4913416 15.1035076,16.4913416 C14.9617788,16.4913416 14.7685788,16.4983458 14.5107348,16.510422" id="Fill-10" fill="#FEFEFE"></path>
                </g>
            </g>
        </g>
    </g>
</svg>