<?xml version="1.0" encoding="UTF-8"?>
<svg width="38px" height="38px" viewBox="0 0 38 38" version="1.1" xmlns="http://www.w3.org/2000/svg" xmlns:xlink="http://www.w3.org/1999/xlink">
    <!-- Generator: Sketch 51.2 (57519) - http://www.bohemiancoding.com/sketch -->
    <title>Group</title>
    <desc>Created with Sketch.</desc>
    <defs></defs>
    <g id="Symbols" stroke="none" stroke-width="1" fill="none" fill-rule="evenodd">
        <g id="Footer" transform="translate(-169.000000, -14.000000)">
            <g id="Group-2">
                <g id="Group" transform="translate(169.000000, 14.000000)">
                    <circle id="Oval" fill="#FFFFFF" cx="19" cy="19" r="19"></circle>
                    <path d="M27.1275915,13.0451561 C26.2688706,11.8439552 25.1306332,10.7342674 24.7437765,10.721297 C22.5364604,10.791193 19.4560154,12.6870296 16.0730009,16.0593275 C13.6812615,18.4444355 10.8111743,21.8815853 10.719683,24.7163331 C10.7441767,25.1378703 12.0171296,26.3729384 13.0566717,27.113691 C13.2101177,27.2210568 13.3758105,27.2794235 13.5328584,27.2794235 C13.6971104,27.2794235 13.8181382,27.2138511 13.8613624,27.1526021 C14.0673977,26.860048 16.0549908,23.8761409 16.2610262,23.5396317 C16.2869607,23.4971177 16.3013688,23.4293835 16.3013688,23.3472378 C16.3013688,23.1872698 16.2466181,22.9948759 16.1472024,22.8060849 C16.019691,22.5639712 15.6061795,21.8354684 15.2611062,21.2345076 L15.0320179,20.8360288 L15.2978468,20.4606085 C15.5975346,20.036189 16.3121748,19.1138511 17.728488,17.7022418 C19.1484031,16.286309 20.0712399,15.5765412 20.4948371,15.2811049 L20.8680061,15.0195356 L21.2635076,15.2443555 C21.6503642,15.4641313 22.5559113,15.9786229 22.8397503,16.1270616 C23.0342592,16.2293835 23.2273273,16.2855885 23.3850957,16.2855885 C23.4650604,16.2855885 23.5334988,16.2711769 23.5760026,16.2430745 C23.9362043,16.0168135 26.9193949,14.028743 27.1650524,13.8529223 C27.2212439,13.8111289 27.2795966,13.6915132 27.2795966,13.5192954 C27.2795966,13.3542834 27.2255663,13.1856685 27.1275915,13.0451561 M27.585768,14.4365893 C27.3004883,14.641233 24.3086528,16.6329063 23.9621388,16.8519616 C23.800048,16.9542834 23.6019371,17.0061649 23.3850957,17.0061649 C23.1127832,17.0061649 22.8094933,16.9254604 22.5054831,16.7654924 C22.2166013,16.6141713 21.3377091,16.1155324 20.9076283,15.8705364 C20.5265349,16.1378703 19.6296326,16.8238591 18.2370928,18.2131305 C16.8337469,19.6110488 16.1529657,20.4995196 15.8864164,20.8763811 C16.132074,21.3058447 16.6327543,22.1820657 16.7854799,22.4710168 C16.941087,22.7686149 17.0217722,23.0726982 17.0217722,23.3472378 C17.0217722,23.5605284 16.9735052,23.7558046 16.8755303,23.9164932 C16.6493236,24.2847078 14.6451613,27.2916733 14.4506524,27.566213 C14.2662291,27.8285028 13.9254783,28 13.5328584,28 C13.2490195,28 12.9385256,27.9099279 12.640999,27.7024019 C12.614344,27.6851081 10,25.7943155 10,24.7184948 L10,24.6932746 C10.0979749,21.6214572 13.080445,18.0257806 15.5643961,15.5484388 C18.0490675,13.0718175 21.6546866,10.0979984 24.7221644,10.0014412 C24.7300888,10.0014412 24.7380133,10 24.7444969,10 C25.8402305,10 27.7003122,12.6070456 27.7183223,12.633707 C27.9092292,12.9068054 28,13.2216974 28,13.5192954 C28,13.8961569 27.8544785,14.2427542 27.585768,14.4365893" id="Fill-1" stroke="#FF716E" fill="#FF716E"></path>
                </g>
            </g>
        </g>
    </g>
</svg>