<?xml version="1.0" encoding="UTF-8"?>
<svg width="67px" height="67px" viewBox="0 0 67 67" version="1.1" xmlns="http://www.w3.org/2000/svg" xmlns:xlink="http://www.w3.org/1999/xlink">
    <!-- Generator: Sketch 51.2 (57519) - http://www.bohemiancoding.com/sketch -->
    <title>Group 14</title>
    <desc>Created with Sketch.</desc>
    <defs></defs>
    <g id="Page-1" stroke="none" stroke-width="1" fill="none" fill-rule="evenodd">
        <g id="1_Homepage" transform="translate(-43.000000, -738.000000)">
            <g id="Group-16" transform="translate(43.000000, 738.000000)">
                <g id="Group-14">
                    <circle id="Oval-3-Copy-4" stroke="#2D297C" stroke-width="1.6" fill="#FFFFFF" cx="33.5" cy="33.5" r="32.7"></circle>
                    <path d="M28.3154762,40.6800729 L41.077381,40.6800729 C41.2975238,40.6800729 41.4761905,40.8579524 41.4761905,41.0789059 C41.4761905,41.298264 41.2975238,41.4769412 41.077381,41.4769412 L28.3154762,41.4769412 C28.0953333,41.4769412 27.9166667,41.298264 27.9166667,41.0789059 C27.9166667,40.8579524 28.0953333,40.6800729 28.3154762,40.6800729 M25.7232143,31.106486 L24.5267857,31.106486 C24.1957738,31.106486 23.9285714,30.8384702 23.9285714,30.5090341 L23.9285714,29.3117375 C23.9285714,28.9815038 24.1957738,28.7142857 24.5267857,28.7142857 L25.7232143,28.7142857 C26.0534286,28.7142857 26.3214286,28.9815038 26.3214286,29.3117375 L26.3214286,30.5090341 C26.3214286,30.8384702 26.0534286,31.106486 25.7232143,31.106486 M25.7232143,36.6901477 L24.5267857,36.6901477 C24.1957738,36.6901477 23.9285714,36.422132 23.9285714,36.0918983 L23.9285714,34.8953993 C23.9285714,34.5651656 24.1957738,34.2963522 24.5267857,34.2963522 L25.7232143,34.2963522 C26.0534286,34.2963522 26.3214286,34.5651656 26.3214286,34.8953993 L26.3214286,36.0918983 C26.3214286,36.422132 26.0534286,36.6901477 25.7232143,36.6901477 M25.7232143,42.2738095 L24.5267857,42.2738095 C24.1957738,42.2738095 23.9285714,42.0057938 23.9285714,41.67556 L23.9285714,40.4790611 C23.9285714,40.1488274 24.1957738,39.880014 24.5267857,39.880014 L25.7232143,39.880014 C26.0534286,39.880014 26.3214286,40.1488274 26.3214286,40.4790611 L26.3214286,41.67556 C26.3214286,42.0057938 26.0534286,42.2738095 25.7232143,42.2738095 M41.077381,30.3096177 L28.3154762,30.3096177 C28.0953333,30.3096177 27.9166667,30.1309405 27.9166667,29.9115823 C27.9166667,29.6906289 28.0953333,29.5127493 28.3154762,29.5127493 L41.077381,29.5127493 C41.2975238,29.5127493 41.4761905,29.6906289 41.4761905,29.9115823 C41.4761905,30.1309405 41.2975238,30.3096177 41.077381,30.3096177 M41.077381,35.8932794 L28.3154762,35.8932794 C28.0953333,35.8932794 27.9166667,35.7146023 27.9166667,35.4944465 C27.9166667,35.2750883 28.0953333,35.0964111 28.3154762,35.0964111 L41.077381,35.0964111 C41.2975238,35.0964111 41.4761905,35.2750883 41.4761905,35.4944465 C41.4761905,35.7146023 41.2975238,35.8932794 41.077381,35.8932794" id="Fill-1" fill="#2D297C"></path>
                </g>
            </g>
        </g>
    </g>
</svg>