<?xml version="1.0" encoding="UTF-8"?>
<svg width="100px" height="100px" viewBox="0 0 100 100" version="1.1" xmlns="http://www.w3.org/2000/svg" xmlns:xlink="http://www.w3.org/1999/xlink">
    <!-- Generator: Sketch 51.2 (57519) - http://www.bohemiancoding.com/sketch -->
    <title>yourteam_circle_icon</title>
    <desc>Created with Sketch.</desc>
    <defs>
        <polygon id="path-1" points="0 0.181659473 30.8766215 0.181659473 30.8766215 44.81441 0 44.81441"></polygon>
    </defs>
    <g id="Page-1" stroke="none" stroke-width="1" fill="none" fill-rule="evenodd">
        <g id="yourteam_circle_icon" transform="translate(1.000000, 1.000000)">
            <circle id="Oval-3" stroke="#50E3C2" stroke-width="1.6" fill="#FFFFFF" fill-rule="nonzero" cx="49" cy="49" r="49"></circle>
            <g id="Group" transform="translate(17.000000, 24.000000)">
                <g id="Group-3" transform="translate(0.000000, 2.392857)">
                    <g id="Fill-1-Clipped">
                        <mask id="mask-2" fill="white">
                            <use xlink:href="#path-1"></use>
                        </mask>
                        <g id="path-1"></g>
                        <path d="M16.4965812,28.8090047 C16.5250409,28.8175704 16.5607811,28.820865 16.5971831,28.820865 C16.6600592,28.820865 16.7282301,28.8103226 16.7765454,28.7964855 C19.142012,28.1250638 20.7529649,27.0965166 21.850319,26.0501792 L21.8853972,27.1801973 C21.850319,27.236204 21.8245067,27.2987997 21.8192118,27.3693024 L21.8079603,27.5445705 C21.4856375,32.4481244 20.7503175,34.5177377 20.190389,35.389466 C19.0804596,37.1171088 17.4787727,38.4144882 16.615053,38.977191 C15.7519953,38.4144882 14.1496465,37.1171088 13.040379,35.389466 C12.4804505,34.5177377 11.7451305,32.4481244 11.4228076,27.5452293 L11.4108942,27.3693024 C11.4049375,27.2783738 11.3645644,27.2006232 11.3116161,27.134733 L12.0125196,26.8395446 C12.0767195,26.8125296 12.1263585,26.769042 12.1687172,26.7196244 C13.2190796,27.5248034 14.6195629,28.2752936 16.4965812,28.8090047 M10.5928426,23.6873541 C9.81317843,22.32672 9.35980836,20.3302449 9.17846034,19.0539504 C10.2248517,18.7943427 13.1284056,18.1631139 16.6057871,18.1631139 C20.1030242,18.1631139 23.0198153,18.8015907 24.0516458,19.0585627 C23.8702977,20.335516 23.4162659,22.3280379 22.6379255,23.6873541 C21.8483334,25.0631428 20.1718571,26.910706 16.615053,27.9511134 C13.072148,26.9258608 11.3850819,25.0684141 10.5928426,23.6873541 M11.7676336,10.2365145 C13.3468175,9.05444311 14.006686,7.3854426 14.3415842,6.39247625 C14.4627035,6.46166103 14.5937506,6.53545812 14.7413441,6.61782096 C15.9690834,7.30703318 18.2551275,8.58991672 18.9216146,9.65140896 C19.3577765,10.3458924 19.6986314,11.100336 19.9342514,11.892337 C19.9898471,12.0781476 20.1612674,12.1993857 20.3465865,12.1993857 C20.3869596,12.1993857 20.4279945,12.1934555 20.4690296,12.1815953 C20.6967074,12.1143872 20.8264307,11.8765233 20.7589217,11.6492019 C20.5014603,10.7834038 20.1288365,9.95845761 19.6509779,9.1967661 C19.2664406,8.5846455 18.5092796,7.95868794 17.6746815,7.38807821 C17.9837673,7.43815482 18.2882202,7.4829602 18.5820834,7.52381217 C19.6476686,7.67404197 20.5676457,7.8031869 21.2612688,8.22620244 L21.4095242,8.31449539 C22.3003799,8.84688877 24.1542332,9.95450419 24.1542332,12.3568634 L24.1542332,18.0247443 C24.1522476,18.0398991 24.1443053,18.0543949 24.1443053,18.0702087 C24.1443053,18.1071072 24.1416579,18.1525714 24.1396724,18.1967179 C22.9781184,17.9107542 20.1076572,17.3058814 16.6057871,17.3058814 C13.1231108,17.3058814 10.2645629,17.9041651 9.0910956,18.1914468 C9.08911004,18.149277 9.08646261,18.1057894 9.08646261,18.0702087 C9.08580077,18.0517593 9.07852037,18.0359457 9.0765348,18.0181554 L9.0765348,11.3250218 C9.10168526,11.3190917 9.12154088,11.3131615 9.14735319,11.3072314 C9.87473085,11.1385523 10.8708213,10.9066186 11.7676336,10.2365145 M0.430072797,44.81441 C0.667678419,44.81441 0.860277963,44.6226693 0.860277963,44.3861232 L0.860277963,34.7905233 C0.860277963,32.8105208 2.04433496,31.0334603 3.87634712,30.2632029 L5.083569,29.7558479 C5.08621641,29.7545301 5.08886384,29.7532122 5.09151125,29.7518945 L10.554455,27.4523241 L10.5643828,27.6012362 C10.8324337,31.6831383 11.4214839,34.4590953 12.3156488,35.8513568 C13.6148684,37.8741879 15.5521154,39.3514478 16.3953176,39.8502371 C16.4634885,39.8897712 16.5389399,39.9108561 16.615053,39.9108561 C16.6911663,39.9108561 16.7672795,39.8897712 16.8347886,39.8502371 C17.6779908,39.3514478 19.6158996,37.8741879 20.9151192,35.8513568 C21.3770933,35.1324939 21.7556739,34.0373976 22.0521845,32.5904472 L22.1554338,35.9396496 C22.1560956,35.9653469 22.1673471,35.9877495 22.172642,36.012129 C22.1779368,36.0384851 22.1799224,36.0648411 22.1905121,36.0892206 C22.2017636,36.1162356 22.2189717,36.1379793 22.2355181,36.1623588 C22.2494171,36.1827848 22.2606686,36.2058464 22.2792005,36.2242956 C22.3003799,36.2453805 22.3261922,36.2605353 22.3513425,36.2770079 C22.3711982,36.2901858 22.3890683,36.3066585 22.4115713,36.316542 C22.4413547,36.3297201 22.4744474,36.3336735 22.5068783,36.3402624 C22.5273957,36.344216 22.5459276,36.3540995 22.567107,36.3547584 L26.2681952,36.5115771 C26.2741518,36.5115771 26.2807704,36.5122361 26.2867271,36.5122361 C26.5157286,36.5122361 26.7063426,36.3323556 26.7162704,36.1017398 C26.7261983,35.8658526 26.5422027,35.666205 26.3045972,35.6563215 L23.0039307,35.5159752 L22.6835933,25.1395757 C22.9668669,24.7831092 23.1991776,24.4352087 23.3851587,24.1116875 C24.2687339,22.5691962 24.7532111,20.3460585 24.9279407,18.9874013 C24.9511055,18.9518205 24.9749322,18.9155808 24.9875075,18.873411 C25.0146435,18.7811646 25.0020683,18.6908951 24.9709611,18.6072144 C24.989493,18.419427 25.0000827,18.2599727 25.0027301,18.1314866 C25.0053776,18.1117196 25.0146435,18.0939291 25.0146435,18.0741621 L25.0146435,12.3568634 C25.0146435,9.46955181 22.7980941,8.1458163 21.8523045,7.58047779 L21.7106678,7.49482044 C20.8648182,6.97955855 19.8144558,6.83196434 18.7025409,6.67580441 C17.3609627,6.48801714 15.8413457,6.27453266 14.319743,5.38106061 C14.3071678,5.37381269 14.2919451,5.37315378 14.2787081,5.36722365 C14.2648091,5.35997573 14.2542195,5.34943328 14.2389968,5.34416207 C14.2297308,5.34086754 14.219803,5.34284426 14.2098752,5.34086754 C14.1966381,5.33691413 14.1847248,5.33164292 14.1714877,5.3296662 C14.1496465,5.32571279 14.1284672,5.32834839 14.106626,5.3276895 C14.0867704,5.3276895 14.0675766,5.3270306 14.047721,5.3296662 C14.0344839,5.33164292 14.0212468,5.33098401 14.0086716,5.33361962 C13.9868304,5.33889084 13.9676366,5.34943328 13.9464573,5.35734012 C13.9279254,5.36458805 13.9100553,5.37183597 13.8921853,5.38106061 C13.8809337,5.38764965 13.8690204,5.39226195 13.8584307,5.39950989 C13.8412225,5.41071123 13.8286473,5.4271838 13.8140865,5.44036185 C13.7962164,5.45683442 13.7803319,5.47198919 13.7651093,5.49109736 C13.7591526,5.4990042 13.7498866,5.50361651 13.7439299,5.51218224 C13.7419444,5.51481786 13.7419444,5.51943018 13.739297,5.52272469 C13.7373114,5.52667811 13.7333403,5.52865482 13.7306929,5.53260824 C13.7227506,5.54578629 13.7220888,5.56159995 13.7161321,5.57543691 C13.7101754,5.58927386 13.6989239,5.5984985 13.6942909,5.61299436 L13.6254581,5.82186651 C13.3527742,6.65999073 12.7849034,8.40278835 11.2507255,9.55125575 C10.4981974,10.1139587 9.60469437,10.321513 8.95210623,10.4737195 C8.79921794,10.5093003 8.65890486,10.5415865 8.53447629,10.5745316 C8.52521034,10.5771672 8.51792994,10.5844152 8.50866398,10.5877097 C8.47954241,10.5969343 8.45439195,10.6120891 8.42857964,10.6272438 C8.40607659,10.6410808 8.38357356,10.6529411 8.36437979,10.6707314 C8.34320046,10.6891807 8.32731596,10.7102656 8.31010775,10.7326683 C8.2935614,10.7544121 8.27767691,10.774838 8.26510167,10.7992175 C8.2531883,10.8229379 8.24723162,10.8479762 8.23928936,10.8736734 C8.23134711,10.9020063 8.22406671,10.9296802 8.22208116,10.9599897 C8.2214193,10.9698732 8.21612447,10.9777801 8.21612447,10.9883225 L8.21612447,18.0741621 C8.21612447,18.0945881 8.22472857,18.1123784 8.22803784,18.1314866 C8.23068527,18.2500892 8.23928936,18.392412 8.254512,18.5604323 C8.20752036,18.6546554 8.19163587,18.7646921 8.22340487,18.873411 C8.24061308,18.9313944 8.27105837,18.9794943 8.30746034,19.022982 C8.48616095,20.3862516 8.96997629,22.5836921 9.84560927,24.1116875 C10.2016868,24.7323738 10.7232278,25.4400353 11.4750941,26.1351776 L5.37875592,28.7009447 L6.01413587,11.60835 C6.01413587,11.6057143 6.01281216,11.6030787 6.01281216,11.6004431 C6.01281216,11.5971486 6.01413587,11.594513 6.01413587,11.5918774 C6.01413587,5.77244882 10.7695576,1.03889187 16.615053,1.03889187 C22.4605485,1.03889187 27.2166321,5.77244882 27.2166321,11.5918774 C27.2166321,11.594513 27.2179559,11.5971486 27.2179559,11.6004431 C27.2179559,11.6030787 27.2166321,11.6057143 27.2166321,11.60835 L27.9718076,31.9440638 C27.9804117,32.1746796 28.1716875,32.3565368 28.4013509,32.3565368 C28.4073077,32.3565368 28.4119406,32.355878 28.4178972,32.355878 C28.6555029,32.3473122 28.8401603,32.1483236 28.8315561,31.9117775 L28.7607377,30.0003008 L29.3544209,30.2632029 C29.6515934,30.3877356 29.9375144,30.5432366 30.2042415,30.723117 C30.2790311,30.7725348 30.3630864,30.7975731 30.4458183,30.7975731 C30.5841458,30.7975731 30.7191641,30.7310238 30.8025576,30.6091269 C30.9355902,30.4140917 30.8846276,30.1472361 30.6880569,30.0141378 C30.3743381,29.80263 30.0374543,29.6201139 29.6965994,29.4777909 L28.7256594,29.0462097 L28.0763805,11.5760637 C28.0763805,11.5754048 28.0757187,11.574087 28.0757187,11.5734281 C28.065129,5.29079094 22.9284794,0.181659473 16.615053,0.181659473 C10.3016268,0.181659473 5.16497705,5.29013204 5.15504924,11.5734281 C5.15504924,11.574087 5.15438739,11.5747459 5.15438739,11.5760637 L4.50444666,29.0692713 L3.54144894,29.4744965 C1.3904231,30.3785109 -0.000132370821,32.4652557 -0.000132370821,34.7905233 L-0.000132370821,44.3861232 C-0.000132370821,44.6226693 0.192467174,44.81441 0.430072797,44.81441" id="Fill-1" fill="#50E3C2" fill-rule="nonzero" mask="url(#mask-2)"></path>
                    </g>
                </g>
                <path d="M5.88023814,47.0652094 L11.0908167,47.0652094 L11.0908167,45.7981161 L5.88023814,45.7981161 L5.88023814,47.0652094 Z M5.6585114,40.9831612 C5.6585114,40.592677 6.00924279,40.2746854 6.4406021,40.2746854 C6.87196142,40.2746854 7.22202092,40.592677 7.22202092,40.9831612 C7.22202092,41.3742544 6.87196142,41.6916369 6.4406021,41.6916369 C6.00924279,41.6916369 5.6585114,41.3742544 5.6585114,40.9831612 Z M5.44417554,45.0055735 C5.20296371,45.0055735 5.00744103,45.1828447 5.00744103,45.4015402 L5.00744103,47.4611761 C5.00744103,47.6798716 5.20296371,47.8571428 5.44417554,47.8571428 L11.5275512,47.8571428 C11.768763,47.8571428 11.9642857,47.6798716 11.9642857,47.4611761 L11.9642857,45.4015402 C11.9642857,45.1828447 11.768763,45.0055735 11.5275512,45.0055735 L8.92259787,45.0055735 L8.92259787,43.3626163 L10.1326884,42.2660932 C10.3026789,42.1113616 10.3026789,41.8603797 10.1326884,41.7056481 C9.96202599,41.5509165 9.68520351,41.5509165 9.515213,41.7056481 L8.17746162,42.9185245 C8.13714767,42.954466 8.10489651,42.9989362 8.08272384,43.0476705 C8.06189496,43.0921407 8.05316027,43.1396566 8.05181648,43.1871727 C8.05114457,43.1914369 8.04912887,43.1944828 8.04912887,43.198747 L8.04912887,45.0055735 L6.87733661,45.0055735 L6.87733661,42.4244799 C7.57745561,42.2490361 8.09548992,41.6727523 8.09548992,40.9831612 C8.09548992,40.1558953 7.35304127,39.4821429 6.4406021,39.4821429 C5.52816294,39.4821429 4.78571429,40.1558953 4.78571429,40.9831612 C4.78571429,41.6727523 5.3037486,42.2490361 6.0038676,42.4244799 L6.0038676,45.0055735 L5.44417554,45.0055735 Z" id="Fill-4" fill="#50E3C2" fill-rule="nonzero"></path>
                <path d="M47.2586007,38.9282865 L39.960617,32.8160739 L41.439362,32.1612419 C41.45051,32.1565454 41.4570677,32.1471522 41.4675599,32.1417848 C41.4990365,32.1236696 41.5285458,32.1042125 41.555432,32.078717 C41.569203,32.0652983 41.5823183,32.0525505 41.5941221,32.037119 C41.6151065,32.0122944 41.6308448,31.9847861 41.6452715,31.955265 C41.6544522,31.9364789 41.6642886,31.9190345 41.6708463,31.8989066 C41.6734694,31.8908553 41.6787155,31.884146 41.6813385,31.8754238 L42.6505559,28.2282241 L45.0978624,29.3607615 C45.7949382,29.6841519 46.5425078,29.8451761 47.2907331,29.8451761 C48.0376469,29.8451761 48.7858722,29.6841519 49.482948,29.3607615 L51.8732033,28.2543906 L52.8358629,31.8754238 C52.838486,31.884146 52.8437321,31.8908553 52.8463551,31.8989066 C52.8529128,31.9190345 52.8627492,31.9364789 52.87193,31.955265 C52.8863567,31.9847861 52.902095,32.0122944 52.9230794,32.037119 C52.9348832,32.0525505 52.9479984,32.0652983 52.9617695,32.078717 C52.9886556,32.1042125 53.018165,32.1236696 53.0496416,32.1417848 C53.0601338,32.1471522 53.0666915,32.1565454 53.0778395,32.1612419 L54.5552729,32.815403 L47.2586007,38.9282865 Z M40.2307913,26.1235029 L40.2307913,18.5868965 C40.8996693,18.2534421 43.2033638,17.2779035 47.2586007,17.2779035 C51.3138375,17.2779035 53.6168763,18.2534421 54.2857543,18.5868965 L54.2857543,26.1590625 C54.2070628,26.2013313 54.1336174,26.2509804 54.0523029,26.2892236 L52.0961625,27.1949851 C52.0758339,27.1976689 52.0548495,27.1936434 52.0338651,27.1996818 C51.96501,27.2184679 51.9092702,27.2573821 51.860088,27.3043474 L49.1314592,28.5670461 C47.9602668,29.1084901 46.619232,29.1071482 45.4493513,28.5670461 L40.5285075,26.2892236 C40.4242413,26.2409164 40.3304672,26.1791904 40.2307913,26.1235029 Z M37.9028334,22.1254047 L37.9028334,18.2614933 L39.3776439,18.6593574 L39.3776439,25.5095979 C38.4582645,24.6568403 37.9028334,23.4350687 37.9028334,22.1254047 Z M36.7139355,6.72544671 C36.7139355,3.33387318 40.0432431,0.872885691 44.6309594,0.872885691 C45.8611703,0.872885691 46.871045,1.17413525 47.6455007,1.76321568 C46.4638163,2.74814742 45.707066,4.24701494 45.707066,5.92435101 C45.707066,6.19406664 45.7332965,6.45774387 45.770675,6.71739551 C45.593619,6.68116505 45.411317,6.64090898 45.2218016,6.5986401 C44.1240548,6.35509091 42.8787612,6.07598219 41.5678916,6.36180026 C39.3468231,6.8442021 37.6372496,8.25786095 36.7139355,9.18710513 L36.7139355,6.72544671 Z M55.3448112,5.92435101 C55.3448112,8.40211185 53.3742441,10.4182698 50.9525123,10.4182698 C48.5301246,10.4182698 46.5602133,8.40211185 46.5602133,5.92435101 C46.5602133,3.44591922 48.5301246,1.42976127 50.9525123,1.42976127 C53.3742441,1.42976127 55.3448112,3.44591922 55.3448112,5.92435101 Z M55.0051262,2.24628846 C58.8688803,3.98266677 57.2661962,9.1689899 56.8124084,10.4182698 L53.8103264,10.4182698 C55.2457911,9.45950451 56.1979586,7.80430928 56.1979586,5.92435101 C56.1979586,4.41944508 55.5874434,3.06013193 54.6097013,2.08459328 C54.7408538,2.13826803 54.8615141,2.18187876 55.0051262,2.24628846 Z M55.1389017,25.5733366 L55.1389017,18.6593574 L56.6773212,18.244049 L56.6773212,21.9764572 C56.6773212,23.4122569 56.1087749,24.7024638 55.1389017,25.5733366 Z M41.7449475,7.2145579 C42.876794,6.96966684 44.0256903,7.22529286 45.0401553,7.45139777 C45.3719712,7.52452962 45.6847701,7.58961026 45.9870767,7.64060127 C46.3680749,8.78991195 47.1176117,9.76545062 48.0940425,10.4182698 L37.9028334,10.4182698 L37.9028334,9.26560446 C38.8071303,8.47792745 40.1389845,7.56344382 41.7449475,7.2145579 Z M39.7488056,17.8569198 L37.9028334,17.3590865 L37.9028334,11.2911555 L56.6773212,11.2911555 L56.6773212,17.3416422 L54.7677401,17.8569198 C54.137552,17.5214526 51.7131971,16.4056887 47.2586007,16.4056887 C42.8040044,16.4056887 40.3789937,17.5214526 39.7488056,17.8569198 Z M61.8775199,35.105973 C61.8768641,35.105973 61.8762083,35.1046312 61.8755525,35.1046312 L53.6044169,31.4440129 L52.6594628,27.8907442 L54.4037918,27.0836101 C54.5637978,27.0091363 54.710033,26.9178892 54.8595468,26.8293259 C54.8844659,26.8199328 54.9047945,26.8058433 54.9264347,26.7917536 C56.5428899,25.8074928 57.5304686,24.0194526 57.5304686,21.9764572 L57.5304686,10.9369021 C57.8399885,10.1190331 60.1286006,3.59687947 55.3480901,1.44854743 C54.4687122,1.05269612 53.4470339,0.677643772 52.4955221,0.795057298 C52.0076346,0.641413314 51.489582,0.557546509 50.9525123,0.557546509 C50.0180504,0.557546509 49.1419514,0.811159725 48.3812666,1.25129271 C47.4297548,0.424030558 46.1726576,0 44.6309594,0 C39.5494538,0 35.8607883,2.82865954 35.8607883,6.72544671 L35.8607883,10.3102494 C35.8607883,10.4960982 35.9768583,10.661819 36.1493238,10.7222031 C36.1945715,10.7383055 36.2411307,10.7456858 36.2876898,10.7456858 C36.4162193,10.7456858 36.54147,10.6859726 36.6234404,10.5779522 C36.6286865,10.5705719 36.7801676,10.3766719 37.0503419,10.0874991 L37.0503419,22.1254047 C37.0503419,23.9805384 37.9808693,25.692763 39.4727295,26.6864169 C39.5409288,26.776993 39.6412605,26.8373772 39.7579863,26.8501249 C39.8963523,26.930637 40.0314393,27.0158457 40.1776745,27.0836101 L41.8636406,27.8639068 L40.9127846,31.4440129 L32.6416488,35.1046312 C32.6409932,35.1046312 32.6403374,35.105973 32.6396816,35.105973 C30.2546724,36.1385412 28.7142857,38.5176745 28.7142857,41.1678655 L28.7142857,52.2067497 C28.7142857,52.4476152 28.9051127,52.6428571 29.1405315,52.6428571 C29.3752946,52.6428571 29.5667774,52.4476152 29.5667774,52.2067497 L29.5667774,41.1678655 C29.5667774,38.8665604 30.9051891,36.8014243 32.9800224,35.905056 L39.0799277,33.2058867 L46.8323549,39.6985192 L46.8323549,52.2067497 C46.8323549,52.4476152 47.0231819,52.6428571 47.2586007,52.6428571 C47.4940196,52.6428571 47.6848466,52.4476152 47.6848466,52.2067497 L47.6848466,39.6985192 L55.4359623,33.2052157 L61.537179,35.905056 C61.5378347,35.905056 61.5384905,35.905056 61.5391463,35.9057269 C61.5398021,35.9057269 61.5398021,35.9063977 61.5404577,35.9063977 C63.6120123,36.8014243 64.950424,38.8665604 64.950424,41.1678655 L64.950424,52.2067497 C64.950424,52.4476152 65.1419068,52.6428571 65.3773257,52.6428571 C65.6127444,52.6428571 65.8035714,52.4476152 65.8035714,52.2067497 L65.8035714,41.1678655 C65.8035714,38.5176745 64.262529,36.139212 61.8775199,35.105973 Z" id="Fill-6" fill="#50E3C2" fill-rule="nonzero"></path>
                <path d="M53.5269596,49.4315151 L61.3295033,49.4315151 L61.3295033,46.8961623 L53.5269596,46.8961623 L53.5269596,49.4315151 Z M61.7715545,46.0776776 L58.0875678,46.0776776 L58.0875678,42.8175788 C58.0875678,42.5910956 57.8889848,42.4080218 57.6448365,42.4080218 C57.4006883,42.4080218 57.2027853,42.5910956 57.2027853,42.8175788 L57.2027853,46.0776776 L55.3964961,46.0776776 L55.3964961,41.0881284 C55.3964961,40.8616454 55.1985932,40.6785714 54.9544449,40.6785714 C54.7102967,40.6785714 54.5123937,40.8616454 54.5123937,41.0881284 L54.5123937,46.0776776 L53.0849084,46.0776776 C52.8407601,46.0776776 52.6428572,46.2607514 52.6428572,46.4872346 L52.6428572,49.8410721 C52.6428572,50.0669262 52.8407601,50.25 53.0849084,50.25 L61.7715545,50.25 C62.0163828,50.25 62.2142858,50.0669262 62.2142858,49.8410721 L62.2142858,46.4872346 C62.2142858,46.2607514 62.0163828,46.0776776 61.7715545,46.0776776 Z" id="Fill-7" fill="#50E3C2" fill-rule="nonzero"></path>
                <path d="M51.4464285,5.84387444 C51.5228829,5.84387444 51.584697,5.90568855 51.584697,5.98214286 C51.584697,6.13423814 51.3081602,6.13423814 51.3081602,5.98214286 C51.3081602,5.90568855 51.3699743,5.84387444 51.4464285,5.84387444 M51.4464285,7.17857144 C52.1060504,7.17857144 52.6428572,6.64095125 52.6428572,5.98214286 C52.6428572,5.32252113 52.1060504,4.78571428 51.4464285,4.78571428 C50.7868068,4.78571428 50.25,5.32252113 50.25,5.98214286 C50.25,6.64095125 50.7868068,7.17857144 51.4464285,7.17857144" id="Fill-8" fill="#50E3C2" fill-rule="nonzero"></path>
            </g>
        </g>
    </g>
</svg>