<?xml version="1.0" encoding="UTF-8"?>
<svg width="67px" height="67px" viewBox="0 0 67 67" version="1.1" xmlns="http://www.w3.org/2000/svg" xmlns:xlink="http://www.w3.org/1999/xlink">
    <!-- Generator: Sketch 51.2 (57519) - http://www.bohemiancoding.com/sketch -->
    <title>Group 2</title>
    <desc>Created with Sketch.</desc>
    <defs>
        <polygon id="path-1" points="0.376584176 0.262690848 29.8632744 0.262690848 29.8632744 7.11822656 0.376584176 7.11822656"></polygon>
    </defs>
    <g id="Page-1" stroke="none" stroke-width="1" fill="none" fill-rule="evenodd">
        <g id="1_Homepage" transform="translate(-43.000000, -467.000000)">
            <g id="Group-3" transform="translate(18.000000, 434.000000)">
                <g id="Group-2" transform="translate(25.000000, 33.000000)">
                    <circle id="Oval-3-Copy-3" stroke="#00D8FF" stroke-width="1.6" fill="#FFFFFF" cx="33.5" cy="33.5" r="32.7"></circle>
                    <g id="Group-Copy" transform="translate(21.535714, 7.976190)">
                        <path d="M4.8086982,48.9360442 L1.73193867,47.8825351 L4.56082509,38.2191573 L7.57768964,43.8071184 L4.8086982,48.9360442 Z M4.76677171,49.5477884 L5.90846235,51.0694227 L0.718331153,50.5358509 L1.53981397,48.4424674 L4.76677171,49.5477884 Z M5.50394081,22.4910577 C5.45464263,22.6224055 5.4076481,22.7546622 5.37908279,22.8937363 C5.23395263,23.5995601 5.37631841,24.3181097 5.77945776,24.9171282 C5.91076601,25.1130136 6.06695371,25.2911739 6.24894233,25.4502456 L11.0566671,29.4924844 L11.0566671,33.2756637 L8.08495412,33.2756637 C7.91955181,33.2756637 7.78547918,33.4079204 7.78547918,33.5710825 C7.78547918,33.7346991 7.91955181,33.8669559 8.08495412,33.8669559 L11.0566671,33.8669559 L11.0566671,37.1415602 L4.77736851,37.1415602 L4.77736851,24.4699095 C4.77736851,23.7181821 5.05058181,23.0282655 5.50394081,22.4910577 Z M9.84172024,22.2792651 L16.4716348,31.1204695 L15.2354944,32.2294265 L6.64194561,25.0043904 C6.5037264,24.8830414 6.38117204,24.7439673 6.2784291,24.5912585 C5.96375004,24.1226787 5.85317467,23.5618374 5.96605369,23.0114494 C6.07893271,22.4606068 6.40282638,21.9861187 6.87783972,21.6761562 C7.06535711,21.5529892 7.26623569,21.4652725 7.47264304,21.4075522 C7.61823394,21.3871002 7.76566776,21.373011 7.91678742,21.373011 C7.97207511,21.373011 8.02137329,21.3539224 8.06560344,21.3280164 C8.75347435,21.3334703 9.42890554,21.6652484 9.84172024,22.2792651 Z M19.3415263,32.6230153 C19.3415263,33.2483942 18.6412157,33.7574236 17.7805707,33.7574236 C16.9199258,33.7574236 16.2200759,33.2483942 16.2200759,32.6230153 C16.2200759,31.9976363 16.9199258,31.4895159 17.7805707,31.4895159 C18.6412157,31.4895159 19.3415263,31.9976363 19.3415263,32.6230153 Z M4.9768649,37.7328524 L11.1308447,37.7328524 L14.1016362,47.8825351 L11.0253374,48.9360442 L4.9768649,37.7328524 Z M11.9491024,51.1871358 L11.2732105,49.4764334 L14.4398125,48.3924735 L16.825476,49.7150409 L11.9491024,51.1871358 Z M17.8764027,49.7941223 C17.875942,49.7663984 17.875942,49.7391289 17.8681096,49.712314 C17.8676488,49.711405 17.8681096,49.7100415 17.8676488,49.7086781 C17.8630415,49.6941344 17.8529054,49.6836811 17.8464552,49.6700464 C17.8367799,49.6495943 17.8284867,49.6286877 17.8142041,49.6105081 C17.7976178,49.5905105 17.7764241,49.5759668 17.7552305,49.5609686 C17.7455552,49.5536968 17.739105,49.5441525 17.7280474,49.5377896 L17.7225187,49.5346082 C17.7220579,49.5346082 17.7215972,49.5341537 17.7211365,49.5341537 L14.7222404,47.8716273 L11.6551562,37.3947114 L11.6551562,29.99606 L15.0475163,32.8484426 C15.1037254,32.8952551 15.172835,32.9188886 15.2419446,32.9188886 C15.3138186,32.9188886 15.3861533,32.8929826 15.4432839,32.8416252 L15.6275762,32.6761907 C15.6635132,33.6024424 16.6126184,34.3482613 17.7805707,34.3482613 C18.9715596,34.3482613 19.9404762,33.574264 19.9404762,32.6230153 C19.9404762,31.6722211 18.9715596,30.8982237 17.7805707,30.8982237 C17.5479017,30.8982237 17.3276725,30.9359464 17.1171185,30.9904853 C17.1157363,30.9882128 17.1157363,30.9859403 17.1138934,30.9836679 L10.3319377,21.9402152 C9.66756404,20.9521527 8.45261721,20.5394753 7.35054941,20.8285313 C5.55738557,21.0989532 4.17841862,22.6264959 4.17841862,24.4699095 L4.17841862,37.3947114 L1.08046547,47.9770691 L0.0189419681,50.6831058 C0.0138739305,50.695377 0.0152561226,50.7085573 0.0120310078,50.721283 C0.00880589295,50.7344632 0.00143420194,50.7449165 5.20098771e-05,50.7590057 C-0.000408720811,50.7653686 0.00235566332,50.7717314 0.00189493263,50.7790033 C0.000973471253,50.7999099 0.00419858607,50.8189985 0.00788443157,50.838996 C0.0111095464,50.8571757 0.0134131998,50.8749008 0.0198634295,50.8917169 C0.0267743898,50.9094421 0.0369104649,50.9253492 0.0470465401,50.9417109 C0.0571826152,50.9576181 0.066397229,50.9730708 0.0788369575,50.98716 C0.0917374168,51.0007947 0.106480799,51.0107935 0.122145642,51.0226102 C0.138271216,51.034427 0.153475329,51.0457892 0.172365287,51.0539701 C0.178815517,51.0571515 0.182962093,51.0626054 0.189873053,51.0653323 C0.204616435,51.0707862 0.219820548,51.0698772 0.235024661,51.0735132 C0.246082197,51.0757856 0.255296811,51.0821485 0.266815078,51.083512 L6.52215563,51.7270706 C6.53275244,51.7279795 6.54288851,51.7288885 6.55348532,51.7288885 L6.55394605,51.7288885 C6.55440678,51.7288885 6.55486751,51.728434 6.55532824,51.728434 C6.58850085,51.728434 6.62167346,51.7216167 6.65346388,51.7102544 C6.66636434,51.7057095 6.67650041,51.6984377 6.68847941,51.6925293 C6.70276206,51.6852574 6.71796617,51.680258 6.73132736,51.6707137 C6.73501321,51.6679868 6.73685613,51.6638964 6.74008125,51.6607149 C6.7589712,51.6461712 6.77325386,51.6279916 6.78753651,51.6093575 C6.79629039,51.5975408 6.8068872,51.5879965 6.81425889,51.5761797 C6.82393423,51.5584546 6.82854154,51.5380025 6.83453104,51.5184594 C6.83959907,51.5020977 6.84697077,51.4870996 6.84927442,51.4702834 C6.84927442,51.4675565 6.85111734,51.4657385 6.85111734,51.4639205 C6.85296026,51.4484679 6.8474315,51.4348331 6.84697077,51.4202894 C6.8460493,51.3984739 6.84651003,51.3771128 6.84052054,51.3557518 C6.83453104,51.3339362 6.82301277,51.3153021 6.81241596,51.295759 C6.805505,51.2834878 6.80320135,51.2693986 6.79398674,51.2571273 L5.30582661,49.2723672 L7.91678742,44.4356788 L10.6088368,49.4218945 L11.4920576,51.657079 C11.4975863,51.6711682 11.5063402,51.6816215 11.5137119,51.6938927 C11.5201621,51.7057095 11.5256909,51.7179807 11.5335233,51.728434 C11.5455023,51.7434322 11.559785,51.7557035 11.5740676,51.7679747 C11.5823608,51.775701 11.5897325,51.7843364 11.5994078,51.7906992 C11.6164548,51.8029705 11.6353448,51.8106968 11.6542348,51.8188776 C11.6634494,51.8229681 11.6712818,51.8279675 11.6804964,51.8311489 C11.7095224,51.8402387 11.7399307,51.8452381 11.7707996,51.8452381 C11.7998257,51.8452381 11.8293124,51.8411477 11.8587992,51.8320579 L17.6690739,50.0777244 C17.6828958,50.073634 17.6930319,50.0636352 17.7059324,50.0581813 C17.7197543,50.0518184 17.7317333,50.0454556 17.7446337,50.0372747 C17.7810315,50.0136412 17.810979,49.9845538 17.8335548,49.9491036 C17.8358584,49.9454676 17.8404657,49.9441042 17.8427694,49.9400138 C17.8432301,49.9391048 17.8432301,49.9377413 17.8436908,49.9363778 C17.8565913,49.9131988 17.8621201,49.8877473 17.8681096,49.8618414 C17.8708739,49.8500246 17.8777849,49.8386624 17.8791671,49.8268456 C17.8800886,49.8163923 17.8764027,49.8050301 17.8764027,49.7941223 Z" id="Fill-1" fill="#00D8FF"></path>
                        <g id="Group-5" transform="translate(3.988095, 12.761905)">
                            <mask id="mask-2" fill="white">
                                <use xlink:href="#path-1"></use>
                            </mask>
                            <g id="Clip-4"></g>
                            <path d="M26.300553,6.53451897 C24.670367,6.53451897 23.3442087,5.2585279 23.3442087,3.69001004 C23.3442087,2.12194085 24.670367,0.845949777 26.300553,0.845949777 C27.9307391,0.845949777 29.2568974,2.12194085 29.2568974,3.69001004 C29.2568974,5.2585279 27.9307391,6.53451897 26.300553,6.53451897 M15.4870475,6.53451897 C13.8568615,6.53451897 12.5307032,5.2585279 12.5307032,3.69001004 C12.5307032,2.12194085 13.8568615,0.845949777 15.4870475,0.845949777 C17.1172336,0.845949777 18.4433919,2.12194085 18.4433919,3.69001004 C18.4433919,5.2585279 17.1172336,6.53451897 15.4870475,6.53451897 M3.93865267,6.53451897 C2.30893289,6.53451897 0.982774652,5.2585279 0.982774652,3.69001004 C0.982774652,2.12194085 2.30893289,0.845949777 3.93865267,0.845949777 C5.56883875,0.845949777 6.894997,2.12194085 6.894997,3.69001004 C6.894997,5.2585279 5.56883875,6.53451897 3.93865267,6.53451897 M26.300553,0.262690848 C24.4386157,0.262690848 22.9082179,1.64501451 22.7534062,3.39838058 L19.0341944,3.39838058 C18.8793827,1.64501451 17.3489849,0.262690848 15.4870475,0.262690848 C13.6251102,0.262690848 12.0947124,1.64501451 11.9399007,3.39838058 L7.48579956,3.39838058 C7.33098784,1.64501451 5.80059004,0.262690848 3.93865267,0.262690848 C1.97459553,0.262690848 0.376584176,1.80025112 0.376584176,3.69001004 C0.376584176,5.58021763 1.97459553,7.11822656 3.93865267,7.11822656 C5.80059004,7.11822656 7.33098784,5.7359029 7.48579956,3.98208817 L11.9399007,3.98208817 C12.0947124,5.7359029 13.6251102,7.11822656 15.4870475,7.11822656 C17.3489849,7.11822656 18.8793827,5.7359029 19.0341944,3.98208817 L22.7534062,3.98208817 C22.9082179,5.7359029 24.4386157,7.11822656 26.300553,7.11822656 C28.2650765,7.11822656 29.8635541,5.58021763 29.8635541,3.69001004 C29.8635541,1.80025112 28.2650765,0.262690848 26.300553,0.262690848" id="Fill-3" fill="#00D8FF" mask="url(#mask-2)"></path>
                        </g>
                        <path d="M12.1238095,5.35976772 L16.5904762,5.35976772 C16.7137562,5.35976772 16.8138095,5.45982506 16.8138095,5.58310999 C16.8138095,5.70639492 16.7137562,5.80645226 16.5904762,5.80645226 L12.1238095,5.80645226 C12.0005295,5.80645226 11.9004762,5.70639492 11.9004762,5.58310999 C11.9004762,5.45982506 12.0005295,5.35976772 12.1238095,5.35976772 M17.0371429,4.01971412 L11.6771429,4.01971412 C11.5538629,4.01971412 11.4538095,3.91965679 11.4538095,3.79592517 C11.4538095,3.67308692 11.5538629,3.57302959 11.6771429,3.57302959 L17.0371429,3.57302959 C17.1604229,3.57302959 17.2604762,3.67308692 17.2604762,3.79592517 C17.2604762,3.91965679 17.1604229,4.01971412 17.0371429,4.01971412 M14.3571429,0.448917957 C11.5248295,0.448917957 9.22047619,2.45140472 9.22047619,4.91308319 C9.22047619,6.26251717 9.91548952,7.47124552 11.0071429,8.29001827 L11.0071429,10.4604584 L13.4441562,9.30265211 C13.7407429,9.34955398 14.0449229,9.37724842 14.3571429,9.37724842 C17.1894562,9.37724842 19.4938095,7.37476166 19.4938095,4.91308319 C19.4938095,2.45140472 17.1894562,0.448917957 14.3571429,0.448917957 M14.3571429,9.82705975 C14.0690429,9.82705975 13.7889829,9.80159873 13.5129429,9.76452391 L10.5604762,11.1666667 L10.5604762,8.50889369 C9.46390952,7.61150446 8.77380952,6.33488006 8.77380952,4.91308319 C8.77380952,2.19902796 11.2733562,0 14.3571429,0 C17.4404829,0 19.9404762,2.19902796 19.9404762,4.91308319 C19.9404762,7.62669173 17.4404829,9.82705975 14.3571429,9.82705975" id="Fill-6" fill="#00D8FF"></path>
                    </g>
                </g>
            </g>
        </g>
    </g>
</svg>