<?xml version="1.0" encoding="UTF-8"?>
<svg width="28px" height="28px" viewBox="0 0 28 28" version="1.1" xmlns="http://www.w3.org/2000/svg" xmlns:xlink="http://www.w3.org/1999/xlink">
    <!-- Generator: Sketch 50.2 (55047) - http://www.bohemiancoding.com/sketch -->
    <title>Group 71</title>
    <desc>Created with Sketch.</desc>
    <defs></defs>
    <g id="Page-1" stroke="none" stroke-width="1" fill="none" fill-rule="evenodd">
        <g id="1_Homepage-Copy-4" transform="translate(-115.000000, -4687.000000)">
            <g id="Group-71" transform="translate(115.000000, 4687.000000)">
                <path d="M20.157,19.45 L19.45,20.158 L18.035,18.743 L18.742,18.036 L20.157,19.45 Z M14,22 L15,22 L15,19 L14,19 L14,22 Z M7,15 L10,15 L10,14 L7,14 L7,15 Z M8.843,9.551 L9.551,8.844 L10.965,10.258 L10.258,10.965 L8.843,9.551 Z M8.843,19.45 L10.258,18.036 L10.965,18.743 L9.551,20.158 L8.843,19.45 Z M14,10 L15,10 L15,7 L14,7 L14,10 Z M14.5,11.995 C13.116,11.995 11.995,13.117 11.995,14.501 C11.995,15.885 13.116,17.006 14.5,17.006 C15.884,17.006 17.006,15.885 17.006,14.501 C17.006,13.117 15.884,11.995 14.5,11.995 Z M14.5,18.001 C12.567,18.001 11,16.434 11,14.501 C11,12.567 12.567,11.001 14.5,11.001 C16.433,11.001 18,12.567 18,14.501 C18,16.434 16.433,18.001 14.5,18.001 Z M18.035,10.258 L19.45,8.844 L20.157,9.551 L18.742,10.965 L18.035,10.258 Z M19,15 L22,15 L22,14 L19,14 L19,15 Z" id="Fill-710" fill="#2D297C"></path>
                <circle id="Oval-6" stroke="#2D297C" cx="14" cy="14" r="13.5"></circle>
            </g>
        </g>
    </g>
</svg>