<?xml version="1.0" encoding="UTF-8"?>
<svg width="28px" height="28px" viewBox="0 0 28 28" version="1.1" xmlns="http://www.w3.org/2000/svg" xmlns:xlink="http://www.w3.org/1999/xlink">
    <!-- Generator: Sketch 50.2 (55047) - http://www.bohemiancoding.com/sketch -->
    <title>Group 70</title>
    <desc>Created with Sketch.</desc>
    <defs></defs>
    <g id="Page-1" stroke="none" stroke-width="1" fill="none" fill-rule="evenodd">
        <g id="1_Homepage-Copy-4" transform="translate(-110.000000, -5035.000000)">
            <g id="Group-70" transform="translate(110.000000, 5035.000000)">
                <g id="Group-65">
                    <circle id="Oval-6-Copy-4" stroke="#2D297C" cx="14" cy="14" r="13.5"></circle>
                    <path d="M10.00325,16.004374 L11.00125,16.004374 L11.00125,15.004374 L10.00325,15.004374 L10.00325,16.004374 Z M9.00525,17.004374 L11.99925,17.004374 L11.99925,14.004374 L9.00525,14.004374 L9.00525,17.004374 Z M19.98325,11.938374 L13.99525,7.14137401 L8.00725,11.938374 L8.00725,20.504374 C8.00725,20.780374 8.22925,21.005374 8.50625,21.005374 L12.99725,21.005374 L12.99725,14.004374 L17.98725,14.004374 L17.98725,21.005374 L19.48425,21.005374 C19.76025,21.005374 19.98325,20.780374 19.98325,20.504374 L19.98325,11.938374 Z M13.99525,21.005374 L16.98925,21.005374 L16.98925,15.004374 L13.99525,15.004374 L13.99525,21.005374 Z M13.62025,6.14337401 C13.72325,6.04037401 13.85925,5.99537401 13.99525,6.00037401 C14.13025,5.99537401 14.26625,6.04037401 14.37025,6.14337401 L21.84125,12.129374 C22.03925,12.328374 22.03925,12.651374 21.84125,12.850374 C21.64125,13.049374 21.32025,13.049374 21.12125,12.850374 L20.98125,12.737374 L20.98125,21.005374 C20.98125,21.557374 20.53425,22.005374 19.98325,22.005374 L17.98725,22.005374 L12.99725,22.005374 L8.00725,22.005374 C7.45625,22.005374 7.00925,21.557374 7.00925,21.005374 L7.00925,12.737374 L6.86825,12.850374 C6.67025,13.049374 6.34725,13.049374 6.14925,12.850374 C5.95025,12.651374 5.95025,12.328374 6.14925,12.129374 L13.62025,6.14337401 Z" id="Fill-128-Copy" fill="#2D297C"></path>
                </g>
            </g>
        </g>
    </g>
</svg>