<?xml version="1.0" encoding="UTF-8"?>
<svg width="28px" height="28px" viewBox="0 0 28 28" version="1.1" xmlns="http://www.w3.org/2000/svg" xmlns:xlink="http://www.w3.org/1999/xlink">
    <!-- Generator: Sketch 50.2 (55047) - http://www.bohemiancoding.com/sketch -->
    <title>Group 63</title>
    <desc>Created with Sketch.</desc>
    <defs></defs>
    <g id="Page-1" stroke="none" stroke-width="1" fill="none" fill-rule="evenodd">
        <g id="1_Homepage-Copy-4" transform="translate(-110.000000, -448.000000)">
            <g id="Group-63" transform="translate(110.000000, 448.000000)">
                <circle id="Oval-6" stroke="#2D297C" cx="14" cy="14" r="13.5"></circle>
                <path d="M18.174,21 L8.5,21 C8.41,21 8.331,20.969 8.258,20.928 L11.827,12 L21.771,12 L18.174,21 Z M8,8.5 C8,8.223 8.224,8 8.5,8 L19.5,8 C19.776,8 20,8.223 20,8.5 L20,11 L11.5,11 C11.471,11 11.446,11.011 11.42,11.017 C11.397,11.021 11.375,11.023 11.353,11.03 C11.31,11.043 11.272,11.063 11.236,11.087 C11.219,11.097 11.204,11.106 11.188,11.119 C11.152,11.148 11.123,11.182 11.096,11.221 C11.089,11.232 11.078,11.238 11.071,11.25 L11.063,11.272 C11.049,11.297 11.039,11.324 11.03,11.352 L8,18.933 L8,8.5 Z M22.978,11.393 C22.975,11.376 22.974,11.364 22.97,11.348 C22.934,11.239 22.862,11.15 22.767,11.088 C22.759,11.083 22.759,11.072 22.752,11.068 C22.742,11.062 22.733,11.063 22.722,11.058 C22.691,11.042 22.655,11.033 22.619,11.024 C22.592,11.017 22.566,11.01 22.539,11.007 C22.525,11.006 22.513,11 22.5,11 L21,11 L21,8 C21,7.448 20.553,7 20,7 L8,7 C7.448,7 7,7.448 7,8 L7,21 C7,21.109 7.026,21.806 7.249,21.932 C7.396,22.015 7.896,22 8,22 L19,22 L22.932,11.739 C22.971,11.667 23,11.587 23,11.5 C23,11.461 22.987,11.428 22.978,11.393 Z" id="Fill-1" fill="#2D297C"></path>
            </g>
        </g>
    </g>
</svg>