<?xml version="1.0" encoding="UTF-8"?>
<svg width="28px" height="28px" viewBox="0 0 28 28" version="1.1" xmlns="http://www.w3.org/2000/svg" xmlns:xlink="http://www.w3.org/1999/xlink">
    <!-- Generator: Sketch 50.2 (55047) - http://www.bohemiancoding.com/sketch -->
    <title>Group 80</title>
    <desc>Created with Sketch.</desc>
    <defs></defs>
    <g id="Page-1" stroke="none" stroke-width="1" fill="none" fill-rule="evenodd">
        <g id="1_Homepage-Copy-4" transform="translate(-112.000000, -653.000000)">
            <g id="Group-80" transform="translate(112.000000, 653.000000)">
                <circle id="Oval-6" stroke="#2D297C" cx="14" cy="14" r="13.5"></circle>
                <path d="M17.5,10.001 L10.5,10.001 C10.224,10.001 10,9.777 10,9.501 C10,9.224 10.224,9 10.5,9 L17.5,9 C17.776,9 18,9.224 18,9.501 C18,9.777 17.776,10.001 17.5,10.001 Z M17.5,13.001 L10.5,13.001 C10.224,13.001 10,12.777 10,12.501 C10,12.225 10.224,12.001 10.5,12.001 L17.5,12.001 C17.776,12.001 18,12.225 18,12.501 C18,12.777 17.776,13.001 17.5,13.001 Z M17.5,16 L10.5,16 C10.224,16 10,15.777 10,15.501 C10,15.224 10.224,15.001 10.5,15.001 L17.5,15.001 C17.776,15.001 18,15.224 18,15.501 C18,15.777 17.776,16 17.5,16 Z M17.5,19.001 L10.5,19.001 C10.224,19.001 10,18.777 10,18.501 C10,18.224 10.224,18.001 10.5,18.001 L17.5,18.001 C17.776,18.001 18,18.224 18,18.501 C18,18.777 17.776,19.001 17.5,19.001 Z M21,8.001 C21,7.448 20.552,7.001 20,7.001 L8,7.001 C7.447,7.001 7,7.448 7,8.001 L7,20 C7,20.553 7.447,21.001 8,21.001 L20,21.001 C20.552,21.001 21,20.553 21,20 L21,8.001 Z M20,22.001 L8,22.001 C6.896,22.001 6,21.105 6,20 L6,8.001 C6,6.896 6.896,6 8,6 L20,6 C21.104,6 22,6.896 22,8.001 L22,20 C22,21.105 21.104,22.001 20,22.001 Z" id="Fill-553" fill="#2D297C"></path>
            </g>
        </g>
    </g>
</svg>