<?xml version="1.0" encoding="UTF-8"?>
<svg width="28px" height="28px" viewBox="0 0 28 28" version="1.1" xmlns="http://www.w3.org/2000/svg" xmlns:xlink="http://www.w3.org/1999/xlink">
    <!-- Generator: Sketch 50.2 (55047) - http://www.bohemiancoding.com/sketch -->
    <title>Group 79</title>
    <desc>Created with Sketch.</desc>
    <defs></defs>
    <g id="Page-1" stroke="none" stroke-width="1" fill="none" fill-rule="evenodd">
        <g id="1_Homepage-Copy-4" transform="translate(-112.000000, -957.000000)">
            <g id="Group-79" transform="translate(112.000000, 957.000000)">
                <circle id="Oval-6-Copy" stroke="#2D297C" cx="14" cy="14" r="13.5"></circle>
                <path d="M14.497,17.332 L13.832,17.997 L13.775,17.94 L13.709,18.006 L12.994,17.29 L13.059,17.224 L11.502,15.668 L12.168,15.002 L13.725,16.559 L17.29,12.994 L18.006,13.71 L14.44,17.275 L14.497,17.332 Z M20,8.499 C20,8.224 19.776,7.999 19.5,7.999 L9.5,7.999 C9.224,7.999 9,8.224 9,8.499 L9,21.5 C9,21.775 9.224,21.999 9.5,21.999 L16,21.999 L16,18.999 L16,17.999 L17,17.999 L20,17.999 L20,8.499 Z M17,21.767 L19.768,18.999 L17,18.999 L17,21.767 Z M21,19 L17,23 L16.999,22.999 L8.5,22.999 C8.224,22.999 8,22.775 8,22.499 L8,7.499 C8,7.223 8.224,7 8.5,7 L20.5,7 C20.776,7 21,7.223 21,7.499 L21,18.999 L20.998,18.999 L21,19 Z" id="Fill-593-Copy" fill="#2D297C"></path>
            </g>
        </g>
    </g>
</svg>