<?xml version="1.0" encoding="UTF-8"?>
<svg width="28px" height="28px" viewBox="0 0 28 28" version="1.1" xmlns="http://www.w3.org/2000/svg" xmlns:xlink="http://www.w3.org/1999/xlink">
    <!-- Generator: Sketch 50.2 (55047) - http://www.bohemiancoding.com/sketch -->
    <title>Group 17 Copy</title>
    <desc>Created with Sketch.</desc>
    <defs></defs>
    <g id="Page-1" stroke="none" stroke-width="1" fill="none" fill-rule="evenodd">
        <g id="1_Homepage-Copy-4" transform="translate(-108.000000, -1293.000000)">
            <g id="Group-17-Copy" transform="translate(108.000000, 1293.000000)">
                <g id="Group-78">
                    <circle id="Oval-6-Copy-2" stroke="#2D297C" cx="14" cy="14" r="13.5"></circle>
                    <path d="M19,22 L8,22 C7.448,22 7,21.552 7,21 L7,10 C7,9.448 7.448,9 8,9 L8,21 L20,21 C20,21.552 19.552,22 19,22 Z M15.5,11 L11.5,11 C11.224,11 11,10.776 11,10.5 C11,10.224 11.224,10 11.5,10 L15.5,10 C15.776,10 16,10.224 16,10.5 C16,10.776 15.776,11 15.5,11 Z M18.5,14 L11.5,14 C11.224,14 11,13.776 11,13.5 C11,13.224 11.224,13 11.5,13 L18.5,13 C18.776,13 19,13.224 19,13.5 C19,13.776 18.776,14 18.5,14 Z M18.5,17 L11.5,17 C11.224,17 11,16.776 11,16.5 C11,16.224 11.224,16 11.5,16 L18.5,16 C18.776,16 19,16.224 19,16.5 C19,16.776 18.776,17 18.5,17 Z M20,8.5 C20,8.224 19.776,8 19.5,8 L10.5,8 C10.224,8 10,8.224 10,8.5 L10,18.5 C10,18.776 10.224,19 10.5,19 L19.5,19 C19.776,19 20,18.776 20,18.5 L20,8.5 Z M20,20 L10,20 C9.448,20 9,19.553 9,19 L9,8 C9,7.448 9.448,7 10,7 L20,7 C20.552,7 21,7.448 21,8 L21,19 C21,19.553 20.552,20 20,20 Z" id="Fill-561" fill="#2D297C"></path>
                </g>
            </g>
        </g>
    </g>
</svg>