<?xml version="1.0" encoding="UTF-8"?>
<svg width="28px" height="28px" viewBox="0 0 28 28" version="1.1" xmlns="http://www.w3.org/2000/svg" xmlns:xlink="http://www.w3.org/1999/xlink">
    <!-- Generator: Sketch 50.2 (55047) - http://www.bohemiancoding.com/sketch -->
    <title>Group 77</title>
    <desc>Created with Sketch.</desc>
    <defs></defs>
    <g id="Page-1" stroke="none" stroke-width="1" fill="none" fill-rule="evenodd">
        <g id="1_Homepage-Copy-4" transform="translate(-115.000000, -1723.000000)">
            <g id="Group-77" transform="translate(115.000000, 1723.000000)">
                <g id="Group-66">
                    <circle id="Oval-6-Copy-3" stroke="#2D297C" cx="14" cy="14" r="13.5"></circle>
                    <path d="M9.5,16 C9.224,16 9,16.225 9,16.501 C9,16.776 9.224,17 9.5,17 C9.775,17 10,16.776 10,16.501 C10,16.225 9.775,16 9.5,16 Z M9.5,18 C8.672,18 8,17.329 8,16.501 C8,15.672 8.672,15 9.5,15 C10.328,15 11,15.672 11,16.501 C11,17.329 10.328,18 9.5,18 Z M18.5,16 C18.224,16 18,16.225 18,16.501 C18,16.776 18.224,17 18.5,17 C18.775,17 19,16.776 19,16.501 C19,16.225 18.775,16 18.5,16 Z M18.5,18 C17.672,18 17,17.329 17,16.501 C17,15.672 17.672,15 18.5,15 C19.328,15 20,15.672 20,16.501 C20,17.329 19.328,18 18.5,18 Z M21,18.002 L20.999,18.002 L21,18 L21,15 C21,14.448 20.552,14 20,14 L8,14 C7.447,14 7,14.448 7,15 L7,18 L7,18.002 L7,19.002 L7.75,19.002 L7.75,18.966 C7.83,18.986 7.913,19 8,19 L20,19 C20.087,19 20.169,18.986 20.25,18.966 L20.25,19.002 L21,19.002 L21,18.002 Z M19,9 C19,7.896 18.104,7 17,7 L11,7 C9.895,7 9,7.896 9,9 L8.199,13 L19.8,13 L19,9 Z M21,20 L21,21.5 C21,21.777 20.775,22.001 20.5,22.001 C20.224,22.001 20,21.777 20,21.5 L20,20 L8,20 L8,21.5 C8,21.777 7.775,22.001 7.5,22.001 C7.224,22.001 7,21.777 7,21.5 L7,20 L6,20 L6,18 L6,15 C6,14.196 6.478,13.508 7.162,13.189 L8,9 C8,7.344 9.343,6 11,6 L17,6 C18.656,6 20,7.344 20,9 L20.838,13.189 C21.522,13.508 22,14.196 22,15 L22,18 L22,20 L21,20 Z" id="Fill-145" fill="#2D297C"></path>
                </g>
            </g>
        </g>
    </g>
</svg>