<?xml version="1.0" encoding="UTF-8"?>
<svg width="28px" height="28px" viewBox="0 0 28 28" version="1.1" xmlns="http://www.w3.org/2000/svg" xmlns:xlink="http://www.w3.org/1999/xlink">
    <!-- Generator: Sketch 50.2 (55047) - http://www.bohemiancoding.com/sketch -->
    <title>Group 76</title>
    <desc>Created with Sketch.</desc>
    <defs></defs>
    <g id="Page-1" stroke="none" stroke-width="1" fill="none" fill-rule="evenodd">
        <g id="1_Homepage-Copy-4" transform="translate(-109.000000, -2520.000000)">
            <g id="Group-76" transform="translate(109.000000, 2520.000000)">
                <circle id="Oval-6-Copy-3" stroke="#2D297C" cx="14" cy="14" r="13.5"></circle>
                <path d="M18.667,8 L19.334,8 C19.702,8 20,8.299 20,8.667 L20,9.333 C20,9.701 19.702,9.999 19.334,9.999 L18.667,9.999 C18.299,9.999 18,9.701 18,9.333 L18,8.667 C18,8.299 18.299,8 18.667,8 Z M18.667,12.999 L19.334,12.999 C19.702,12.999 20,13.298 20,13.666 L20,14.333 C20,14.701 19.702,15 19.334,15 L18.667,15 C18.299,15 18,14.701 18,14.333 L18,13.666 C18,13.298 18.299,12.999 18.667,12.999 Z M19.334,19.999 L18.667,19.999 C18.299,19.999 18,19.702 18,19.333 L18,18.667 C18,18.298 18.299,18 18.667,18 L19.334,18 C19.702,18 20,18.298 20,18.667 L20,19.333 C20,19.702 19.702,19.999 19.334,19.999 Z M21,17 L9.5,17 C9.224,17 9,16.776 9,16.5 C9,16.224 9.224,15.999 9.5,15.999 L21,15.999 L21,12 L9.5,12 C9.224,12 9,11.776 9,11.5 C9,11.224 9.224,11.001 9.5,11.001 L21,11.001 L21,7.499 C21,7.224 20.776,7 20.5,7 L8.5,7 C8.224,7 8,7.224 8,7.499 L8,20.5 C8,20.776 8.224,21 8.5,21 L20.5,21 C20.776,21 21,20.776 21,20.5 L21,17 Z M21,22 L8,22 C7.448,22 7,21.553 7,21 L7,7 C7,6.447 7.448,6 8,6 L21,6 C21.553,6 22,6.447 22,7 L22,21 C22,21.553 21.553,22 21,22 Z" id="Fill-352" fill="#2D297C"></path>
            </g>
        </g>
    </g>
</svg>