<?xml version="1.0" encoding="UTF-8"?>
<svg width="28px" height="28px" viewBox="0 0 28 28" version="1.1" xmlns="http://www.w3.org/2000/svg" xmlns:xlink="http://www.w3.org/1999/xlink">
    <!-- Generator: Sketch 50.2 (55047) - http://www.bohemiancoding.com/sketch -->
    <title>Group 75</title>
    <desc>Created with Sketch.</desc>
    <defs></defs>
    <g id="Page-1" stroke="none" stroke-width="1" fill="none" fill-rule="evenodd">
        <g id="1_Homepage-Copy-4" transform="translate(-116.000000, -3056.000000)">
            <g id="Group-75" transform="translate(116.000000, 3056.000000)">
                <g id="Group-64">
                    <circle id="Oval-6-Copy-5" stroke="#2D297C" cx="14" cy="14" r="13.5"></circle>
                    <path d="M21,17.999 L7,17.999 L7,19.999 L8,19.999 L20,19.999 L21,19.999 L21,17.999 Z M20,13.5 L20,14 L8,14 L8,13.5 L7,17 L21,17 L20,13.5 Z M19,10 L17,10 L17,10.5 C17,10.776 16.775,10.999 16.5,10.999 L11.5,10.999 C11.224,10.999 11,10.776 11,10.5 L11,10 L9,10 L8.143,12.999 L19.856,12.999 L19,10 Z M12,10 L16,10 L16,9 L12,9 L12,10 Z M19,7.5 C19,7.224 18.775,6.999 18.5,6.999 L9.5,6.999 C9.224,6.999 9,7.224 9,7.5 L9,8.499 C9,8.776 9.224,9 9.5,9 L11,9 L11,8.499 C11,8.224 11.224,8 11.5,8 L16.5,8 C16.775,8 17,8.224 17,8.499 L17,9 L18.5,9 C18.775,9 19,8.776 19,8.499 L19,7.5 Z M21,21 L21,21.999 L20,21.999 L20,21 L8,21 L8,21.999 L7,21.999 L7,21 L6,21 L6,17 L6.223,17 L8,9 L8,6.999 C8,6.448 8.447,6 9,6 L19,6 C19.552,6 20,6.448 20,6.999 L20,9 L21.777,17 L22,17 L22,21 L21,21 Z" id="Fill-121" fill="#2D297C"></path>
                </g>
            </g>
        </g>
    </g>
</svg>