<?xml version="1.0" encoding="UTF-8"?>
<svg width="28px" height="28px" viewBox="0 0 28 28" version="1.1" xmlns="http://www.w3.org/2000/svg" xmlns:xlink="http://www.w3.org/1999/xlink">
    <!-- Generator: Sketch 50.2 (55047) - http://www.bohemiancoding.com/sketch -->
    <title>Group 74</title>
    <desc>Created with Sketch.</desc>
    <defs></defs>
    <g id="Page-1" stroke="none" stroke-width="1" fill="none" fill-rule="evenodd">
        <g id="1_Homepage-Copy-4" transform="translate(-110.000000, -3661.000000)">
            <g id="Group-74" transform="translate(110.000000, 3661.000000)">
                <path d="M20.9948167,17.9958686 L20.9948167,16.9953355 L20.9948167,11.9976678 L17.9972522,11.9976678 L17.9972522,15.9968015 L17.9972522,16.9953355 L16.9980641,16.9953355 L13.0013114,16.9953355 L13.0013114,18.9944026 L17.9902579,18.9944026 L19.4960345,20.5006997 L20.9948167,19.0013993 L20.9948167,17.9958686 Z M13.0013114,15.9968015 L16.9980641,15.9968015 L16.9980641,11.9976678 L13.0013114,11.9976678 L13.0013114,15.9968015 Z M16.9980641,10.4983674 L16.9980641,7.99953355 L7.00618248,7.99953355 L7.00618248,13.9967349 L7.00618248,14.9962684 L7.00618248,16.0027987 L8.50496472,17.5010995 L10.0097421,15.9968015 L12.0021233,15.9968015 L12.0021233,10.9981342 L16.9980641,10.9981342 L16.9980641,10.4983674 Z M19.4960345,22 L17.491663,19.9949357 L12.0021233,19.9949357 L12.0021233,16.996335 L10.508337,16.996335 L8.50496472,19.0003998 L6,16.4955687 L6.00699432,16.4955687 L6.00699432,13.9967349 L6.00699432,7 L17.9972522,7 L17.9972522,10.4983674 L17.9972522,10.9981342 L21.9940049,10.9981342 L21.9940049,17.9958686 L21.9940049,18.0018658 L21.9940049,19.4941694 L22,19.4941694 L19.4960345,22 Z" id="Fill-457" fill="#2D297C"></path>
                <circle id="Oval-6" stroke="#2D297C" cx="14" cy="14" r="13.5"></circle>
            </g>
        </g>
    </g>
</svg>