<?xml version="1.0" encoding="UTF-8"?>
<svg width="28px" height="28px" viewBox="0 0 28 28" version="1.1" xmlns="http://www.w3.org/2000/svg" xmlns:xlink="http://www.w3.org/1999/xlink">
    <!-- Generator: Sketch 50.2 (55047) - http://www.bohemiancoding.com/sketch -->
    <title>Group 72</title>
    <desc>Created with Sketch.</desc>
    <defs></defs>
    <g id="Page-1" stroke="none" stroke-width="1" fill="none" fill-rule="evenodd">
        <g id="1_Homepage-Copy-4" transform="translate(-112.000000, -4113.000000)">
            <g id="Group-72" transform="translate(112.000000, 4113.000000)">
                <path d="M17,18.002 L18,18.002 L18,17.002 L17,17.002 L17,18.002 Z M14,20 L15,20 L15,19 L14,19 L14,20 Z M9,15 L10,15 L10,14 L9,14 L9,15 Z M11,11.002 L12,11.002 L12,10.002 L11,10.002 L11,11.002 Z M11,18.002 L12,18.002 L12,17.002 L11,17.002 L11,18.002 Z M17,11.002 L18,11.002 L18,10.002 L17,10.002 L17,11.002 Z M14,15 L14,14 L14,9 L15,9 L15,14 L19,14 L19,15 L15,15 L14,15 Z M14.5,8 C10.909,8 8,10.911 8,14.5 C8,18.091 10.909,21 14.5,21 C18.089,21 21,18.091 21,14.5 C21,10.911 18.089,8 14.5,8 Z M14.5,22 C10.357,22 7,18.643 7,14.5 C7,10.358 10.357,7 14.5,7 C18.642,7 22,10.358 22,14.5 C22,18.643 18.642,22 14.5,22 Z" id="Fill-82" fill="#2D297C"></path>
                <circle id="Oval-6" stroke="#2D297C" cx="14" cy="14" r="13.5"></circle>
            </g>
        </g>
    </g>
</svg>