<?xml version="1.0" encoding="UTF-8"?>
<svg width="439px" height="356px" viewBox="0 0 439 356" version="1.1" xmlns="http://www.w3.org/2000/svg" xmlns:xlink="http://www.w3.org/1999/xlink">
    <!-- Generator: Sketch 50.2 (55047) - http://www.bohemiancoding.com/sketch -->
    <title>Group</title>
    <desc>Created with Sketch.</desc>
    <defs></defs>
    <g id="Page-1" stroke="none" stroke-width="1" fill="none" fill-rule="evenodd">
        <g id="00_Home" transform="translate(-166.000000, -132.000000)">
            <g id="Group" transform="translate(168.000000, 134.000000)">
                <polygon id="Fill-1" fill="#FFFFFF" points="0 109.2 0 207.6 70.8650138 207.6 70.8650138 120.59247 47.7798534 109.2"></polygon>
                <polyline id="Stroke-2" stroke="#2D297C" stroke-width="2.4" points="70.8650138 120.59247 70.8650138 207.6 0 207.6 0 109.2 47.7774547 109.2"></polyline>
                <polygon id="Fill-4" fill="#FFFFFF" points="10.8099174 129.6 20.4187328 129.6 20.4187328 120 10.8099174 120"></polygon>
                <polygon id="Stroke-5" stroke="#2D297C" stroke-width="2.4" points="10.8099174 129.6 20.4187328 129.6 20.4187328 120 10.8099174 120"></polygon>
                <path d="M26.4242424,121.2 L60.0550964,121.2 L26.4242424,121.2 Z" id="Fill-6" fill="#FFFFFF"></path>
                <path d="M26.4242424,121.2 L60.0550964,121.2" id="Stroke-7" stroke="#2D297C" stroke-width="2.4"></path>
                <path d="M26.4242424,128.4 L46.8429752,128.4 L26.4242424,128.4 Z" id="Fill-8" fill="#FFFFFF"></path>
                <path d="M26.4242424,128.4 L46.8429752,128.4" id="Stroke-9" stroke="#2D297C" stroke-width="2.4"></path>
                <polygon id="Fill-10" fill="#FFFFFF" points="10.8099174 151.2 20.4187328 151.2 20.4187328 141.6 10.8099174 141.6"></polygon>
                <polygon id="Stroke-11" stroke="#2D297C" stroke-width="2.4" points="10.8099174 151.2 20.4187328 151.2 20.4187328 141.6 10.8099174 141.6"></polygon>
                <path d="M26.4242424,142.8 L60.0550964,142.8 L26.4242424,142.8 Z" id="Fill-12" fill="#FFFFFF"></path>
                <path d="M26.4242424,142.8 L60.0550964,142.8" id="Stroke-13" stroke="#2D297C" stroke-width="2.4"></path>
                <path d="M26.4242424,150 L46.8429752,150 L26.4242424,150 Z" id="Fill-14" fill="#FFFFFF"></path>
                <path d="M26.4242424,150 L46.8429752,150" id="Stroke-15" stroke="#2D297C" stroke-width="2.4"></path>
                <polygon id="Fill-16" fill="#FFFFFF" points="10.8099174 171.6 20.4187328 171.6 20.4187328 162 10.8099174 162"></polygon>
                <polygon id="Stroke-17" stroke="#2D297C" stroke-width="2.4" points="10.8099174 171.6 20.4187328 171.6 20.4187328 162 10.8099174 162"></polygon>
                <path d="M26.4242424,163.2 L60.0550964,163.2 L26.4242424,163.2 Z" id="Fill-18" fill="#FFFFFF"></path>
                <path d="M26.4242424,163.2 L60.0550964,163.2" id="Stroke-19" stroke="#2D297C" stroke-width="2.4"></path>
                <path d="M26.4242424,170.4 L46.8429752,170.4 L26.4242424,170.4 Z" id="Fill-20" fill="#FFFFFF"></path>
                <path d="M26.4242424,170.4 L46.8429752,170.4" id="Stroke-21" stroke="#2D297C" stroke-width="2.4"></path>
                <polygon id="Fill-22" fill="#FFFFFF" points="10.8099174 192 20.4187328 192 20.4187328 182.4 10.8099174 182.4"></polygon>
                <polygon id="Stroke-23" stroke="#2D297C" stroke-width="2.4" points="10.8099174 192 20.4187328 192 20.4187328 182.4 10.8099174 182.4"></polygon>
                <path d="M26.4242424,183.6 L60.0550964,183.6 L26.4242424,183.6 Z" id="Fill-24" fill="#FFFFFF"></path>
                <path d="M26.4242424,183.6 L60.0550964,183.6" id="Stroke-25" stroke="#2D297C" stroke-width="2.4"></path>
                <path d="M26.4242424,190.8 L46.8429752,190.8 L26.4242424,190.8 Z" id="Fill-26" fill="#FFFFFF"></path>
                <path d="M26.4242424,190.8 L46.8429752,190.8" id="Stroke-27" stroke="#2D297C" stroke-width="2.4"></path>
                <g id="Group-30" transform="translate(54.049587, 98.400000)">
                    <polyline id="Fill-28" fill="#FFFFFF" points="0.393961433 7.93752 7.64621488 15.90552 23.8178512 0.94872"></polyline>
                    <polyline id="Stroke-29" stroke="#2D297C" stroke-width="2.4" points="0.393961433 7.93752 7.64621488 15.90552 23.8178512 0.94872"></polyline>
                </g>
                <g id="Group-153" transform="translate(91.283747, 0.000000)">
                    <g id="Group-34" transform="translate(0.000000, 75.600000)">
                        <path d="M90.2808264,64.5672 L90.2808264,0.0648 L23.7854215,0.0648 L23.708551,0.0648 L23.708551,0.072 C11.1306116,0.2952 0.94046281,11.0472 0.695438017,24.2424 L0.657002755,64.5672 L90.6843967,64.5672" id="Fill-31" fill="#FFFFFF"></path>
                        <path d="M90.2808264,64.5672 L90.2808264,0.0648 L23.7854215,0.0648 L23.708551,0.0648 L23.708551,0.072 C11.1306116,0.2952 0.94046281,11.0472 0.695438017,24.2424 L0.657002755,64.5672 L90.6843967,64.5672" id="Stroke-33" stroke="#2D297C" stroke-width="2.4"></path>
                    </g>
                    <g id="Group-38" transform="translate(20.418733, 75.600000)">
                        <path d="M2.32341157,0.11184 C15.0238634,0.11184 18.5959405,10.85184 18.9466623,24.10224 L19.0163262,178.98384 L19.0163262,180.38784 C19.7081609,193.29264 29.8622766,203.54304 42.3249102,203.54304 L156.48004,203.54304 L156.48004,21.46464 C155.682508,10.30704 147.101836,1.40064 136.094938,0.06384 L19.0163262,0.06384 L19.0163262,0.07104 L0.874882645,0.07104" id="Fill-35" fill="#FFFFFF"></path>
                        <path d="M2.32341157,0.11184 C15.0238634,0.11184 18.5959405,10.85184 18.9466623,24.10224 L19.0163262,178.98384 L19.0163262,180.38784 C19.7081609,193.29264 29.8622766,203.54304 42.3249102,203.54304 L156.48004,203.54304 L156.48004,21.46464 C155.682508,10.30704 147.101836,1.40064 136.094938,0.06384 L19.0163262,0.06384 L19.0163262,0.07104 L0.874882645,0.07104" id="Stroke-37" stroke="#2D297C" stroke-width="2.4"></path>
                    </g>
                    <g id="Group-42" transform="translate(58.853994, 254.400000)">
                        <path d="M128.011041,0.3228 L115.493157,0.3228 L91.6969256,0.3228 L24.2166171,0.3228 C24.1973994,13.8156 13.8246832,24.7956 0.992110193,24.8844 L121.04465,24.8844 C129.603702,24.81 137.069752,19.8924 141.083835,12.6156" id="Fill-39" fill="#FFFFFF"></path>
                        <path d="M128.011041,0.3228 L115.493157,0.3228 L91.6969256,0.3228 L24.2166171,0.3228 C24.1973994,13.8156 13.8246832,24.7956 0.992110193,24.8844 L121.04465,24.8844 C129.603702,24.81 137.069752,19.8924 141.083835,12.6156" id="Stroke-41" stroke="#2D297C" stroke-width="2.4"></path>
                    </g>
                    <g id="Group-46" transform="translate(60.055096, 115.200000)">
                        <path d="M29.9417895,0.40704 L0.757414876,0.40704" id="Fill-43" fill="#FFFFFF"></path>
                        <path d="M29.9417895,0.40704 L0.757414876,0.40704" id="Stroke-45" stroke="#2D297C" stroke-width="2.4"></path>
                    </g>
                    <g id="Group-50" transform="translate(60.055096, 126.000000)">
                        <path d="M102.182545,0.16104 L0.756694215,0.16104" id="Fill-47" fill="#FFFFFF"></path>
                        <path d="M102.182545,0.16104 L0.756694215,0.16104" id="Stroke-49" stroke="#2D297C" stroke-width="2.4"></path>
                    </g>
                    <g id="Group-54" transform="translate(60.055096, 135.600000)">
                        <path d="M102.182545,1.11504 L0.756694215,1.11504" id="Fill-51" fill="#FFFFFF"></path>
                        <path d="M102.182545,1.11504 L0.756694215,1.11504" id="Stroke-53" stroke="#2D297C" stroke-width="2.4"></path>
                    </g>
                    <g id="Group-58" transform="translate(60.055096, 146.400000)">
                        <path d="M102.182545,0.8688 L0.756694215,0.8688" id="Fill-55" fill="#FFFFFF"></path>
                        <path d="M102.182545,0.8688 L0.756694215,0.8688" id="Stroke-57" stroke="#2D297C" stroke-width="2.4"></path>
                    </g>
                    <g id="Group-62" transform="translate(60.055096, 157.200000)">
                        <path d="M102.182545,0.6228 L0.756694215,0.6228" id="Fill-59" fill="#FFFFFF"></path>
                        <path d="M102.182545,0.6228 L0.756694215,0.6228" id="Stroke-61" stroke="#2D297C" stroke-width="2.4"></path>
                    </g>
                    <g id="Group-66" transform="translate(60.055096, 168.000000)">
                        <path d="M102.182545,0.37656 L0.756694215,0.37656" id="Fill-63" fill="#FFFFFF"></path>
                        <path d="M102.182545,0.37656 L0.756694215,0.37656" id="Stroke-65" stroke="#2D297C" stroke-width="2.4"></path>
                    </g>
                    <g id="Group-70" transform="translate(60.055096, 178.800000)">
                        <path d="M102.182545,0.13056 L0.756694215,0.13056" id="Fill-67" fill="#FFFFFF"></path>
                        <path d="M102.182545,0.13056 L0.756694215,0.13056" id="Stroke-69" stroke="#2D297C" stroke-width="2.4"></path>
                    </g>
                    <g id="Group-74" transform="translate(60.055096, 188.400000)">
                        <path d="M102.182545,1.08456 L0.756694215,1.08456" id="Fill-71" fill="#FFFFFF"></path>
                        <path d="M102.182545,1.08456 L0.756694215,1.08456" id="Stroke-73" stroke="#2D297C" stroke-width="2.4"></path>
                    </g>
                    <g id="Group-78" transform="translate(60.055096, 199.200000)">
                        <path d="M102.182545,0.83832 L0.756694215,0.83832" id="Fill-75" fill="#FFFFFF"></path>
                        <path d="M102.182545,0.83832 L0.756694215,0.83832" id="Stroke-77" stroke="#2D297C" stroke-width="2.4"></path>
                    </g>
                    <g id="Group-82" transform="translate(130.920110, 210.000000)">
                        <path d="M31.3175317,0.59232 L0.76630303,0.59232" id="Fill-79" fill="#FFFFFF"></path>
                        <path d="M31.3175317,0.59232 L0.76630303,0.59232" id="Stroke-81" stroke="#2D297C" stroke-width="2.4"></path>
                    </g>
                    <g id="Group-86" transform="translate(186.170799, 229.200000)">
                        <path d="M3.8096551,12.92976 L0.693996694,0.56976" id="Fill-83" fill="#FFFFFF"></path>
                        <path d="M3.8096551,12.92976 L0.693996694,0.56976" id="Stroke-85" stroke="#2D297C" stroke-width="2.4" stroke-linecap="round" stroke-linejoin="round"></path>
                    </g>
                    <g id="Group-90" transform="translate(189.774105, 212.400000)">
                        <path d="M0.670695317,3.72816 L5.3285686,0.15216" id="Fill-87" fill="#FFFFFF"></path>
                        <path d="M0.670695317,3.72816 L5.3285686,0.15216" id="Stroke-89" stroke="#2D297C" stroke-width="2.4" stroke-linecap="round" stroke-linejoin="round"></path>
                    </g>
                    <g id="Group-94" transform="translate(158.545455, 184.800000)">
                        <path d="M56.9348738,20.0736 C56.9348738,20.0736 54.4630061,18.1824 51.0518766,15.5952 C43.8692871,10.068 32.485243,1.428 31.8750832,1.1352 L31.3730226,0.9336 C28.9299813,0.0576 25.9320309,0.4992 23.5442402,2.3016 C23.5442402,2.3016 -1.05672948,28.128 1.3598876,31.2984 C3.80533113,34.5 8.69862039,34.8792 12.2490777,32.1408 L28.0291548,17.8056 L29.5113146,19.26 L36.5593807,27.7512 L38.0463449,29.5248" id="Fill-91" fill="#FFFFFF"></path>
                        <path d="M56.9348738,20.0736 C56.9348738,20.0736 54.4630061,18.1824 51.0518766,15.5952 C43.8692871,10.068 32.485243,1.428 31.8750832,1.1352 L31.3730226,0.9336 C28.9299813,0.0576 25.9320309,0.4992 23.5442402,2.3016 C23.5442402,2.3016 -1.05672948,28.128 1.3598876,31.2984 C3.80533113,34.5 8.69862039,34.8792 12.2490777,32.1408 L28.0291548,17.8056 L29.5113146,19.26 L36.5593807,27.7512 L38.0463449,29.5248" id="Stroke-93" stroke="#2D297C" stroke-width="2.4" stroke-linecap="round" stroke-linejoin="round"></path>
                    </g>
                    <g id="Group-98" transform="translate(214.997245, 204.000000)">
                        <path d="M2.69767493,2.53056 L0.482842975,0.87456" id="Fill-95" fill="#FFFFFF"></path>
                        <path d="M2.69767493,2.53056 L0.482842975,0.87456" id="Stroke-97" stroke="#2D297C" stroke-width="2.4" stroke-linecap="round" stroke-linejoin="round"></path>
                    </g>
                    <g id="Group-102" transform="translate(189.774105, 217.200000)">
                        <path d="M1.13984573,46.85784 L8.23835813,51.59784 C17.993708,58.14264 31.3499614,56.83224 31.3499614,56.83224 L39.7384573,66.49224 L56.738854,54.80184 L70.2776749,45.60744 L72.6342369,44.00904 L72.576584,43.94904 L40.9299504,0.99384" id="Fill-99" fill="#FFFFFF"></path>
                        <path d="M1.13984573,46.85784 L8.23835813,51.59784 C17.993708,58.14264 31.3499614,56.83224 31.3499614,56.83224 L39.7384573,66.49224 L56.738854,54.80184 L70.2776749,45.60744 L72.6342369,44.00904 L72.576584,43.94904 L40.9299504,0.99384" id="Stroke-101" stroke="#2D297C" stroke-width="2.4" stroke-linecap="round" stroke-linejoin="round"></path>
                    </g>
                    <g id="Group-106" transform="translate(193.377410, 224.400000)">
                        <path d="M8.44975207,0.9204 C8.82930028,6.1236 8.82930028,13.6548 5.94905785,16.9164 C4.40444077,18.4572 2.39619835,18.8028 0.474435262,18.6612" id="Fill-103" fill="#FFFFFF"></path>
                        <path d="M8.44975207,0.9204 C8.82930028,6.1236 8.82930028,13.6548 5.94905785,16.9164 C4.40444077,18.4572 2.39619835,18.8028 0.474435262,18.6612" id="Stroke-105" stroke="#2D297C" stroke-width="2.4" stroke-linecap="round" stroke-linejoin="round"></path>
                    </g>
                    <polygon id="Fill-107" fill="#FFFFFF" points="219.937618 221.38992 211.638003 223.86432 208.695304 214.00272 207.390907 209.61552 217.693959 206.53152 251.870113 196.34832 252.043072 196.29312 256.294973 210.57312 230.704295 218.19312"></polygon>
                    <polygon id="Stroke-109" stroke="#2D297C" stroke-width="2.4" stroke-linecap="round" stroke-linejoin="round" points="219.937618 221.38992 211.638003 223.86432 208.695304 214.00272 207.390907 209.61552 217.693959 206.53152 251.870113 196.34832 252.043072 196.29312 256.294973 210.57312 230.704295 218.19312"></polygon>
                    <path d="M262.5813,200.91504 C261.418634,197.04624 256.791989,194.98224 252.278248,196.31904 L256.467691,210.39744 C261.015063,209.03424 263.717543,204.81504 262.5813,200.91504" id="Fill-111" fill="#FFFFFF"></path>
                    <path d="M262.5813,200.91504 C261.418634,197.04624 256.791989,194.98224 252.278248,196.31904 L256.467691,210.39744 C261.015063,209.03424 263.717543,204.81504 262.5813,200.91504 Z" id="Stroke-113" stroke="#2D297C" stroke-width="2.4" stroke-linecap="round" stroke-linejoin="round"></path>
                    <g id="Group-118" transform="translate(166.953168, 210.000000)">
                        <polyline id="Fill-115" fill="#FFFFFF" points="0.0888815427 13.11024 23.4911515 6.12864 29.6383912 4.32624 38.2791185 1.73664 40.6957355 1.00944 41.5413113 3.88704 44.1308871 12.55584 34.8727934 15.32064 19.9118678 19.76784 11.8476694 22.17984"></polyline>
                        <polyline id="Stroke-117" stroke="#2D297C" stroke-width="2.4" stroke-linecap="round" stroke-linejoin="round" points="0.0888815427 13.11024 23.4911515 6.12864 29.6383912 4.32624 38.2791185 1.73664 40.6957355 1.00944 41.5413113 3.88704 44.1308871 12.55584 34.8727934 15.32064 19.9118678 19.76784 11.8476694 22.17984"></polyline>
                    </g>
                    <g id="Group-122" transform="translate(135.724518, 224.400000)">
                        <polyline id="Fill-119" fill="#FFFFFF" points="27.5033124 12.40488 3.69266777 19.50408 0.252711846 7.98648 24.5341884 0.74568"></polyline>
                        <polyline id="Stroke-121" stroke="#2D297C" stroke-width="2.4" stroke-linecap="round" stroke-linejoin="round" points="27.5033124 12.40488 3.69266777 19.50408 0.252711846 7.98648 24.5341884 0.74568"></polyline>
                    </g>
                    <polygon id="Fill-123" fill="#FFFFFF" points="138.7131 244.04928 119.615579 243.52368 135.306775 232.64448"></polygon>
                    <polygon id="Stroke-125" stroke="#2D297C" stroke-width="2.4" stroke-linecap="round" stroke-linejoin="round" points="138.7131 244.04928 119.615579 243.52368 135.306775 232.64448"></polygon>
                    <polyline id="Stroke-127" stroke="#2D297C" stroke-width="2.4" points="252.423581 198.21264 251.871074 196.35024 249.543339 188.52624 209.597091 200.39424 200.841058 203.01024"></polyline>
                    <g id="Group-132" transform="translate(156.143251, 222.000000)">
                        <path d="M37.7078744,21.06024 C37.6526237,21.06024 37.5613399,21.06024 37.5060893,21.03144 C37.4460342,21.03144 37.3595548,21.03144 37.2994997,21.00504 C36.9800066,20.97384 36.6581113,20.91384 36.3386182,20.85624 C35.4978468,20.68584 34.709924,20.45064 34.0156871,20.21544 C33.955632,20.18904 33.8931747,20.16024 33.837924,20.16024 L33.837924,20.12904 C32.8746402,19.77864 32.1203482,19.40184 31.7408,19.19544 L22.655665,10.18104 L15.0334722,2.59224 C14.7980562,2.39064 13.4336044,1.16664 10.8992793,1.10904 L10.7263207,1.10904 C8.4490314,1.10904 6.41916915,1.57464 4.11545565,3.14424 C3.06329036,3.84264 1.95587438,4.80264 0.740359229,6.02184 C0.24310303,6.51624 0.24310303,7.30344 0.709130579,7.82664 L7.08457961,14.80584 L27.2318634,36.94104 C27.3447669,37.05864 28.4786072,38.07624 30.3427174,39.00744 L30.3427174,39.12264 L34.7699791,42.05784" id="Fill-129" fill="#FFFFFF"></path>
                        <path d="M37.7078744,21.06024 C37.6526237,21.06024 37.5613399,21.06024 37.5060893,21.03144 C37.4460342,21.03144 37.3595548,21.03144 37.2994997,21.00504 C36.9800066,20.97384 36.6581113,20.91384 36.3386182,20.85624 C35.4978468,20.68584 34.709924,20.45064 34.0156871,20.21544 C33.955632,20.18904 33.8931747,20.16024 33.837924,20.16024 L33.837924,20.12904 C32.8746402,19.77864 32.1203482,19.40184 31.7408,19.19544 L22.655665,10.18104 L15.0334722,2.59224 C14.7980562,2.39064 13.4336044,1.16664 10.8992793,1.10904 L10.7263207,1.10904 C8.4490314,1.10904 6.41916915,1.57464 4.11545565,3.14424 C3.06329036,3.84264 1.95587438,4.80264 0.740359229,6.02184 C0.24310303,6.51624 0.24310303,7.30344 0.709130579,7.82664 L7.08457961,14.80584 L27.2318634,36.94104 C27.3447669,37.05864 28.4786072,38.07624 30.3427174,39.00744 L30.3427174,39.12264 L34.7699791,42.05784" id="Stroke-131" stroke="#2D297C" stroke-width="2.4" stroke-linecap="round" stroke-linejoin="round"></path>
                    </g>
                    <polygon id="Fill-133" fill="#FFFFFF" points="260.0525 262.80864 222.842363 289.50624 228.316985 297.12624 271.931398 265.83504 266.456776 258.21504 262.351409 261.15024"></polygon>
                    <polygon id="Stroke-135" stroke="#2D297C" stroke-width="2.4" stroke-linecap="round" stroke-linejoin="round" points="260.0525 262.80864 222.842363 289.50624 228.316985 297.12624 271.931398 265.83504 266.456776 258.21504 262.351409 261.15024"></polygon>
                    <g id="Group-140" transform="translate(222.203857, 265.200000)">
                        <polyline id="Fill-137" fill="#FFFFFF" points="122.413666 88.03296 49.9872198 0.98256 0.379307989 36.58176 39.5328287 88.03296"></polyline>
                        <polyline id="Stroke-139" stroke="#2D297C" stroke-width="2.4" points="122.413666 88.03296 49.9872198 0.98256 0.379307989 36.58176 39.5328287 88.03296"></polyline>
                    </g>
                    <path d="M266.775788,282.20784 C266.775788,280.17024 268.435711,278.51184 270.47278,278.51184 C272.514653,278.51184 274.164967,280.17024 274.164967,282.20784 C274.164967,284.24544 272.514653,285.87264 270.47278,285.87264 C268.435711,285.87264 266.775788,284.24544 266.775788,282.20784" id="Fill-141" fill="#FFFFFF"></path>
                    <path d="M266.775788,282.20784 C266.775788,280.17024 268.435711,278.51184 270.47278,278.51184 C272.514653,278.51184 274.164967,280.17024 274.164967,282.20784 C274.164967,284.24544 272.514653,285.87264 270.47278,285.87264 C268.435711,285.87264 266.775788,284.24544 266.775788,282.20784 Z" id="Stroke-143" stroke="#2D297C" stroke-width="2.4" stroke-linecap="round" stroke-linejoin="round"></path>
                    <g id="Group-148" transform="translate(180.165289, 0.000000)">
                        <path d="M24.2706667,51.0744 C22.872584,50.7288 21.5033278,50.3256 20.1653003,49.8456 L5.34370248,59.6496 L9.62683196,44.0544 C3.67897521,39.2592 0.308683196,32.8992 0.308683196,26.2848 C0.308683196,11.8824 16.0311074,0.1608 35.3616419,0.1608 C54.6825675,0.1608 70.4049917,11.8824 70.4049917,26.2848 C70.4049917,30.6072 68.9924959,34.6848 66.4821928,38.28" id="Fill-145" fill="#FFFFFF"></path>
                        <path d="M24.2706667,51.0744 C22.872584,50.7288 21.5033278,50.3256 20.1653003,49.8456 L5.34370248,59.6496 L9.62683196,44.0544 C3.67897521,39.2592 0.308683196,32.8992 0.308683196,26.2848 C0.308683196,11.8824 16.0311074,0.1608 35.3616419,0.1608 C54.6825675,0.1608 70.4049917,11.8824 70.4049917,26.2848 C70.4049917,30.6072 68.9924959,34.6848 66.4821928,38.28" id="Stroke-147" stroke="#2D297C" stroke-width="2.4"></path>
                    </g>
                    <path d="M240.360915,39.9672 C245.809113,45.4176 246.938149,53.5248 243.772044,60.096 L246.09978,70.7424 L235.501256,68.352 C228.92162,71.5008 220.818986,70.3704 215.37319,64.932 C208.476463,58.0368 208.476463,46.8648 215.37319,39.9672 C222.274722,33.0816 233.459383,33.0816 240.360915,39.9672" id="Fill-149" fill="#FFFFFF"></path>
                    <path d="M240.360915,39.9672 C245.809113,45.4176 246.938149,53.5248 243.772044,60.096 L246.09978,70.7424 L235.501256,68.352 C228.92162,71.5008 220.818986,70.3704 215.37319,64.932 C208.476463,58.0368 208.476463,46.8648 215.37319,39.9672 C222.274722,33.0816 233.459383,33.0816 240.360915,39.9672 Z" id="Stroke-151" stroke="#2D297C" stroke-width="2.4"></path>
                </g>
            </g>
        </g>
    </g>
</svg>