<?xml version="1.0" encoding="UTF-8"?>
<svg width="171px" height="171px" viewBox="0 0 171 171" version="1.1" xmlns="http://www.w3.org/2000/svg" xmlns:xlink="http://www.w3.org/1999/xlink">
    <!-- Generator: Sketch 50.2 (55047) - http://www.bohemiancoding.com/sketch -->
    <title>Group 11</title>
    <desc>Created with Sketch.</desc>
    <defs></defs>
    <g id="Page-1" stroke="none" stroke-width="1" fill="none" fill-rule="evenodd">
        <g id="Group-11" fill="#2D297C">
            <g id="Group-4">
                <path d="M85.5,162.62449 C42.9747429,162.62449 8.3755102,128.025257 8.3755102,85.4972082 C8.3755102,42.9747429 42.9747429,8.3755102 85.5,8.3755102 C128.028049,8.3755102 162.62449,42.9747429 162.62449,85.4972082 C162.62449,128.025257 128.028049,162.62449 85.5,162.62449 M85.5,0 C38.3542531,0 0,38.3514612 0,85.4972082 C0,132.642955 38.3542531,171 85.5,171 C132.645747,171 171,132.642955 171,85.4972082 C171,38.3514612 132.645747,0 85.5,0" id="Fill-46"></path>
                <path d="M52.9517045,49.5511364 C47.8530044,49.5511364 43.7215909,53.6825499 43.7215909,58.7784299 C43.7215909,63.8799501 47.8530044,68.0113636 52.9517045,68.0113636 C58.0504047,68.0113636 62.1818182,63.8799501 62.1818182,58.7784299 C62.1818182,53.6825499 58.0504047,49.5511364 52.9517045,49.5511364" id="Fill-48"></path>
                <path d="M119.019886,49.5511364 C113.921186,49.5511364 109.789773,53.6825499 109.789773,58.7784299 C109.789773,63.8799501 113.921186,68.0113636 119.019886,68.0113636 C124.118586,68.0113636 128.25,63.8799501 128.25,58.7784299 C128.25,53.6825499 124.118586,49.5511364 119.019886,49.5511364" id="Fill-50"></path>
            </g>
        </g>
    </g>
</svg>