<?xml version="1.0" encoding="UTF-8"?>
<svg width="171px" height="185px" viewBox="0 0 171 185" version="1.1" xmlns="http://www.w3.org/2000/svg" xmlns:xlink="http://www.w3.org/1999/xlink">
    <!-- Generator: Sketch 50.2 (55047) - http://www.bohemiancoding.com/sketch -->
    <title>Group 6 Copy</title>
    <desc>Created with Sketch.</desc>
    <defs></defs>
    <g id="Page-1" stroke="none" stroke-width="1" fill="none" fill-rule="evenodd">
        <g id="Group-6-Copy" fill="#2D297C">
            <path d="M52.7317844,88.5823658 C59.3771169,88.5823658 64.781839,93.9870878 64.781839,100.63242 C64.781839,102.938398 66.6510995,104.804877 68.9542955,104.804877 C71.2602732,104.804877 73.1267521,102.938398 73.1267521,100.63242 C73.1267521,89.3862591 63.9779457,80.2374526 52.7317844,80.2374526 C41.4856231,80.2374526 32.334035,89.3862591 32.334035,100.63242 C32.334035,102.938398 34.2032955,104.804877 36.5064916,104.804877 C38.8124692,104.804877 40.6789481,102.938398 40.6789481,100.63242 C40.6789481,93.9870878 46.0864519,88.5823658 52.7317844,88.5823658" id="Fill-131"></path>
            <path d="M118.363692,80.2374526 C107.117531,80.2374526 97.9687241,89.3862591 97.9687241,100.63242 C97.9687241,102.938398 99.835203,104.804877 102.141181,104.804877 C104.444377,104.804877 106.313637,102.938398 106.313637,100.63242 C106.313637,93.9870878 111.718359,88.5823658 118.363692,88.5823658 C125.009024,88.5823658 130.416528,93.9870878 130.416528,100.63242 C130.416528,102.938398 132.283007,104.804877 134.588985,104.804877 C136.892181,104.804877 138.761441,102.938398 138.761441,100.63242 C138.761441,89.3862591 129.609853,80.2374526 118.363692,80.2374526" id="Fill-133"></path>
            <path d="M85.1876551,175.846792 C42.8177494,175.846792 8.34491315,141.373955 8.34491315,99.0040496 C8.34491315,78.6702779 16.2002581,59.6772556 30.2169305,45.4074541 C30.2252754,45.4881216 30.2558734,45.5632258 30.267,45.6438933 C30.4366799,46.9651712 30.6981538,48.2558511 31.0875831,49.4964615 C31.0875831,49.4992432 31.0875831,49.5020248 31.0903648,49.5048065 C31.4770124,50.7481985 31.9860521,51.9359578 32.5729777,53.0764293 C32.6230471,53.171005 32.6647717,53.2739256 32.7148412,53.3685012 C33.2878586,54.444995 33.9582333,55.4602928 34.6925856,56.4255211 C34.7927246,56.5618213 34.8873002,56.6981216 34.9930025,56.8288586 C35.7273548,57.7495806 36.5340298,58.6063251 37.3991191,59.4046551 C37.5465459,59.5381737 37.6856278,59.6689107 37.8358362,59.7996476 C38.7120521,60.5673797 39.6466824,61.2655707 40.6341638,61.8942208 C40.801062,61.9999231 40.9707419,62.0972804 41.1404218,62.200201 C42.152938,62.806598 43.2127419,63.3434541 44.3226154,63.7885161 C44.4839504,63.8524938 44.648067,63.9053449 44.809402,63.9665409 C45.961,64.4004764 47.1487593,64.7537444 48.3810248,64.9929653 C48.495072,65.018 48.6146824,65.0291266 48.7315112,65.048598 C50.030536,65.2822556 51.3629404,65.4241191 52.7315062,65.4241191 C65.2294045,65.4241191 75.399072,55.25167 75.399072,42.7537717 C75.399072,41.8163598 75.2488635,40.7676824 75.0318958,39.6772804 C74.9706998,39.3573921 74.9039404,39.0319404 74.823273,38.6953623 C74.5590174,37.599397 74.2224392,36.4617072 73.7968486,35.2683846 C73.6744566,34.9206799 73.5214665,34.5507221 73.3823846,34.1918908 C72.1362109,30.9373747 70.4338486,27.4464194 68.5395533,24.0110968 C74.0360695,22.7843945 79.6160347,22.1613077 85.1876551,22.1613077 C127.560342,22.1613077 162.030397,56.6341439 162.030397,99.0040496 C162.030397,141.373955 127.560342,175.846792 85.1876551,175.846792 M52.7315062,14.3671588 C54.28366,16.6592283 55.9025732,19.157139 57.4741985,21.7023375 L58.5673821,23.5187469 C59.4575062,24.9957965 60.2363648,26.3476725 60.9540273,27.6244442 C61.0819826,27.8553201 61.209938,28.086196 61.3378933,28.317072 C61.938727,29.4019107 62.4811464,30.4172084 62.9623697,31.3601836 C63.0903251,31.6077494 63.2071538,31.8469702 63.3295459,32.0889727 C63.805206,33.0458561 64.250268,33.9582333 64.6118809,34.7649082 C64.6230074,34.7927246 64.634134,34.8149777 64.6452605,34.8400124 C65.3490149,36.4116377 65.8246749,37.668938 66.1807246,38.7398685 C66.2780819,39.0319404 66.3837841,39.3323573 66.4644516,39.6077395 C66.5812804,40.0055136 66.6814194,40.3726898 66.7565236,40.6981414 C66.9262035,41.4519653 67.0541588,42.1668462 67.0541588,42.7537717 C67.0541588,50.6536228 60.6285757,57.079206 52.7315062,57.079206 C44.8316551,57.079206 38.406072,50.6536228 38.406072,42.7537717 C38.406072,42.214134 38.5368089,41.5437593 38.6814541,40.8594764 C38.9345831,39.7440397 39.4046799,38.2030124 40.3365285,35.9916104 L40.9763052,34.4728362 C43.8080124,28.3031638 48.5117618,20.5952457 52.7315062,14.3671588 M85.1876551,13.8163945 C78.1195136,13.8163945 71.0541538,14.7704963 64.1250943,16.5451811 C60.6369206,10.9735608 57.3740596,6.3866402 56.1056328,4.64255335 L52.7315062,0 L49.3573797,4.64255335 C47.0124591,7.86647146 37.8831241,20.7398908 33.0736725,31.7607395 C12.0528362,48.0611365 0,72.4894789 0,99.0040496 C0,145.974784 38.214139,184.191705 85.1876551,184.191705 C132.161171,184.191705 170.37531,145.974784 170.37531,99.0040496 C170.37531,52.0305335 132.161171,13.8163945 85.1876551,13.8163945" id="Fill-135"></path>
            <path d="M85.1876551,128.209855 C69.9275906,128.209855 55.7356749,134.332239 45.223866,145.447664 C43.6411141,147.12221 43.7134367,149.764766 45.3879826,151.344736 C47.0625285,152.930269 49.7023027,152.852383 51.2850546,151.180619 C60.2057667,141.750867 72.2446948,136.554768 85.1876551,136.554768 C98.133397,136.554768 110.172325,141.750867 119.090256,151.180619 C119.910839,152.04849 121.015149,152.487989 122.122241,152.487989 C123.151447,152.487989 124.183434,152.106904 124.990109,151.344736 C126.664655,149.764766 126.736978,147.12221 125.154226,145.447664 C114.642417,134.332239 100.450501,128.209855 85.1876551,128.209855" id="Fill-137"></path>
        </g>
    </g>
</svg>