<?xml version="1.0" encoding="UTF-8"?>
<svg width="150px" height="70px" viewBox="0 0 150 70" version="1.1" xmlns="http://www.w3.org/2000/svg" xmlns:xlink="http://www.w3.org/1999/xlink">
    <!-- Generator: Sketch 50.2 (55047) - http://www.bohemiancoding.com/sketch -->
    <title>Group 3</title>
    <desc>Created with Sketch.</desc>
    <defs></defs>
    <g id="Page-1" stroke="none" stroke-width="1" fill="none" fill-rule="evenodd">
        <g id="Group-3" fill="#2D297C">
            <path d="M1.32,69.0036 C0.72,69.0036 0.32,68.6036 0.32,68.0036 L0.32,62.8036 C0.32,62.3036 0.42,61.9026 0.52,61.6036 L21.121,8.6996 L21.121,8.4996 L2.32,8.4996 C1.72,8.4996 1.32,8.1006 1.32,7.4996 L1.32,1.9996 C1.32,1.3996 1.72,0.9996 2.32,0.9996 L28.621,0.9996 C29.221,0.9996 29.621,1.3996 29.621,1.9996 L29.621,7.2996 C29.621,7.7996 29.522,8.1996 29.422,8.4996 L8.82,61.3036 L8.82,61.5036 L28.621,61.5036 C29.221,61.5036 29.621,61.9026 29.621,62.5036 L29.621,68.0036 C29.621,68.6036 29.221,69.0036 28.621,69.0036 L1.32,69.0036 Z" id="Fill-10"></path>
            <path d="M39.1198,1.9997 C39.1198,1.3987 39.5198,0.9997 40.1198,0.9997 L65.8218,0.9997 C66.4208,0.9997 66.8218,1.3987 66.8218,1.9997 L66.8218,7.4997 C66.8218,8.1007 66.4208,8.4997 65.8218,8.4997 L47.8198,8.4997 C47.4198,8.4997 47.2198,8.6997 47.2198,9.1007 L47.2198,30.3017 C47.2198,30.7007 47.4198,30.9007 47.8198,30.9007 L63.4208,30.9007 C64.0208,30.9007 64.4208,31.3017 64.4208,31.9007 L64.4208,37.4017 C64.4208,38.0017 64.0208,38.4017 63.4208,38.4017 L47.8198,38.4017 C47.4198,38.4017 47.2198,38.6017 47.2198,39.0017 L47.2198,60.9027 C47.2198,61.3037 47.4198,61.5037 47.8198,61.5037 L65.8218,61.5037 C66.4208,61.5037 66.8218,61.9027 66.8218,62.5037 L66.8218,68.0037 C66.8218,68.6037 66.4208,69.0037 65.8218,69.0037 L40.1198,69.0037 C39.5198,69.0037 39.1198,68.6037 39.1198,68.0037 L39.1198,1.9997 Z" id="Fill-12"></path>
            <path d="M99.1203,20.6003 C99.1203,11.4003 96.1203,8.4993 88.9193,8.4993 L84.6183,8.4993 C84.2193,8.4993 84.0183,8.7003 84.0183,9.1003 L84.0183,32.1013 C84.0183,32.5013 84.2193,32.7023 84.6183,32.7023 L88.9193,32.7023 C95.9193,32.7023 99.1203,29.9013 99.1203,20.6003 Z M101.1203,69.0033 C100.5203,69.0033 100.2203,68.8033 100.0203,68.3033 L91.5193,39.9023 C90.6193,40.0013 89.6193,40.0013 88.7203,40.0013 L84.6183,40.0013 C84.2193,40.0013 84.0183,40.2023 84.0183,40.6023 L84.0183,68.0033 C84.0183,68.6033 83.6183,69.0033 83.0183,69.0033 L76.9193,69.0033 C76.3183,69.0033 75.9193,68.6033 75.9193,68.0033 L75.9193,1.9993 C75.9193,1.3993 76.3183,0.9993 76.9193,0.9993 L88.8193,0.9993 C100.8193,0.9993 107.2203,6.2003 107.2203,20.6003 C107.2203,29.7013 104.2203,35.2023 98.9203,37.9023 L108.4213,68.0033 C108.6203,68.5033 108.4213,69.0033 107.9213,69.0033 L101.1203,69.0033 Z" id="Fill-14"></path>
            <path d="M140.4192,57.5026 C141.0192,55.5026 141.2192,54.0026 141.2192,35.0016 C141.2192,16.0006 141.0192,14.5006 140.4192,12.4996 C139.4192,9.3996 136.8192,7.6996 133.2182,7.6996 C129.6182,7.6996 127.1182,9.3996 126.1182,12.4996 C125.4182,14.5006 125.2182,16.0006 125.2182,35.0016 C125.2182,54.0026 125.4182,55.5026 126.1182,57.5026 C127.1182,60.6036 129.6182,62.3036 133.2182,62.3036 C136.8192,62.3036 139.4192,60.6036 140.4192,57.5026 M118.3172,59.8036 C117.3172,56.8026 117.0182,54.3026 117.0182,35.0016 C117.0182,15.6996 117.3172,13.1996 118.3172,10.1996 C120.4172,3.6996 125.5192,0.0996 133.2182,0.0996 C140.9192,0.0996 146.1192,3.6996 148.1192,10.1996 C149.1202,13.1996 149.4192,15.6996 149.4192,35.0016 C149.4192,54.3026 149.1202,56.8026 148.1192,59.8036 C146.1192,66.3036 140.9192,69.9036 133.2182,69.9036 C125.5192,69.9036 120.4172,66.3036 118.3172,59.8036" id="Fill-16"></path>
        </g>
    </g>
</svg>