<?xml version="1.0" encoding="UTF-8"?>
<svg width="187px" height="68px" viewBox="0 0 187 68" version="1.1" xmlns="http://www.w3.org/2000/svg" xmlns:xlink="http://www.w3.org/1999/xlink">
    <!-- Generator: Sketch 50.2 (55047) - http://www.bohemiancoding.com/sketch -->
    <title>Group 2</title>
    <desc>Created with Sketch.</desc>
    <defs>
        <polygon id="path-1" points="0.787892948 0.0956 53.439 0.0956 53.439 68.0996 0.787892948 68.0996"></polygon>
    </defs>
    <g id="Page-1" stroke="none" stroke-width="1" fill="none" fill-rule="evenodd">
        <g id="Group-2" transform="translate(0.000000, -1.000000)">
            <path d="M24.6164,46.1022 L18.8164,16.5002 L18.5164,16.5002 L12.3164,46.1022 L24.6164,46.1022 Z M14.5154,1.9992 C14.7164,1.3992 15.0154,0.9992 15.6164,0.9992 L21.6164,0.9992 C22.2164,0.9992 22.6164,1.3992 22.7164,1.9992 L37.0174,68.0032 C37.1174,68.6032 36.7174,69.0032 36.1174,69.0032 L30.1164,69.0032 C29.4174,69.0032 29.1164,68.6032 29.0164,68.0032 L26.0164,53.1022 L10.9154,53.1022 L7.9154,68.0032 C7.8154,68.6032 7.5154,69.0032 6.9154,69.0032 L0.9154,69.0032 C0.3154,69.0032 -0.0846,68.6032 0.0154,68.0032 L14.5154,1.9992 Z" id="Fill-1" fill="#2D297C"></path>
            <path d="M64.0129,1.9997 C64.0129,1.3987 64.4129,0.9997 65.0129,0.9997 L90.7149,0.9997 C91.3159,0.9997 91.7149,1.3987 91.7149,1.9997 L91.7149,7.4997 C91.7149,8.1007 91.3159,8.4997 90.7149,8.4997 L72.7139,8.4997 C72.3139,8.4997 72.1149,8.6997 72.1149,9.1007 L72.1149,30.7007 C72.1149,31.1017 72.3139,31.3017 72.7139,31.3017 L88.3149,31.3017 C88.9149,31.3017 89.3149,31.7007 89.3149,32.3017 L89.3149,37.8017 C89.3149,38.4017 88.9149,38.8017 88.3149,38.8017 L72.7139,38.8017 C72.3139,38.8017 72.1149,39.0017 72.1149,39.4017 L72.1149,68.0037 C72.1149,68.6037 71.7139,69.0037 71.1139,69.0037 L65.0129,69.0037 C64.4129,69.0037 64.0129,68.6037 64.0129,68.0037 L64.0129,1.9997 Z" id="Fill-3" fill="#2D297C"></path>
            <path d="M100.5129,1.9997 C100.5129,1.3987 100.9129,0.9997 101.5129,0.9997 L127.2149,0.9997 C127.8159,0.9997 128.2149,1.3987 128.2149,1.9997 L128.2149,7.4997 C128.2149,8.1007 127.8159,8.4997 127.2149,8.4997 L109.2139,8.4997 C108.8139,8.4997 108.6149,8.6997 108.6149,9.1007 L108.6149,30.3017 C108.6149,30.7007 108.8139,30.9007 109.2139,30.9007 L124.8149,30.9007 C125.4149,30.9007 125.8149,31.3017 125.8149,31.9007 L125.8149,37.4017 C125.8149,38.0017 125.4149,38.4017 124.8149,38.4017 L109.2139,38.4017 C108.8139,38.4017 108.6149,38.6017 108.6149,39.0017 L108.6149,60.9027 C108.6149,61.3037 108.8139,61.5037 109.2139,61.5037 L127.2149,61.5037 C127.8159,61.5037 128.2149,61.9027 128.2149,62.5037 L128.2149,68.0037 C128.2149,68.6037 127.8159,69.0037 127.2149,69.0037 L101.5129,69.0037 C100.9129,69.0037 100.5129,68.6037 100.5129,68.0037 L100.5129,1.9997 Z" id="Fill-5" fill="#2D297C"></path>
            <g id="Group-9" transform="translate(133.000000, 0.904000)">
                <mask id="mask-2" fill="white">
                    <use xlink:href="#path-1"></use>
                </mask>
                <g id="Clip-8"></g>
                <path d="M36.2141,68.0996 C35.6141,68.0996 35.3141,67.6996 35.2141,67.0996 L27.3141,18.6966 L27.1131,18.6966 L18.9131,67.0996 C18.8141,67.6996 18.5131,68.0996 17.9131,68.0996 L12.6121,68.0996 C12.0131,68.0996 11.7121,67.6996 11.6121,67.0996 L0.8121,1.0956 C0.7121,0.4956 0.9111,0.0956 1.6121,0.0956 L7.7121,0.0956 C8.3121,0.0956 8.7121,0.3956 8.8121,1.0956 L15.4131,49.8986 L15.6121,49.8986 L23.9131,1.0956 C24.0131,0.3956 24.3141,0.0956 24.9131,0.0956 L29.3141,0.0956 C29.9131,0.0956 30.2141,0.3956 30.3141,1.0956 L38.6141,49.8986 L38.8141,49.8986 L45.6141,1.0956 C45.7141,0.3956 46.1141,0.0956 46.7141,0.0956 L52.6141,0.0956 C53.3161,0.0956 53.5151,0.4956 53.4151,1.0956 L42.6141,67.0996 C42.5151,67.6996 42.2141,68.0996 41.6141,68.0996 L36.2141,68.0996 Z" id="Fill-7" fill="#2D297C" mask="url(#mask-2)"></path>
            </g>
        </g>
    </g>
</svg>