<?xml version="1.0" encoding="UTF-8"?>
<svg width="171px" height="68px" viewBox="0 0 171 68" version="1.1" xmlns="http://www.w3.org/2000/svg" xmlns:xlink="http://www.w3.org/1999/xlink">
    <!-- Generator: Sketch 50.2 (55047) - http://www.bohemiancoding.com/sketch -->
    <title>Group</title>
    <desc>Created with Sketch.</desc>
    <defs>
        <polygon id="path-1" points="0.8703 0.096 42.9733 0.096 42.9733 68.0997 0.8703 68.0997"></polygon>
        <polygon id="path-3" points="0.853585629 0.096 37.8855233 0.096 37.8855233 68.0992 0.853585629 68.0992"></polygon>
        <polygon id="path-5" points="0.7678 0.096 33.6688 0.096 33.6688 68.0997 0.7678 68.0997"></polygon>
        <polygon id="path-7" points="0.292507806 0.096 34.7420748 0.096 34.7420748 68.0996 0.292507806 68.0996"></polygon>
    </defs>
    <g id="Page-1" stroke="none" stroke-width="1" fill="none" fill-rule="evenodd">
        <g id="Group" transform="translate(0.000000, -1.000000)">
            <g id="Group-20" transform="translate(0.000000, 0.904000)">
                <mask id="mask-2" fill="white">
                    <use xlink:href="#path-1"></use>
                </mask>
                <g id="Clip-19"></g>
                <path d="M0.8703,1.0957 C0.8703,0.4947 1.2703,0.0957 1.8703,0.0957 L8.0703,0.0957 C8.8703,0.0957 9.2703,0.3957 9.4713,1.0957 L21.8713,42.6987 L22.2713,42.6987 L34.3723,1.0957 C34.5723,0.3957 35.0723,0.0957 35.8723,0.0957 L41.9733,0.0957 C42.5733,0.0957 42.9733,0.4947 42.9733,1.0957 L42.9733,67.0997 C42.9733,67.6997 42.5733,68.0997 41.9733,68.0997 L36.5723,68.0997 C35.9723,68.0997 35.5723,67.6997 35.5723,67.0997 L35.5723,19.9967 L35.0723,19.9967 L24.7713,54.9987 C24.5713,55.5987 24.1713,55.9987 23.5713,55.9987 L20.2713,55.9987 C19.5713,55.9987 19.2713,55.5987 19.0713,54.9987 L8.7703,19.9967 L8.2703,19.9967 L8.2703,67.0997 C8.2703,67.6997 7.8703,68.0997 7.2703,68.0997 L1.8703,68.0997 C1.2703,68.0997 0.8703,67.6997 0.8703,67.0997 L0.8703,1.0957 Z" id="Fill-18" fill="#2D297C" mask="url(#mask-2)"></path>
            </g>
            <g id="Group-23" transform="translate(50.000000, 0.904000)">
                <mask id="mask-4" fill="white">
                    <use xlink:href="#path-3"></use>
                </mask>
                <g id="Clip-22"></g>
                <path d="M25.4699,45.1982 L19.6689,15.5962 L19.3699,15.5962 L13.1689,45.1982 L25.4699,45.1982 Z M15.3689,1.0952 C15.5699,0.4952 15.8689,0.0952 16.4699,0.0952 L22.4699,0.0952 C23.0699,0.0952 23.4699,0.4952 23.5699,1.0952 L37.8699,67.0992 C37.9709,67.6992 37.5719,68.0992 36.9709,68.0992 L30.9699,68.0992 C30.2709,68.0992 29.9699,67.6992 29.8699,67.0992 L26.8699,52.1982 L11.7689,52.1982 L8.7689,67.0992 C8.6689,67.6992 8.3689,68.0992 7.7689,68.0992 L1.7689,68.0992 C1.1689,68.0992 0.7689,67.6992 0.8689,67.0992 L15.3689,1.0952 Z" id="Fill-21" fill="#2D297C" mask="url(#mask-4)"></path>
            </g>
            <g id="Group-26" transform="translate(95.000000, 0.904000)">
                <mask id="mask-6" fill="white">
                    <use xlink:href="#path-5"></use>
                </mask>
                <g id="Clip-25"></g>
                <path d="M0.7678,1.0957 C0.7678,0.4947 1.1668,0.0957 1.7678,0.0957 L9.2688,0.0957 C10.0678,0.0957 10.5678,0.3957 10.7688,1.0957 L25.9688,52.0987 L26.3698,52.0987 L26.3698,1.0957 C26.3698,0.4947 26.7688,0.0957 27.3698,0.0957 L32.6688,0.0957 C33.2698,0.0957 33.6688,0.4947 33.6688,1.0957 L33.6688,67.0997 C33.6688,67.6997 33.2698,68.0997 32.6688,68.0997 L25.5698,68.0997 C24.7688,68.0997 24.2688,67.7997 24.0698,67.0997 L8.5678,16.0967 L8.0678,16.0967 L8.0678,67.0997 C8.0678,67.6997 7.6678,68.0997 7.0678,68.0997 L1.7678,68.0997 C1.1668,68.0997 0.7678,67.6997 0.7678,67.0997 L0.7678,1.0957 Z" id="Fill-24" fill="#2D297C" mask="url(#mask-6)"></path>
            </g>
            <g id="Group-29" transform="translate(136.000000, 0.904000)">
                <mask id="mask-8" fill="white">
                    <use xlink:href="#path-7"></use>
                </mask>
                <g id="Clip-28"></g>
                <path d="M14.468,68.0996 C13.867,68.0996 13.467,67.6996 13.467,67.0996 L13.467,39.9976 L0.366,1.0956 C0.166,0.4956 0.366,0.0956 1.067,0.0956 L7.366,0.0956 C8.068,0.0956 8.366,0.3956 8.568,1.0956 L17.468,29.5976 L17.767,29.5976 L26.668,1.0956 C26.868,0.3956 27.168,0.0956 27.769,0.0956 L33.968,0.0956 C34.669,0.0956 34.868,0.4956 34.669,1.0956 L21.568,39.9976 L21.568,67.0996 C21.568,67.6996 21.167,68.0996 20.568,68.0996 L14.468,68.0996 Z" id="Fill-27" fill="#2D297C" mask="url(#mask-8)"></path>
            </g>
        </g>
    </g>
</svg>