<?xml version="1.0" encoding="UTF-8"?>
<svg width="150px" height="150px" viewBox="0 0 150 150" version="1.1" xmlns="http://www.w3.org/2000/svg" xmlns:xlink="http://www.w3.org/1999/xlink">
    <!-- Generator: Sketch 50.2 (55047) - http://www.bohemiancoding.com/sketch -->
    <title>Group 2 Copy 3</title>
    <desc>Created with Sketch.</desc>
    <defs></defs>
    <g id="Page-1" stroke="none" stroke-width="1" fill="none" fill-rule="evenodd">
        <g id="Group-2-Copy-3" stroke="#2D297C">
            <circle id="Oval-3-Copy-9" stroke-width="5" fill-opacity="0.2" fill="#10E06C" cx="75" cy="75" r="72.5"></circle>
            <g id="Group" transform="translate(40.000000, 40.000000)" stroke-linejoin="round" stroke-width="2.5">
                <polyline id="Stroke-1" stroke-linecap="round" points="47.5 22.5 25 42.5 17.5 35.3571429"></polyline>
                <path d="M70,35 C70,32.0204348 67.8543478,29.5521739 65.0269565,29.0286957 C67.4343478,27.4582609 68.4691304,24.36 67.3369565,21.6086957 C66.1956522,18.8513043 63.2678261,17.3934783 60.4526087,17.99 C62.0808696,15.6221739 61.8495652,12.3595652 59.7434783,10.2504348 C57.6373913,8.1473913 54.3747826,7.91913043 52.0069565,9.54130435 C52.6034783,6.72913043 51.1426087,3.8073913 48.3852174,2.66608696 C45.633913,1.52478261 42.5356522,2.55956522 40.9682609,4.97 C40.4417391,2.1426087 37.9795652,0 35,0 C32.0143478,0 29.5491304,2.1426087 29.0195652,4.97 C27.4552174,2.55956522 24.353913,1.52478261 21.5995652,2.66608696 C18.8452174,3.80434783 17.3873913,6.72913043 17.9808696,9.54130435 C15.6130435,7.91913043 12.3534783,8.1473913 10.2443478,10.2534783 C8.13826087,12.3595652 7.91,15.6221739 9.53521739,17.99 C6.72304348,17.3934783 3.8073913,18.8543478 2.66608696,21.6086957 C1.52478261,24.36 2.55347826,27.4582609 4.96086957,29.0256522 C2.13347826,29.5521739 0,32.0204348 0,35 C0,37.9795652 2.13652174,40.4478261 4.96086957,40.9743478 C2.55347826,42.5447826 1.52478261,45.646087 2.66304348,48.3973913 C3.80434783,51.1486957 6.72304348,52.6065217 9.53521739,52.0130435 C7.91,54.383913 8.14130435,57.6404348 10.2443478,59.7526087 C12.3534783,61.8556522 15.61,62.0869565 17.9808696,60.4647826 C17.3873913,63.273913 18.8482609,66.1956522 21.6026087,67.3369565 C24.353913,68.4782609 27.4552174,67.4434783 29.0195652,65.0330435 C29.5491304,67.8604348 32.0204348,70 35,70 C37.9795652,70 40.4417391,67.8604348 40.9682609,65.0330435 C42.5356522,67.4434783 45.633913,68.4721739 48.3882609,67.3369565 C51.1426087,66.1956522 52.6004348,63.273913 52.0069565,60.4586957 C54.3747826,62.0869565 57.6373913,61.8556522 59.7434783,59.7526087 C61.8495652,57.6404348 62.0808696,54.383913 60.4526087,52.0130435 C63.2647826,52.6095652 66.1956522,51.1486957 67.3369565,48.3973913 C68.4782609,45.646087 67.4373913,42.5447826 65.0269565,40.9743478 C67.8513043,40.4508696 70,37.9795652 70,35 Z" id="Stroke-2"></path>
            </g>
        </g>
    </g>
</svg>