<?xml version="1.0" encoding="UTF-8"?>
<svg width="150px" height="150px" viewBox="0 0 150 150" version="1.1" xmlns="http://www.w3.org/2000/svg" xmlns:xlink="http://www.w3.org/1999/xlink">
    <!-- Generator: Sketch 50.2 (55047) - http://www.bohemiancoding.com/sketch -->
    <title>Group 7 Copy 2</title>
    <desc>Created with Sketch.</desc>
    <defs>
        <polygon id="path-1" points="0 0 94.4959 0 94.4959 54.204 0 54.204"></polygon>
    </defs>
    <g id="Page-1" stroke="none" stroke-width="1" fill="none" fill-rule="evenodd">
        <g id="Group-7-Copy-2">
            <text id="ZZZ" font-family="DINNextLTPro-Condensed, DIN Next LT Pro" font-size="20" font-style="condensed" font-weight="normal" line-spacing="23" letter-spacing="0.07272729" fill="#2D297C">
                <tspan x="63.5309091" y="45">ZZZ</tspan>
            </text>
            <g id="Group-10" stroke="#2D297C">
                <g id="Group-5" stroke-width="2">
                    <circle id="Oval-3-Copy-9" cx="75" cy="75" r="74"></circle>
                </g>
                <g id="Group-5" fill="#10E06C" fill-opacity="0.2" stroke-width="5">
                    <circle id="Oval-3-Copy-9" cx="75" cy="75" r="72.5"></circle>
                </g>
            </g>
            <g id="Group-9" transform="translate(29.000000, 57.000000)">
                <mask id="mask-2" fill="white">
                    <use xlink:href="#path-1"></use>
                </mask>
                <g id="Clip-2"></g>
                <path d="M90.356,52.9035 C88.79,52.9035 87.516,51.6305 87.516,50.0645 C87.516,48.4985 88.79,47.2245 90.356,47.2245 C91.922,47.2245 93.196,48.4985 93.196,50.0645 C93.196,51.6305 91.922,52.9035 90.356,52.9035 Z M4.79,38.1475 L4.79,28.2165 L28.076,28.2165 L63.429,28.2165 L89.706,28.2165 L89.706,38.1475 L4.79,38.1475 Z M6.98,50.0645 C6.98,51.6305 5.706,52.9035 4.14,52.9035 C2.574,52.9035 1.3,51.6305 1.3,50.0645 C1.3,48.4985 2.574,47.2245 4.14,47.2245 C5.706,47.2245 6.98,48.4985 6.98,50.0645 Z M5.159,18.5005 L13.044,26.3845 C13.244,26.5845 13.462,26.7575 13.69,26.9155 L4.79,26.9155 L4.79,18.0815 C4.904,18.2265 5.026,18.3675 5.159,18.5005 Z M5.431,11.6485 L8.649,11.3275 L8.65,11.3275 C9.654,11.2285 10.647,11.5795 11.363,12.2965 L19.248,20.1805 C19.964,20.8965 20.317,21.8855 20.216,22.8935 L19.895,26.1125 L16.676,26.4345 C15.668,26.5345 14.679,26.1815 13.963,25.4655 L6.078,17.5805 C5.361,16.8635 5.009,15.8755 5.11,14.8675 L5.431,11.6485 Z M12.631,8.5015 L19.563,1.5695 L21.825,3.8325 C21.785,3.8575 21.742,3.8755 21.707,3.9105 C20.746,4.8715 19.926,5.6745 19.233,6.3525 C16.385,9.1425 15.526,9.9845 15.985,11.1225 C16.21,11.6805 16.676,11.9775 17.086,12.2395 C17.493,12.4985 17.844,12.7215 18.034,13.1745 C18.1,13.3335 18.124,13.3925 17.445,13.8565 C17.032,14.1385 16.564,14.4585 16.263,14.9615 C16.253,14.9765 16.253,14.9945 16.245,15.0105 L12.631,11.3965 C12.245,11.0095 12.032,10.4965 12.032,9.9495 C12.032,9.4015 12.245,8.8875 12.631,8.5015 Z M27.012,9.9495 C27.012,10.5495 26.778,11.1135 26.354,11.5375 L25.871,12.0195 L21.2,16.6915 C20.297,17.5935 18.829,17.5935 17.926,16.6915 L17.106,15.8725 C17.214,15.8185 17.311,15.7415 17.377,15.6315 C17.533,15.3715 17.861,15.1465 18.179,14.9295 C18.76,14.5325 19.731,13.8685 19.233,12.6745 C18.886,11.8435 18.25,11.4385 17.785,11.1425 C17.46,10.9355 17.256,10.7995 17.19,10.6355 C17.057,10.3045 18.351,9.0365 20.143,7.2815 C20.838,6.6005 21.662,5.7945 22.626,4.8305 C22.661,4.7955 22.679,4.7525 22.705,4.7125 L26.353,8.3605 C26.778,8.7845 27.012,9.3485 27.012,9.9495 Z M28.48,15.5495 C28.52,15.5895 28.569,15.6125 28.616,15.6395 C28.641,15.6545 28.662,15.6755 28.688,15.6865 C28.768,15.7205 28.854,15.7395 28.939,15.7395 C29.02,15.7395 29.1,15.7225 29.176,15.6935 C29.202,15.6825 29.225,15.6625 29.25,15.6475 C29.293,15.6245 29.337,15.6055 29.375,15.5715 C29.737,15.2445 30.205,15.0645 30.692,15.0645 L40.878,15.0645 L40.878,19.0225 L28.076,19.0225 C25.542,19.0225 23.48,21.0855 23.48,23.6195 C23.48,24.9135 24.022,26.0795 24.885,26.9155 L21.095,26.9155 C21.111,26.8685 21.13,26.8225 21.135,26.7705 L21.51,23.0225 C21.649,21.6265 21.16,20.2555 20.167,19.2605 L19.572,18.6665 C20.494,18.6645 21.416,18.3135 22.119,17.6115 L26.331,13.3995 L28.48,15.5495 Z M53.544,20.3235 L55.536,20.3235 C59.311,20.3235 62.42,23.2255 62.75,26.9155 L53.544,26.9155 L53.544,20.3235 Z M42.178,19.0225 L47.325,19.0225 L47.325,15.0645 L42.178,15.0645 L42.178,19.0225 Z M28.076,26.9155 C26.259,26.9155 24.78,25.4365 24.78,23.6195 C24.78,21.8015 26.259,20.3235 28.076,20.3235 L52.244,20.3235 L52.244,26.9155 L28.076,26.9155 Z M89.696,26.9155 L64.045,26.9155 C63.711,22.5085 60.027,19.0225 55.536,19.0225 L48.625,19.0225 L48.625,15.0645 L77.67,15.0645 C84.244,15.0645 89.596,20.3645 89.696,26.9155 Z M91.006,45.9895 L91.006,38.7985 L91.006,27.5655 L91.006,14.7515 C91.006,14.3915 90.715,14.1005 90.356,14.1005 C89.997,14.1005 89.706,14.3915 89.706,14.7515 L89.706,21.3955 C87.563,16.8915 82.981,13.7635 77.67,13.7635 L41.528,13.7635 L30.692,13.7635 C30.092,13.7635 29.512,13.9295 29.006,14.2355 L27.25,12.4795 L27.273,12.4575 C27.942,11.7875 28.312,10.8965 28.312,9.9495 C28.312,9.0025 27.942,8.1115 27.273,7.4405 L20.023,0.1905 C19.769,-0.0635 19.357,-0.0635 19.104,0.1905 L11.712,7.5815 C10.951,8.3425 10.647,9.3815 10.773,10.3745 C10.069,10.0825 9.299,9.9575 8.52,10.0345 L4.79,10.4065 L4.79,1.5085 C4.79,1.1495 4.499,0.8585 4.14,0.8585 C3.781,0.8585 3.49,1.1495 3.49,1.5085 L3.49,27.5655 L3.49,38.7985 L3.49,45.9895 C1.517,46.3035 0,48.0045 0,50.0645 C0,52.3465 1.857,54.2045 4.14,54.2045 C6.422,54.2045 8.279,52.3465 8.279,50.0645 C8.279,48.0045 6.762,46.3035 4.79,45.9895 L4.79,39.4485 L89.706,39.4485 L89.706,45.9895 C87.733,46.3035 86.216,48.0045 86.216,50.0645 C86.216,52.3465 88.073,54.2045 90.356,54.2045 C92.639,54.2045 94.496,52.3465 94.496,50.0645 C94.496,48.0045 92.979,46.3035 91.006,45.9895 Z" id="Fill-1" stroke="#2D297C" stroke-width="0.5" fill="#2D297C" mask="url(#mask-2)"></path>
            </g>
        </g>
    </g>
</svg>