<?xml version="1.0" encoding="UTF-8"?>
<svg width="150px" height="150px" viewBox="0 0 150 150" version="1.1" xmlns="http://www.w3.org/2000/svg" xmlns:xlink="http://www.w3.org/1999/xlink">
    <!-- Generator: Sketch 50.2 (55047) - http://www.bohemiancoding.com/sketch -->
    <title>Group 6 Copy 2</title>
    <desc>Created with Sketch.</desc>
    <defs></defs>
    <g id="Page-1" stroke="none" stroke-width="1" fill="none" fill-rule="evenodd">
        <g id="Group-6-Copy-2" transform="translate(0.000000, 0.000000)" stroke="#2D297C">
            <g id="Group-8" fill="#10E06C" fill-opacity="0.2" stroke-width="5">
                <circle id="Oval-3-Copy-12" cx="75" cy="75" r="72.5"></circle>
            </g>
            <g id="Group" transform="translate(43.000000, 26.000000)" fill="#2D297C" stroke-width="0.5">
                <path d="M0.716542373,83.8536449 C0.321033898,83.8536449 0.000440677966,83.533218 0.000440677966,83.1379146 L0.000440677966,64.4870831 C0.000440677966,60.0143191 2.66433898,55.9996225 6.78688136,54.2609483 L21.8073898,48.2719371 C22.1753559,48.1232854 22.5906949,48.3038697 22.7372203,48.6716449 C22.8837458,49.0383191 22.7052712,49.4545438 22.3384068,49.6009933 L7.33111864,55.5844989 C3.75281356,57.0941393 1.43264407,60.5902067 1.43264407,64.4870831 L1.43264407,83.1379146 C1.43264407,83.533218 1.11205085,83.8536449 0.716542373,83.8536449" id="Fill-1"></path>
                <path d="M63.3883305,83.8536449 C62.992822,83.8536449 62.6722288,83.533218 62.6722288,83.1379146 L62.6722288,64.4870831 C62.6722288,60.5913079 60.3520593,57.0941393 56.7616356,55.5789933 C56.3969746,55.424836 56.2273136,55.0053079 56.3815508,54.640836 C56.5346864,54.276364 56.9566356,54.106791 57.3190932,54.2609483 C61.4405339,55.9996225 64.1044322,60.0143191 64.1044322,64.4870831 L64.1044322,83.1379146 C64.1044322,83.533218 63.783839,83.8536449 63.3883305,83.8536449" id="Fill-3"></path>
                <path d="M32.0523814,45.821827 C30.8702627,45.821827 29.6881441,45.572973 28.5864492,45.0752652 L20.8503475,41.5769955 C17.8471271,40.2193101 15.9070424,37.2143438 15.9070424,33.919782 L15.9070424,9.4979618 C15.9070424,9.10265843 16.2276356,8.78223146 16.6231441,8.78223146 C17.0186525,8.78223146 17.3403475,9.10265843 17.3403475,9.4979618 L17.3403475,33.919782 C17.3403475,36.6527708 18.948822,39.1468157 21.4397542,40.272164 L29.1769576,43.7704337 C31.0057712,44.5973775 33.0989915,44.5973775 34.9278051,43.7704337 L42.6650085,40.272164 C45.1945,39.1291978 46.7644153,36.6076247 46.7644153,33.6918494 L46.7644153,9.4979618 C46.7644153,9.10265843 47.0861102,8.78223146 47.4816186,8.78223146 C47.8771271,8.78223146 48.1977203,9.10265843 48.1977203,9.4979618 L48.1977203,33.6918494 C48.1977203,37.1769056 46.3039068,40.1983888 43.2544153,41.5769955 L35.5183136,45.0752652 C34.4166186,45.572973 33.2345,45.821827 32.0523814,45.821827" id="Fill-5"></path>
                <path d="M32.0523814,1.43124045 C22.7199237,1.43124045 17.7766186,4.08384719 17.3579746,9.31418427 L17.3359407,9.57184719 C17.2995847,9.91870112 17.4152627,10.1862742 17.7105169,10.442836 C19.104161,11.6485663 24.1300932,12.0614876 31.8728051,10.1213079 C36.6056864,8.93539775 40.9794153,9.14240899 43.8724661,9.27784719 C45.0127203,9.33180225 46.2829746,9.39236404 46.7633136,9.28335281 C46.6200932,4.21708315 41.4090763,1.43124045 32.0523814,1.43124045 M22.5293305,12.8829258 C19.8522119,12.8829258 17.8195847,12.430364 16.7729746,11.5241393 C16.125178,10.9625663 15.8266186,10.2369258 15.9114492,9.42429663 L15.930178,9.19966742 C16.4193305,3.0950382 21.8429746,-0.000220224719 32.0523814,-0.000220224719 C46.1000932,-0.000220224719 48.1977203,5.95025169 48.1977203,9.49807191 C48.1977203,9.80418427 48.0765339,10.087173 47.8572966,10.2963865 C47.2557712,10.8700719 46.0317881,10.8128135 43.8063644,10.7082067 C40.994839,10.5760719 36.7500085,10.3756674 32.2209407,11.5098247 C28.568822,12.4248584 25.2229746,12.8829258 22.5293305,12.8829258" id="Fill-7"></path>
                <path d="M7.06527966,55.6357011 C6.78104237,55.6357011 6.51222881,55.465027 6.39985593,55.1842404 C6.2544322,54.8175663 6.43290678,54.4013416 6.79977119,54.2548921 L21.8070593,48.2724876 C22.1750254,48.1227348 22.5914661,48.3033191 22.7379915,48.6710944 C22.8834153,49.0388697 22.7049407,49.4550944 22.3380763,49.6015438 L7.33078814,55.5839483 C7.24375424,55.6191843 7.15341525,55.6357011 7.06527966,55.6357011" id="Fill-9"></path>
                <path d="M57.0298983,55.6357011 C56.9417627,55.6357011 56.8514237,55.6191843 56.7643898,55.5839483 L41.7571017,49.6015438 C41.3902373,49.4550944 41.2117627,49.0388697 41.3571864,48.6710944 C41.5037119,48.3033191 41.9201525,48.1227348 42.2881186,48.2724876 L57.2954068,54.2548921 C57.6622712,54.4013416 57.8407458,54.8175663 57.695322,55.1842404 C57.5829492,55.465027 57.3141356,55.6357011 57.0298983,55.6357011" id="Fill-11"></path>
                <path d="M22.0736695,49.6520854 C22.0340085,49.6520854 21.9943475,49.648782 21.9535847,49.6421753 C21.5635847,49.5761079 21.3002797,49.2072315 21.3663814,48.8174337 L22.5595169,41.763636 C22.6267203,41.3738382 22.9946864,41.1183775 23.3846864,41.1778382 C23.7746864,41.2439056 24.0379915,41.612782 23.9718898,42.0025798 L22.7787542,49.0552764 C22.7192627,49.4054337 22.4173983,49.6520854 22.0736695,49.6520854" id="Fill-13"></path>
                <path d="M42.0215085,49.6520854 C41.6777797,49.6520854 41.3759153,49.4054337 41.3164237,49.0552764 L40.1232881,42.0025798 C40.0571864,41.612782 40.3204915,41.2439056 40.7104915,41.1778382 C41.1004915,41.1150742 41.4684576,41.3738382 41.535661,41.763636 L42.7287966,48.8174337 C42.7948983,49.2072315 42.5315932,49.5761079 42.1415932,49.6421753 C42.1008305,49.648782 42.0611695,49.6520854 42.0215085,49.6520854" id="Fill-15"></path>
                <path d="M50.8296695,96.4068944 C50.434161,96.4068944 50.1135678,96.0864674 50.1135678,95.691164 C50.1135678,95.2958607 50.434161,94.9754337 50.8296695,94.9754337 C57.3594153,94.9754337 62.6717881,89.6647146 62.6717881,83.1383551 C62.6717881,82.7430517 62.9923814,82.4226247 63.3878898,82.4226247 C63.7845,82.4226247 64.1050932,82.7430517 64.1050932,83.1383551 C64.1050932,90.4542202 58.1504322,96.4068944 50.8296695,96.4068944" id="Fill-17"></path>
                <path d="M50.8296695,96.4068944 L25.1447542,96.4068944 C24.7481441,96.4068944 24.4275508,96.0864674 24.4275508,95.691164 C24.4275508,95.2958607 24.7481441,94.9754337 25.1447542,94.9754337 L50.8296695,94.9754337 C51.225178,94.9754337 51.5457712,95.2958607 51.5457712,95.691164 C51.5457712,96.0864674 51.225178,96.4068944 50.8296695,96.4068944" id="Fill-19"></path>
                <path d="M19.4281695,86.1886876 C13.7379153,86.1886876 10.3413898,87.5838112 10.3413898,89.9192944 C10.3413898,92.7282607 14.3945254,96.1208225 19.4281695,96.1208225 C24.9752034,96.1208225 25.6868983,93.4660135 25.6868983,91.1547551 C25.6868983,88.8423955 24.9752034,86.1886876 19.4281695,86.1886876 M19.4281695,97.551182 C13.5032542,97.551182 8.90808475,93.4483955 8.90808475,89.9192944 C8.90808475,86.6390472 12.7430847,84.757227 19.4281695,84.757227 C24.5312203,84.757227 27.1191017,86.9099236 27.1191017,91.1547551 C27.1191017,95.3995865 24.5312203,97.551182 19.4281695,97.551182" id="Fill-21"></path>
                <path d="M24.4589492,87.4291034 C24.3575932,87.4291034 24.2540339,87.4070809 24.1581864,87.3619348 C23.7979322,87.1956652 23.6425932,86.7695303 23.8089492,86.4116652 L41.3732712,48.635418 C41.5396271,48.2764517 41.9681864,48.1178899 42.3240339,48.2874629 C42.6831864,48.4537326 42.8396271,48.8798674 42.6721695,49.2377326 L25.1089492,87.0150809 C24.986661,87.2749461 24.7288644,87.4291034 24.4589492,87.4291034" id="Fill-23"></path>
                <path d="M50.8307712,96.4068944 C50.7944153,96.4068944 50.759161,96.4046921 50.7217034,96.3991865 C50.3306017,96.3386247 50.0628898,95.9741528 50.1212797,95.5832539 L56.3326356,54.8119506 C56.3921271,54.4210517 56.7611949,54.1545798 57.1478898,54.2118382 C57.5400932,54.2712989 57.8078051,54.6368719 57.7483136,55.0266697 L51.5380593,95.7990742 C51.4840763,96.153636 51.1778051,96.4068944 50.8307712,96.4068944" id="Fill-25"></path>
                <path d="M42.0236017,78.3899798 C41.982839,78.3899798 41.943178,78.3866764 41.9013136,78.3800697 C41.5113136,78.3129011 41.2502119,77.9429236 41.3163136,77.5531258 L45.9335169,50.6559798 C45.9996186,50.2650809 46.3675847,50.0030135 46.7608898,50.0712831 C47.1497881,50.1384517 47.4119915,50.5084292 47.3447881,50.898227 L42.7286864,77.795373 C42.6680932,78.1433281 42.3662288,78.3899798 42.0236017,78.3899798" id="Fill-27"></path>
                <path d="M42.0225,78.3905303 C41.9277542,78.3905303 41.8308051,78.3707101 41.7382627,78.3310697 C41.3758051,78.1747101 41.2083475,77.7529798 41.3647881,77.3907101 L51.9597881,52.8763955 C52.1162288,52.5141258 52.538178,52.3478562 52.9006356,52.5031146 C53.2630932,52.6594742 53.4305508,53.0812045 53.2741102,53.4445753 L42.6802119,77.9577888 C42.5623305,78.2286652 42.2990254,78.3905303 42.0225,78.3905303" id="Fill-29"></path>
            </g>
        </g>
    </g>
</svg>