<?xml version="1.0" encoding="UTF-8"?>
<svg width="150px" height="150px" viewBox="0 0 150 150" version="1.1" xmlns="http://www.w3.org/2000/svg" xmlns:xlink="http://www.w3.org/1999/xlink">
    <!-- Generator: Sketch 50.2 (55047) - http://www.bohemiancoding.com/sketch -->
    <title>Group 2 Copy 4</title>
    <desc>Created with Sketch.</desc>
    <defs></defs>
    <g id="Page-1" stroke="none" stroke-width="1" fill="none" fill-rule="evenodd">
        <g id="Group-2-Copy-4" stroke="#2D297C">
            <circle id="Oval-3-Copy-11" stroke-width="5" cx="75" cy="75" r="72.5"></circle>
            <g id="Group" transform="translate(28.947368, 53.571429)" stroke-linecap="round" stroke-linejoin="round" stroke-width="2.5">
                <path d="M23.6842105,37.1428571 C23.6842105,42.2270677 20.1473684,46.3533835 15.7894737,46.3533835 C11.4315789,46.3533835 7.89473684,42.2270677 7.89473684,37.1428571 C7.89473684,32.0586466 11.4315789,27.9323308 15.7894737,27.9323308 C20.1473684,27.9323308 23.6842105,32.0586466 23.6842105,37.1428571 Z" id="Stroke-1"></path>
                <path d="M84.2105263,38.4586466 L97.3684211,38.4586466" id="Stroke-3"></path>
                <path d="M84.2105263,37.1428571 C84.2105263,42.2270677 80.6736842,46.3533835 76.3157895,46.3533835 C71.9578947,46.3533835 68.4210526,42.2270677 68.4210526,37.1428571 C68.4210526,32.0586466 71.9578947,27.9323308 76.3157895,27.9323308 C80.6736842,27.9323308 84.2105263,32.0586466 84.2105263,37.1428571 Z" id="Stroke-5"></path>
                <path d="M23.6842105,38.4586466 L68.4210526,38.4586466" id="Stroke-7"></path>
                <path d="M94.7368421,38.4586466 L94.7368421,24.1311612 C94.7368421,20.737594 91.8430622,17.9908104 88.277512,17.9908104 L81.8181818,17.9908104 L73.2057416,1.61654135 L32.2966507,1.61654135 L23.6842105,17.9908104 L6.45933014,17.9908104 C2.8937799,17.9908104 0,20.737594 0,24.1311612 L0,38.4586466 L6.45933014,38.4586466" id="Stroke-9"></path>
                <polyline id="Stroke-11" points="34.2105263 20.037594 39.4736842 9.5112782 44.7368421 9.5112782"></polyline>
            </g>
        </g>
    </g>
</svg>