<?xml version="1.0" encoding="UTF-8"?>
<svg width="150px" height="150px" viewBox="0 0 150 150" version="1.1" xmlns="http://www.w3.org/2000/svg" xmlns:xlink="http://www.w3.org/1999/xlink">
    <!-- Generator: Sketch 50.2 (55047) - http://www.bohemiancoding.com/sketch -->
    <title>Group 17</title>
    <desc>Created with Sketch.</desc>
    <defs></defs>
    <g id="Page-1" stroke="none" stroke-width="1" fill="none" fill-rule="evenodd">
        <g id="Group-17">
            <g id="Group-5-Copy" fill="#10E06C" fill-opacity="0.2" stroke="#2D297C" stroke-width="5">
                <circle id="Oval-3-Copy-14" cx="75" cy="75" r="72.5"></circle>
            </g>
            <g id="Group" transform="translate(36.000000, 40.000000)">
                <path d="M36.9073,24.586 C36.9073,33.342 29.8093,40.053 21.0533,40.053 C12.2993,40.053 5.2013,33.342 5.2013,24.586" id="Stroke-1" stroke="#2D297C" stroke-width="2" stroke-linecap="round"></path>
                <path d="M0.0123,63.8121 L0.0003,53.6621 C-0.0157,46.1891 3.8903,39.6261 9.7793,35.9181" id="Stroke-3" stroke="#2D297C" stroke-width="2" stroke-linecap="round" stroke-linejoin="round"></path>
                <path d="M31.9961,35.8858 C36.1281,37.5938 38.6671,41.1358 40.2251,44.7208" id="Stroke-5" stroke="#2D297C" stroke-width="2" stroke-linecap="round" stroke-linejoin="round"></path>
                <path d="M17.3492,15.3961 L24.2542,15.3961" id="Stroke-7" stroke="#2D297C" stroke-width="2" stroke-linecap="round" stroke-linejoin="round"></path>
                <path d="M16.293,21.7989 C16.293,22.9499 15.359,23.8839 14.208,23.8839 C13.057,23.8839 12.123,22.9499 12.123,21.7989 C12.123,20.6479 13.057,19.7139 14.208,19.7139 C15.359,19.7139 16.293,20.6479 16.293,21.7989" id="Fill-9" fill="#2D297C"></path>
                <path d="M29.771,21.7989 C29.771,22.9509 28.837,23.8849 27.685,23.8849 C26.533,23.8849 25.599,22.9509 25.599,21.7989 C25.599,20.6469 26.533,19.7129 27.685,19.7129 C28.837,19.7129 29.771,20.6469 29.771,21.7989" id="Fill-11" fill="#2D297C"></path>
                <path d="M24.25,30.5992 C23.908,31.6342 22.771,32.6692 20.947,32.6692 C19.121,32.6692 18.087,31.6342 17.642,30.5992" id="Stroke-13" stroke="#2D297C" stroke-width="2" stroke-linecap="round"></path>
                <path d="M28.5982,26.8668 C27.8932,25.9558 26.2582,25.5148 26.2582,25.5148" id="Stroke-17" stroke="#2D297C" stroke-width="2" stroke-linecap="round"></path>
                <path d="M13.2969,26.8258 C14.0039,25.9148 15.6389,25.4738 15.6389,25.4738" id="Stroke-19" stroke="#2D297C" stroke-width="2" stroke-linecap="round"></path>
                <path d="M40.1929,17.9722 L40.1929,17.3572 C40.1929,6.7872 31.6239,0.0002 21.0519,0.0002 C10.4809,0.0002 1.9109,7.4032 1.9109,17.9732 C5.3659,17.9732 5.2509,24.5862 5.2509,24.5862 C7.0969,24.5862 8.5929,23.0902 8.5929,21.2442 L8.5929,10.3532 C8.5929,8.7182 14.9129,5.5582 21.0519,5.5582 C29.4799,5.5582 33.5639,10.3532 33.5639,10.3532 L33.5639,21.2442 C33.5639,23.0902 35.0599,24.5862 36.9059,24.5862" id="Stroke-21" stroke="#2D297C" stroke-width="2" stroke-linecap="round" stroke-linejoin="round"></path>
                <path d="M40.1929,17.9732 C36.9059,17.9732 36.9059,24.5862 36.9059,24.5862" id="Stroke-23" stroke="#2D297C" stroke-width="2" stroke-linecap="round" stroke-linejoin="round"></path>
                <path d="M38.5601,27.6182 C40.1691,27.6182 41.4761,26.3122 41.4761,24.7022 L41.4761,20.3842" id="Stroke-25" stroke="#2D297C" stroke-width="2" stroke-linecap="round" stroke-linejoin="round"></path>
                <path d="M38.5601,27.6192 L37.2541,27.6192" id="Stroke-27" stroke="#2D297C" stroke-width="2" stroke-linecap="round" stroke-linejoin="round"></path>
                <path d="M3.8941,27.6182 C2.2831,27.6182 0.9781,26.3122 0.9781,24.7022 L0.9781,20.3842" id="Stroke-29" stroke="#2D297C" stroke-width="2" stroke-linecap="round" stroke-linejoin="round"></path>
                <path d="M5.2012,27.6192 L3.8942,27.6192" id="Stroke-31" stroke="#2D297C" stroke-width="2" stroke-linecap="round" stroke-linejoin="round"></path>
                <path d="M17.3492,11.9141 L24.2542,11.9141" id="Stroke-33" stroke="#2D297C" stroke-width="2" stroke-linecap="round" stroke-linejoin="round"></path>
                <path d="M29.8799,58.1217 L29.8799,59.6837 C29.8799,66.2317 35.1889,69.2237 41.7379,69.2237 C48.2859,69.2237 53.5939,66.2317 53.5939,59.6837 L53.5939,58.1217" id="Stroke-35" stroke="#2D297C" stroke-width="2" stroke-linecap="round" stroke-linejoin="round"></path>
                <path d="M49.3306,67.8267 C51.9796,70.0157 53.6696,73.3257 53.6696,77.0307" id="Stroke-37" stroke="#2D297C" stroke-width="2" stroke-linecap="round" stroke-linejoin="round"></path>
                <path d="M29.8072,77.0308 C29.8072,73.3258 31.4952,70.0138 34.1462,67.8248" id="Stroke-39" stroke="#2D297C" stroke-width="2" stroke-linecap="round" stroke-linejoin="round"></path>
                <path d="M45.1529,56.4918 C45.9769,56.4918 46.6459,57.1608 46.6459,57.9848 C46.6459,58.8088 45.9769,59.4778 45.1529,59.4778 C44.3289,59.4778 43.6599,58.8088 43.6599,57.9848 C43.6599,57.1608 44.3289,56.4918 45.1529,56.4918" id="Fill-41" fill="#2D297C"></path>
                <path d="M38.3218,56.4918 C39.1468,56.4918 39.8148,57.1608 39.8148,57.9848 C39.8148,58.8088 39.1468,59.4778 38.3218,59.4778 C37.4978,59.4778 36.8288,58.8088 36.8288,57.9848 C36.8288,57.1608 37.4978,56.4918 38.3218,56.4918" id="Fill-43" fill="#2D297C"></path>
                <path d="M43.3726,62.0826 C43.3726,61.7286 43.0876,61.4426 42.7316,61.4426 L40.7446,61.4426 C40.3906,61.4426 40.1026,61.7286 40.1026,62.0826 L41.7376,63.2376 L43.3726,62.0826 Z" id="Fill-45" fill="#2D297C"></path>
                <path d="M43.3726,62.0826 C43.3726,61.7286 43.0876,61.4426 42.7316,61.4426 L40.7446,61.4426 C40.3906,61.4426 40.1026,61.7286 40.1026,62.0826 L41.7376,63.2376 L43.3726,62.0826 Z" id="Stroke-47" stroke="#2D297C" stroke-width="2" stroke-linecap="round" stroke-linejoin="round"></path>
                <path d="M34.3169,49.7232 L34.3169,54.8372 C34.3169,56.7582 32.7579,58.3162 30.8369,58.3162 C28.9159,58.3162 27.3579,56.7572 27.3579,54.8372 L27.3579,51.8542 C27.3579,49.9322 28.7799,47.6352 30.8369,46.7842 C30.8369,46.7842 35.1829,44.6462 42.0639,44.6462 C48.9459,44.6462 52.5359,46.7842 52.5359,46.7842 C54.7299,47.8342 56.0159,49.9322 56.0159,51.8542 L56.0159,54.8372 C56.0159,56.7582 54.4569,58.3162 52.5359,58.3162 C50.6139,58.3162 49.0569,56.7572 49.0569,54.8372 L49.0569,49.7232" id="Stroke-49" stroke="#2D297C" stroke-width="2" stroke-linecap="round" stroke-linejoin="round"></path>
                <path d="M69.5679,38.232 C74.2299,41.154 77.3289,46.337 77.3289,52.246" id="Stroke-51" stroke="#2D297C" stroke-width="2" stroke-linecap="round" stroke-linejoin="round"></path>
                <path d="M46.8287,44.2369 C48.1777,41.3599 49.3317,39.9359 51.9997,38.2539" id="Stroke-53" stroke="#2D297C" stroke-width="2" stroke-linecap="round" stroke-linejoin="round"></path>
                <path d="M64.7964,27.3751 C65.7524,27.3751 66.5264,28.1501 66.5264,29.1061 C66.5264,30.0621 65.7524,30.8371 64.7964,30.8371 C63.8404,30.8371 63.0654,30.0621 63.0654,29.1061 C63.0654,28.1501 63.8404,27.3751 64.7964,27.3751" id="Fill-55" fill="#2D297C"></path>
                <path d="M56.8814,27.3751 C57.8374,27.3751 58.6114,28.1501 58.6114,29.1061 C58.6114,30.0621 57.8374,30.8371 56.8814,30.8371 C55.9254,30.8371 55.1504,30.0621 55.1504,29.1061 C55.1504,28.1501 55.9254,27.3751 56.8814,27.3751" id="Fill-57" fill="#2D297C"></path>
                <path d="M63.0963,35.0709 C62.7923,35.7779 62.0853,36.4849 60.8393,36.4849 C59.5933,36.4849 58.8183,35.7779 58.5823,35.0709" id="Stroke-59" stroke="#2D297C" stroke-width="2" stroke-linecap="round"></path>
                <path d="M75.2632,38.232 C75.2632,38.232 73.6802,39.345 69.5692,38.232" id="Stroke-61" stroke="#2D297C" stroke-width="2" stroke-linecap="round"></path>
                <path d="M80.5552,35.0709 L76.0082,35.0709 L76.0082,26.7529 C76.0082,18.3939 69.2332,11.6189 60.8732,11.6189 C52.5152,11.6189 45.7402,18.3939 45.7402,26.7529 L45.7402,35.0709 L41.4762,35.0709" id="Stroke-63" stroke="#2D297C" stroke-width="2" stroke-linecap="round" stroke-linejoin="round"></path>
                <path d="M48.3365,27.3272 L48.3365,29.4402 C48.3365,36.3082 53.9035,41.8762 60.7725,41.8762 C67.6405,41.8762 73.2075,36.3082 73.2075,29.4402 L73.2075,27.4222" id="Stroke-65" stroke="#2D297C" stroke-width="2" stroke-linecap="round" stroke-linejoin="round"></path>
                <path d="M58.2232,20.9688 C58.2232,20.9688 58.2232,25.4018 62.6562,25.4018" id="Stroke-67" stroke="#2D297C" stroke-width="2" stroke-linecap="round"></path>
                <path d="M75.2632,38.232 L77.7492,41.109" id="Stroke-69" stroke="#2D297C" stroke-width="2" stroke-linecap="round"></path>
                <path d="M79.3306,38.232 L78.4216,37.818" id="Stroke-71" stroke="#2D297C" stroke-width="2" stroke-linecap="round" stroke-linejoin="round"></path>
                <path d="M46.3052,38.439 C46.3052,38.439 47.8882,39.552 51.9992,38.439" id="Stroke-73" stroke="#2D297C" stroke-width="2" stroke-linecap="round"></path>
                <path d="M46.3052,38.439 L43.8172,41.316" id="Stroke-75" stroke="#2D297C" stroke-width="2" stroke-linecap="round"></path>
            </g>
        </g>
    </g>
</svg>