<?xml version="1.0" encoding="UTF-8"?>
<svg width="150px" height="150px" viewBox="0 0 150 150" version="1.1" xmlns="http://www.w3.org/2000/svg" xmlns:xlink="http://www.w3.org/1999/xlink">
    <!-- Generator: Sketch 50.2 (55047) - http://www.bohemiancoding.com/sketch -->
    <title>Group 16</title>
    <desc>Created with Sketch.</desc>
    <defs>
        <polygon id="path-1" points="0 58 58 58 58 0 0 0"></polygon>
    </defs>
    <g id="Page-1" stroke="none" stroke-width="1" fill="none" fill-rule="evenodd">
        <g id="Group-16">
            <g id="Group-6-Copy" fill="#10E06C" fill-opacity="0.2" stroke="#2D297C" stroke-width="5">
                <circle id="Oval-3-Copy-12" cx="75" cy="75" r="72.5"></circle>
            </g>
            <g id="Group" transform="translate(46.000000, 46.000000)">
                <g id="Group-6">
                    <polyline id="Stroke-1" stroke="#2D297C" stroke-width="2.4" stroke-linecap="round" stroke-linejoin="round" points="10.875 6.04166667 1.20833333 6.04166667 1.20833333 56.7916667 56.7916667 56.7916667 56.7916667 6.04166667 47.125 6.04166667"></polyline>
                    <mask id="mask-2" fill="white">
                        <use xlink:href="#path-1"></use>
                    </mask>
                    <g id="Clip-4"></g>
                    <polygon id="Stroke-3" stroke="#2D297C" stroke-width="2.4" stroke-linecap="round" stroke-linejoin="round" mask="url(#mask-2)" points="10.875 10.875 18.125 10.875 18.125 1.20833333 10.875 1.20833333"></polygon>
                    <polygon id="Stroke-5" stroke="#2D297C" stroke-width="2.4" stroke-linecap="round" stroke-linejoin="round" mask="url(#mask-2)" points="39.875 10.875 47.125 10.875 47.125 1.20833333 39.875 1.20833333"></polygon>
                </g>
                <path d="M18.125,6.04166667 L39.875,6.04166667" id="Stroke-7" stroke="#2D297C" stroke-width="2.4" stroke-linecap="round" stroke-linejoin="round"></path>
                <path d="M1.20833333,18.125 L56.7916667,18.125" id="Stroke-8" stroke="#2D297C" stroke-width="2.4" stroke-linecap="round" stroke-linejoin="round"></path>
                <polyline id="Stroke-10" stroke="#2D297C" stroke-width="2.4" stroke-linecap="round" stroke-linejoin="round" points="22.9583333 47.125 22.9583333 27.7916667 18.125 32.625"></polyline>
                <path d="M18.125,47.125 L27.7916667,47.125" id="Stroke-11" stroke="#2D297C" stroke-width="2.4" stroke-linecap="round" stroke-linejoin="round"></path>
                <polyline id="Stroke-12" stroke="#2D297C" stroke-width="2.4" stroke-linecap="round" stroke-linejoin="round" points="33.8333333 47.125 41.0833333 27.7916667 29 27.7916667 29 30.2083333"></polyline>
                <path d="M32.625,37.4583333 L39.875,37.4583333" id="Stroke-13" stroke="#2D297C" stroke-width="2.4" stroke-linecap="round" stroke-linejoin="round"></path>
            </g>
        </g>
    </g>
</svg>