<?xml version="1.0" encoding="UTF-8"?>
<svg width="109px" height="70px" viewBox="0 0 109 70" version="1.1" xmlns="http://www.w3.org/2000/svg" xmlns:xlink="http://www.w3.org/1999/xlink">
    <!-- Generator: Sketch 50.2 (55047) - http://www.bohemiancoding.com/sketch -->
    <title>Group 2</title>
    <desc>Created with Sketch.</desc>
    <defs></defs>
    <g id="Page-1" stroke="none" stroke-width="1" fill="none" fill-rule="evenodd">
        <g id="Group-2" transform="translate(-1.000000, 0.000000)" fill="#2D297C">
            <path d="M15.1733,68.9046 C14.5733,68.9046 14.1733,68.5046 14.1733,67.9046 L14.1733,40.8026 L1.0723,1.9006 C0.8723,1.3006 1.0723,0.9006 1.7723,0.9006 L8.0723,0.9006 C8.7733,0.9006 9.0723,1.2006 9.2733,1.9006 L18.1733,30.4026 L18.4733,30.4026 L27.3743,1.9006 C27.5733,1.2006 27.8743,0.9006 28.4743,0.9006 L34.6743,0.9006 C35.3743,0.9006 35.5743,1.3006 35.3743,1.9006 L22.2733,40.8026 L22.2733,67.9046 C22.2733,68.5046 21.8733,68.9046 21.2733,68.9046 L15.1733,68.9046 Z" id="Fill-1"></path>
            <path d="M43.0723,1.9007 C43.0723,1.2997 43.4723,0.9007 44.0723,0.9007 L69.7743,0.9007 C70.3753,0.9007 70.7743,1.2997 70.7743,1.9007 L70.7743,7.4007 C70.7743,8.0017 70.3753,8.4007 69.7743,8.4007 L51.7733,8.4007 C51.3733,8.4007 51.1743,8.6007 51.1743,9.0017 L51.1743,30.2027 C51.1743,30.6017 51.3733,30.8017 51.7733,30.8017 L67.3743,30.8017 C67.9743,30.8017 68.3743,31.2027 68.3743,31.8017 L68.3743,37.3027 C68.3743,37.9027 67.9743,38.3027 67.3743,38.3027 L51.7733,38.3027 C51.3733,38.3027 51.1743,38.5027 51.1743,38.9027 L51.1743,60.8037 C51.1743,61.2047 51.3733,61.4047 51.7733,61.4047 L69.7743,61.4047 C70.3753,61.4047 70.7743,61.8037 70.7743,62.4047 L70.7743,67.9047 C70.7743,68.5047 70.3753,68.9047 69.7743,68.9047 L44.0723,68.9047 C43.4723,68.9047 43.0723,68.5047 43.0723,67.9047 L43.0723,1.9007 Z" id="Fill-3"></path>
            <path d="M93.4727,69.805 C83.1717,69.805 77.9707,64.004 77.4707,52.304 C77.4707,51.703 77.6717,51.303 78.2717,51.203 L84.1717,50.104 C84.8707,50.003 85.2717,50.404 85.2717,51.003 C85.6717,59.404 88.3717,62.405 93.5727,62.405 C98.7727,62.405 101.1727,59.904 101.1727,50.703 C101.1727,42.903 99.6727,40.003 94.2727,37.903 L90.1717,36.303 C80.8707,32.702 78.2717,28.102 78.2717,17.602 C78.2717,6 83.2717,0 93.4727,0 C103.6727,0 108.3727,5.601 108.8727,16.201 C108.8727,16.801 108.5737,17.201 107.9727,17.301 L102.3727,18.201 C101.7737,18.402 101.2737,18.001 101.2737,17.402 C101.0727,10.701 98.8727,7.401 93.6717,7.401 C88.6717,7.401 86.2717,10.401 86.2717,17.301 C86.2717,24.302 87.8717,26.702 93.3717,28.802 L97.4727,30.403 C106.1727,33.903 109.2737,38.403 109.2737,49.703 C109.2737,63.405 104.9727,69.805 93.4727,69.805" id="Fill-5"></path>
        </g>
    </g>
</svg>