<?xml version="1.0" encoding="UTF-8"?>
<svg width="385px" height="171px" viewBox="0 0 385 171" version="1.1" xmlns="http://www.w3.org/2000/svg" xmlns:xlink="http://www.w3.org/1999/xlink">
    <!-- Generator: Sketch 50.2 (55047) - http://www.bohemiancoding.com/sketch -->
    <title>Group 47</title>
    <desc>Created with Sketch.</desc>
    <defs>
        <polygon id="path-1" points="0.9941 0.0957 28.695 0.0957 28.695 68.0997 0.9941 68.0997"></polygon>
    </defs>
    <g id="Page-1" stroke="none" stroke-width="1" fill="none" fill-rule="evenodd">
        <g id="Group-47">
            <rect id="Rectangle-4-Copy-3" fill="#FFF3E6" x="0" y="0" width="385" height="171"></rect>
            <g id="Group" transform="translate(46.000000, 50.000000)">
                <path d="M0,1.9007 C0,1.2997 0.4,0.9007 1,0.9007 L8.5,0.9007 C9.3,0.9007 9.8,1.2007 10,1.9007 L25.201,52.9037 L25.602,52.9037 L25.602,1.9007 C25.602,1.2997 26.001,0.9007 26.602,0.9007 L31.902,0.9007 C32.502,0.9007 32.902,1.2997 32.902,1.9007 L32.902,67.9047 C32.902,68.5047 32.502,68.9047 31.902,68.9047 L24.801,68.9047 C24.001,68.9047 23.501,68.6047 23.301,67.9047 L7.8,16.9017 L7.3,16.9017 L7.3,67.9047 C7.3,68.5047 6.9,68.9047 6.3,68.9047 L1,68.9047 C0.4,68.9047 0,68.5047 0,67.9047 L0,1.9007 Z" id="Fill-7" fill="#2D297C"></path>
                <path d="M67.3003,57.4036 C67.9003,55.4036 68.1003,53.9036 68.1003,34.9026 C68.1003,15.9016 67.9003,14.4016 67.3003,12.4006 C66.3003,9.3006 63.7003,7.6006 60.0993,7.6006 C56.4993,7.6006 53.9993,9.3006 52.9993,12.4006 C52.2993,14.4016 52.0993,15.9016 52.0993,34.9026 C52.0993,53.9036 52.2993,55.4036 52.9993,57.4036 C53.9993,60.5046 56.4993,62.2046 60.0993,62.2046 C63.7003,62.2046 66.3003,60.5046 67.3003,57.4036 M45.1983,59.7046 C44.1983,56.7036 43.8993,54.2036 43.8993,34.9026 C43.8993,15.6006 44.1983,13.1006 45.1983,10.1006 C47.2993,3.6006 52.3993,0.0006 60.0993,0.0006 C67.8003,0.0006 73.0003,3.6006 75.0013,10.1006 C76.0013,13.1006 76.3003,15.6006 76.3003,34.9026 C76.3003,54.2036 76.0013,56.7036 75.0013,59.7046 C73.0003,66.2046 67.8003,69.8046 60.0993,69.8046 C52.3993,69.8046 47.2993,66.2046 45.1983,59.7046" id="Fill-9" fill="#2D297C"></path>
                <path d="M94.999,68.9046 C94.399,68.9046 93.999,68.5046 93.999,67.9046 L93.999,9.0016 C93.999,8.6006 93.799,8.4006 93.399,8.4006 L82.198,8.4006 C81.598,8.4006 81.198,8.0016 81.198,7.4006 L81.198,1.9006 C81.198,1.3006 81.598,0.9006 82.198,0.9006 L113.9,0.9006 C114.5,0.9006 114.9,1.3006 114.9,1.9006 L114.9,7.4006 C114.9,8.0016 114.5,8.4006 113.9,8.4006 L102.7,8.4006 C102.299,8.4006 102.1,8.6006 102.1,9.0016 L102.1,67.9046 C102.1,68.5046 101.7,68.9046 101.1,68.9046 L94.999,68.9046 Z" id="Fill-11" fill="#2D297C"></path>
                <path d="M154.3965,69.805 C144.0965,69.805 138.8965,64.004 138.3965,52.304 C138.3965,51.703 138.5955,51.303 139.1965,51.203 L145.0965,50.104 C145.7965,50.003 146.1975,50.404 146.1975,51.003 C146.5965,59.404 149.2965,62.405 154.4975,62.405 C159.6975,62.405 162.0975,59.904 162.0975,50.703 C162.0975,42.903 160.5975,40.003 155.1975,37.903 L151.0965,36.303 C141.7965,32.702 139.1965,28.102 139.1965,17.602 C139.1965,6 144.1965,0 154.3965,0 C164.5975,0 169.2975,5.601 169.7975,16.201 C169.7975,16.801 169.4985,17.201 168.8985,17.301 L163.2975,18.201 C162.6975,18.402 162.1975,18.001 162.1975,17.402 C161.9985,10.701 159.7965,7.401 154.5975,7.401 C149.5965,7.401 147.1975,10.401 147.1975,17.301 C147.1975,24.302 148.7965,26.702 154.2965,28.802 L158.3975,30.403 C167.0975,33.903 170.1985,38.403 170.1985,49.703 C170.1985,63.405 165.8985,69.805 154.3965,69.805" id="Fill-13" fill="#2D297C"></path>
                <path d="M179.9961,52.2034 L179.9961,1.9004 C179.9961,1.3004 180.3961,0.9004 180.9961,0.9004 L187.0971,0.9004 C187.6961,0.9004 188.0971,1.3004 188.0971,1.9004 L188.0971,53.2034 C188.0971,59.1034 191.0971,62.2044 195.8961,62.2044 C200.6971,62.2044 203.6971,59.1034 203.6971,53.2034 L203.6971,1.9004 C203.6971,1.3004 204.0981,0.9004 204.6971,0.9004 L210.7981,0.9004 C211.3981,0.9004 211.7981,1.3004 211.7981,1.9004 L211.7981,52.2034 C211.7981,63.9044 205.5981,69.8054 195.8961,69.8054 C186.1961,69.8054 179.9961,63.9044 179.9961,52.2034" id="Fill-15" fill="#2D297C"></path>
                <path d="M246.9961,20.5013 C246.9961,11.3013 243.9961,8.4003 236.7951,8.4003 L232.4951,8.4003 C232.0961,8.4003 231.8951,8.6013 231.8951,9.0013 L231.8951,32.0023 C231.8951,32.4023 232.0961,32.6033 232.4951,32.6033 L236.7951,32.6033 C243.7961,32.6033 246.9961,29.8023 246.9961,20.5013 Z M248.9961,68.9043 C248.3961,68.9043 248.0961,68.7043 247.8961,68.2043 L239.3951,39.8033 C238.4961,39.9023 237.4961,39.9023 236.5961,39.9023 L232.4951,39.9023 C232.0961,39.9023 231.8951,40.1033 231.8951,40.5033 L231.8951,67.9043 C231.8951,68.5043 231.4951,68.9043 230.8941,68.9043 L224.7951,68.9043 C224.1951,68.9043 223.7951,68.5043 223.7951,67.9043 L223.7951,1.9003 C223.7951,1.3003 224.1951,0.9003 224.7951,0.9003 L236.6951,0.9003 C248.6961,0.9003 255.0971,6.1013 255.0971,20.5013 C255.0971,29.6023 252.0971,35.1033 246.7971,37.8033 L256.2971,67.9043 C256.4961,68.4043 256.2971,68.9043 255.7971,68.9043 L248.9961,68.9043 Z" id="Fill-17" fill="#2D297C"></path>
                <g id="Group-21" transform="translate(265.000000, 0.805000)">
                    <mask id="mask-2" fill="white">
                        <use xlink:href="#path-1"></use>
                    </mask>
                    <g id="Clip-20"></g>
                    <path d="M0.9941,1.0957 C0.9941,0.4947 1.3941,0.0957 1.9941,0.0957 L27.6951,0.0957 C28.2961,0.0957 28.6951,0.4947 28.6951,1.0957 L28.6951,6.5957 C28.6951,7.1967 28.2961,7.5957 27.6951,7.5957 L9.6941,7.5957 C9.2951,7.5957 9.0951,7.7957 9.0951,8.1967 L9.0951,29.3977 C9.0951,29.7967 9.2951,29.9967 9.6941,29.9967 L25.2951,29.9967 C25.8951,29.9967 26.2951,30.3977 26.2951,30.9967 L26.2951,36.4977 C26.2951,37.0977 25.8951,37.4977 25.2951,37.4977 L9.6941,37.4977 C9.2951,37.4977 9.0951,37.6977 9.0951,38.0977 L9.0951,59.9987 C9.0951,60.3997 9.2951,60.5997 9.6941,60.5997 L27.6951,60.5997 C28.2961,60.5997 28.6951,60.9987 28.6951,61.5997 L28.6951,67.0997 C28.6951,67.6997 28.2961,68.0997 27.6951,68.0997 L1.9941,68.0997 C1.3941,68.0997 0.9941,67.6997 0.9941,67.0997 L0.9941,1.0957 Z" id="Fill-19" fill="#2D297C" mask="url(#mask-2)"></path>
                </g>
            </g>
        </g>
    </g>
</svg>