<?xml version="1.0" encoding="UTF-8"?>
<svg width="156px" height="148px" viewBox="0 0 156 148" version="1.1" xmlns="http://www.w3.org/2000/svg" xmlns:xlink="http://www.w3.org/1999/xlink">
    <!-- Generator: Sketch 51.2 (57519) - http://www.bohemiancoding.com/sketch -->
    <title>05b_notsure</title>
    <desc>Created with Sketch.</desc>
    <defs>
        <polygon id="path-1" points="0.9941 0.0957 28.695 0.0957 28.695 68.0997 0.9941 68.0997"></polygon>
    </defs>
    <g id="Page-1" stroke="none" stroke-width="1" fill="none" fill-rule="evenodd">
        <g id="05b_notsure">
            <path d="M24,1.9007 C24,1.2997 24.4,0.9007 25,0.9007 L32.5,0.9007 C33.3,0.9007 33.8,1.2007 34,1.9007 L49.201,52.9037 L49.602,52.9037 L49.602,1.9007 C49.602,1.2997 50.001,0.9007 50.602,0.9007 L55.902,0.9007 C56.502,0.9007 56.902,1.2997 56.902,1.9007 L56.902,67.9047 C56.902,68.5047 56.502,68.9047 55.902,68.9047 L48.801,68.9047 C48.001,68.9047 47.501,68.6047 47.301,67.9047 L31.8,16.9017 L31.3,16.9017 L31.3,67.9047 C31.3,68.5047 30.9,68.9047 30.3,68.9047 L25,68.9047 C24.4,68.9047 24,68.5047 24,67.9047 L24,1.9007 Z" id="Fill-7" fill="#2D297C" fill-rule="nonzero"></path>
            <path d="M91.3003,57.4036 C91.9003,55.4036 92.1003,53.9036 92.1003,34.9026 C92.1003,15.9016 91.9003,14.4016 91.3003,12.4006 C90.3003,9.3006 87.7003,7.6006 84.0993,7.6006 C80.4993,7.6006 77.9993,9.3006 76.9993,12.4006 C76.2993,14.4016 76.0993,15.9016 76.0993,34.9026 C76.0993,53.9036 76.2993,55.4036 76.9993,57.4036 C77.9993,60.5046 80.4993,62.2046 84.0993,62.2046 C87.7003,62.2046 90.3003,60.5046 91.3003,57.4036 M69.1983,59.7046 C68.1983,56.7036 67.8993,54.2036 67.8993,34.9026 C67.8993,15.6006 68.1983,13.1006 69.1983,10.1006 C71.2993,3.6006 76.3993,0.0006 84.0993,0.0006 C91.8003,0.0006 97.0003,3.6006 99.0013,10.1006 C100.0013,13.1006 100.3003,15.6006 100.3003,34.9026 C100.3003,54.2036 100.0013,56.7036 99.0013,59.7046 C97.0003,66.2046 91.8003,69.8046 84.0993,69.8046 C76.3993,69.8046 71.2993,66.2046 69.1983,59.7046" id="Fill-9" fill="#2D297C" fill-rule="nonzero"></path>
            <path d="M118.999,68.9046 C118.399,68.9046 117.999,68.5046 117.999,67.9046 L117.999,9.0016 C117.999,8.6006 117.799,8.4006 117.399,8.4006 L106.198,8.4006 C105.598,8.4006 105.198,8.0016 105.198,7.4006 L105.198,1.9006 C105.198,1.3006 105.598,0.9006 106.198,0.9006 L137.9,0.9006 C138.5,0.9006 138.9,1.3006 138.9,1.9006 L138.9,7.4006 C138.9,8.0016 138.5,8.4006 137.9,8.4006 L126.7,8.4006 C126.299,8.4006 126.1,8.6006 126.1,9.0016 L126.1,67.9046 C126.1,68.5046 125.7,68.9046 125.1,68.9046 L118.999,68.9046 Z" id="Fill-11" fill="#2D297C" fill-rule="nonzero"></path>
            <path d="M16,147.805 C5.7,147.805 0.5,142.004 0,130.304 C0,129.703 0.199,129.303 0.8,129.203 L6.7,128.104 C7.4,128.003 7.801,128.404 7.801,129.003 C8.2,137.404 10.9,140.405 16.101,140.405 C21.301,140.405 23.701,137.904 23.701,128.703 C23.701,120.903 22.201,118.003 16.801,115.903 L12.7,114.303 C3.4,110.702 0.8,106.102 0.8,95.602 C0.8,84 5.8,78 16,78 C26.201,78 30.901,83.601 31.401,94.201 C31.401,94.801 31.102,95.201 30.502,95.301 L24.901,96.201 C24.301,96.402 23.801,96.001 23.801,95.402 C23.602,88.701 21.4,85.401 16.201,85.401 C11.2,85.401 8.801,88.401 8.801,95.301 C8.801,102.302 10.4,104.702 15.9,106.802 L20.001,108.403 C28.701,111.903 31.802,116.403 31.802,127.703 C31.802,141.405 27.502,147.805 16,147.805" id="Fill-13" fill="#2D297C" fill-rule="nonzero"></path>
            <path d="M42,130.303 L42,80 C42,79.4 42.4,79 43,79 L49.101,79 C49.7,79 50.101,79.4 50.101,80 L50.101,131.303 C50.101,137.203 53.101,140.304 57.9,140.304 C62.701,140.304 65.701,137.203 65.701,131.303 L65.701,80 C65.701,79.4 66.102,79 66.701,79 L72.802,79 C73.402,79 73.802,79.4 73.802,80 L73.802,130.303 C73.802,142.004 67.602,147.905 57.9,147.905 C48.2,147.905 42,142.004 42,130.303" id="Fill-15" fill="#2D297C" fill-rule="nonzero"></path>
            <path d="M108.201,98.601 C108.201,89.401 105.201,86.5 98,86.5 L93.7,86.5 C93.301,86.5 93.1,86.701 93.1,87.101 L93.1,110.102 C93.1,110.502 93.301,110.703 93.7,110.703 L98,110.703 C105.001,110.703 108.201,107.902 108.201,98.601 Z M110.201,147.004 C109.601,147.004 109.301,146.804 109.101,146.304 L100.6,117.903 C99.701,118.002 98.701,118.002 97.801,118.002 L93.7,118.002 C93.301,118.002 93.1,118.203 93.1,118.603 L93.1,146.004 C93.1,146.604 92.7,147.004 92.099,147.004 L86,147.004 C85.4,147.004 85,146.604 85,146.004 L85,80 C85,79.4 85.4,79 86,79 L97.9,79 C109.901,79 116.302,84.201 116.302,98.601 C116.302,107.702 113.302,113.203 108.002,115.903 L117.502,146.004 C117.701,146.504 117.502,147.004 117.002,147.004 L110.201,147.004 Z" id="Fill-17" fill="#2D297C" fill-rule="nonzero"></path>
            <g id="Group-21" transform="translate(127.000000, 79.000000)">
                <g id="Fill-19-Clipped">
                    <mask id="mask-2" fill="white">
                        <use xlink:href="#path-1"></use>
                    </mask>
                    <g id="path-1"></g>
                    <path d="M0.9941,1.0957 C0.9941,0.4947 1.3941,0.0957 1.9941,0.0957 L27.6951,0.0957 C28.2961,0.0957 28.6951,0.4947 28.6951,1.0957 L28.6951,6.5957 C28.6951,7.1967 28.2961,7.5957 27.6951,7.5957 L9.6941,7.5957 C9.2951,7.5957 9.0951,7.7957 9.0951,8.1967 L9.0951,29.3977 C9.0951,29.7967 9.2951,29.9967 9.6941,29.9967 L25.2951,29.9967 C25.8951,29.9967 26.2951,30.3977 26.2951,30.9967 L26.2951,36.4977 C26.2951,37.0977 25.8951,37.4977 25.2951,37.4977 L9.6941,37.4977 C9.2951,37.4977 9.0951,37.6977 9.0951,38.0977 L9.0951,59.9987 C9.0951,60.3997 9.2951,60.5997 9.6941,60.5997 L27.6951,60.5997 C28.2961,60.5997 28.6951,60.9987 28.6951,61.5997 L28.6951,67.0997 C28.6951,67.6997 28.2961,68.0997 27.6951,68.0997 L1.9941,68.0997 C1.3941,68.0997 0.9941,67.6997 0.9941,67.0997 L0.9941,1.0957 Z" id="Fill-19" fill="#2D297C" fill-rule="nonzero" mask="url(#mask-2)"></path>
                </g>
            </g>
        </g>
    </g>
</svg>