<?xml version="1.0" encoding="UTF-8"?>
<svg width="156px" height="157px" viewBox="0 0 156 157" version="1.1" xmlns="http://www.w3.org/2000/svg" xmlns:xlink="http://www.w3.org/1999/xlink">
    <!-- Generator: Sketch 51.2 (57519) - http://www.bohemiancoding.com/sketch -->
    <title>05b_notsure</title>
    <desc>Created with Sketch.</desc>
    <defs>
        <polygon id="path-1" points="0.9941 0.0957 28.695 0.0957 28.695 68.0997 0.9941 68.0997"></polygon>
    </defs>
    <g id="Page-1" stroke="none" stroke-width="1" fill="none" fill-rule="evenodd">
        <g id="05b_notsure">
            <path d="M18,1.9007 C18,1.2997 18.4,0.9007 19,0.9007 L26.5,0.9007 C27.3,0.9007 27.8,1.2007 28,1.9007 L43.201,52.9037 L43.602,52.9037 L43.602,1.9007 C43.602,1.2997 44.001,0.9007 44.602,0.9007 L49.902,0.9007 C50.502,0.9007 50.902,1.2997 50.902,1.9007 L50.902,67.9047 C50.902,68.5047 50.502,68.9047 49.902,68.9047 L42.801,68.9047 C42.001,68.9047 41.501,68.6047 41.301,67.9047 L25.8,16.9017 L25.3,16.9017 L25.3,67.9047 C25.3,68.5047 24.9,68.9047 24.3,68.9047 L19,68.9047 C18.4,68.9047 18,68.5047 18,67.9047 L18,1.9007 Z" id="Fill-7" fill="#2D297C" fill-rule="nonzero"></path>
            <path d="M85.3003,57.4036 C85.9003,55.4036 86.1003,53.9036 86.1003,34.9026 C86.1003,15.9016 85.9003,14.4016 85.3003,12.4006 C84.3003,9.3006 81.7003,7.6006 78.0993,7.6006 C74.4993,7.6006 71.9993,9.3006 70.9993,12.4006 C70.2993,14.4016 70.0993,15.9016 70.0993,34.9026 C70.0993,53.9036 70.2993,55.4036 70.9993,57.4036 C71.9993,60.5046 74.4993,62.2046 78.0993,62.2046 C81.7003,62.2046 84.3003,60.5046 85.3003,57.4036 M63.1983,59.7046 C62.1983,56.7036 61.8993,54.2036 61.8993,34.9026 C61.8993,15.6006 62.1983,13.1006 63.1983,10.1006 C65.2993,3.6006 70.3993,0.0006 78.0993,0.0006 C85.8003,0.0006 91.0003,3.6006 93.0013,10.1006 C94.0013,13.1006 94.3003,15.6006 94.3003,34.9026 C94.3003,54.2036 94.0013,56.7036 93.0013,59.7046 C91.0003,66.2046 85.8003,69.8046 78.0993,69.8046 C70.3993,69.8046 65.2993,66.2046 63.1983,59.7046" id="Fill-9" fill="#2D297C" fill-rule="nonzero"></path>
            <path d="M112.999,68.9046 C112.399,68.9046 111.999,68.5046 111.999,67.9046 L111.999,9.0016 C111.999,8.6006 111.799,8.4006 111.399,8.4006 L100.198,8.4006 C99.598,8.4006 99.198,8.0016 99.198,7.4006 L99.198,1.9006 C99.198,1.3006 99.598,0.9006 100.198,0.9006 L131.9,0.9006 C132.5,0.9006 132.9,1.3006 132.9,1.9006 L132.9,7.4006 C132.9,8.0016 132.5,8.4006 131.9,8.4006 L120.7,8.4006 C120.299,8.4006 120.1,8.6006 120.1,9.0016 L120.1,67.9046 C120.1,68.5046 119.7,68.9046 119.1,68.9046 L112.999,68.9046 Z" id="Fill-11" fill="#2D297C" fill-rule="nonzero"></path>
            <path d="M16,156.805 C5.7,156.805 0.5,151.004 0,139.304 C0,138.703 0.199,138.303 0.8,138.203 L6.7,137.104 C7.4,137.003 7.801,137.404 7.801,138.003 C8.2,146.404 10.9,149.405 16.101,149.405 C21.301,149.405 23.701,146.904 23.701,137.703 C23.701,129.903 22.201,127.003 16.801,124.903 L12.7,123.303 C3.4,119.702 0.8,115.102 0.8,104.602 C0.8,93 5.8,87 16,87 C26.201,87 30.901,92.601 31.401,103.201 C31.401,103.801 31.102,104.201 30.502,104.301 L24.901,105.201 C24.301,105.402 23.801,105.001 23.801,104.402 C23.602,97.701 21.4,94.401 16.201,94.401 C11.2,94.401 8.801,97.401 8.801,104.301 C8.801,111.302 10.4,113.702 15.9,115.802 L20.001,117.403 C28.701,120.903 31.802,125.403 31.802,136.703 C31.802,150.405 27.502,156.805 16,156.805" id="Fill-13" fill="#2D297C" fill-rule="nonzero"></path>
            <path d="M42,139.303 L42,89 C42,88.4 42.4,88 43,88 L49.101,88 C49.7,88 50.101,88.4 50.101,89 L50.101,140.303 C50.101,146.203 53.101,149.304 57.9,149.304 C62.701,149.304 65.701,146.203 65.701,140.303 L65.701,89 C65.701,88.4 66.102,88 66.701,88 L72.802,88 C73.402,88 73.802,88.4 73.802,89 L73.802,139.303 C73.802,151.004 67.602,156.905 57.9,156.905 C48.2,156.905 42,151.004 42,139.303" id="Fill-15" fill="#2D297C" fill-rule="nonzero"></path>
            <path d="M108.201,107.601 C108.201,98.401 105.201,95.5 98,95.5 L93.7,95.5 C93.301,95.5 93.1,95.701 93.1,96.101 L93.1,119.102 C93.1,119.502 93.301,119.703 93.7,119.703 L98,119.703 C105.001,119.703 108.201,116.902 108.201,107.601 Z M110.201,156.004 C109.601,156.004 109.301,155.804 109.101,155.304 L100.6,126.903 C99.701,127.002 98.701,127.002 97.801,127.002 L93.7,127.002 C93.301,127.002 93.1,127.203 93.1,127.603 L93.1,155.004 C93.1,155.604 92.7,156.004 92.099,156.004 L86,156.004 C85.4,156.004 85,155.604 85,155.004 L85,89 C85,88.4 85.4,88 86,88 L97.9,88 C109.901,88 116.302,93.201 116.302,107.601 C116.302,116.702 113.302,122.203 108.002,124.903 L117.502,155.004 C117.701,155.504 117.502,156.004 117.002,156.004 L110.201,156.004 Z" id="Fill-17" fill="#2D297C" fill-rule="nonzero"></path>
            <g id="Group-21" transform="translate(127.000000, 88.000000)">
                <g id="Fill-19-Clipped">
                    <mask id="mask-2" fill="white">
                        <use xlink:href="#path-1"></use>
                    </mask>
                    <g id="path-1"></g>
                    <path d="M0.9941,1.0957 C0.9941,0.4947 1.3941,0.0957 1.9941,0.0957 L27.6951,0.0957 C28.2961,0.0957 28.6951,0.4947 28.6951,1.0957 L28.6951,6.5957 C28.6951,7.1967 28.2961,7.5957 27.6951,7.5957 L9.6941,7.5957 C9.2951,7.5957 9.0951,7.7957 9.0951,8.1967 L9.0951,29.3977 C9.0951,29.7967 9.2951,29.9967 9.6941,29.9967 L25.2951,29.9967 C25.8951,29.9967 26.2951,30.3977 26.2951,30.9967 L26.2951,36.4977 C26.2951,37.0977 25.8951,37.4977 25.2951,37.4977 L9.6941,37.4977 C9.2951,37.4977 9.0951,37.6977 9.0951,38.0977 L9.0951,59.9987 C9.0951,60.3997 9.2951,60.5997 9.6941,60.5997 L27.6951,60.5997 C28.2961,60.5997 28.6951,60.9987 28.6951,61.5997 L28.6951,67.0997 C28.6951,67.6997 28.2961,68.0997 27.6951,68.0997 L1.9941,68.0997 C1.3941,68.0997 0.9941,67.6997 0.9941,67.0997 L0.9941,1.0957 Z" id="Fill-19" fill="#2D297C" fill-rule="nonzero" mask="url(#mask-2)"></path>
                </g>
            </g>
        </g>
    </g>
</svg>