<?xml version="1.0" encoding="UTF-8"?>
<svg width="385px" height="171px" viewBox="0 0 385 171" version="1.1" xmlns="http://www.w3.org/2000/svg" xmlns:xlink="http://www.w3.org/1999/xlink">
    <!-- Generator: Sketch 50.2 (55047) - http://www.bohemiancoding.com/sketch -->
    <title>Group 45</title>
    <desc>Created with Sketch.</desc>
    <defs></defs>
    <g id="Page-1" stroke="none" stroke-width="1" fill="none" fill-rule="evenodd">
        <g id="Group-45">
            <rect id="Rectangle-4-Copy-4" fill="#FFF3E6" x="0" y="0" width="385" height="171"></rect>
            <g id="Group-3" transform="translate(154.000000, 50.000000)" fill="#2D297C">
                <path d="M0.6772,1.9007 C0.6772,1.2997 1.0772,0.9007 1.6772,0.9007 L9.1772,0.9007 C9.9772,0.9007 10.4772,1.2007 10.6772,1.9007 L25.8792,52.9037 L26.2792,52.9037 L26.2792,1.9007 C26.2792,1.2997 26.6782,0.9007 27.2792,0.9007 L32.5792,0.9007 C33.1792,0.9007 33.5792,1.2997 33.5792,1.9007 L33.5792,67.9047 C33.5792,68.5047 33.1792,68.9047 32.5792,68.9047 L25.4782,68.9047 C24.6782,68.9047 24.1782,68.6047 23.9782,67.9047 L8.4772,16.9017 L7.9772,16.9017 L7.9772,67.9047 C7.9772,68.5047 7.5772,68.9047 6.9772,68.9047 L1.6772,68.9047 C1.0772,68.9047 0.6772,68.5047 0.6772,67.9047 L0.6772,1.9007 Z" id="Fill-22"></path>
                <path d="M67.9775,57.4036 C68.5785,55.4036 68.7775,53.9036 68.7775,34.9026 C68.7775,15.9016 68.5785,14.4016 67.9775,12.4006 C66.9775,9.3006 64.3765,7.6006 60.7775,7.6006 C57.1765,7.6006 54.6765,9.3006 53.6765,12.4006 C52.9765,14.4016 52.7765,15.9016 52.7765,34.9026 C52.7765,53.9036 52.9765,55.4036 53.6765,57.4036 C54.6765,60.5046 57.1765,62.2046 60.7775,62.2046 C64.3765,62.2046 66.9775,60.5046 67.9775,57.4036 M45.8755,59.7046 C44.8755,56.7036 44.5765,54.2036 44.5765,34.9026 C44.5765,15.6006 44.8755,13.1006 45.8755,10.1006 C47.9765,3.6006 53.0765,0.0006 60.7775,0.0006 C68.4775,0.0006 73.6775,3.6006 75.6775,10.1006 C76.6775,13.1006 76.9785,15.6006 76.9785,34.9026 C76.9785,54.2036 76.6775,56.7036 75.6775,59.7046 C73.6775,66.2046 68.4775,69.8046 60.7775,69.8046 C53.0765,69.8046 47.9765,66.2046 45.8755,59.7046" id="Fill-24"></path>
            </g>
        </g>
    </g>
</svg>