<?xml version="1.0" encoding="UTF-8"?>
<svg width="171px" height="171px" viewBox="0 0 171 171" version="1.1" xmlns="http://www.w3.org/2000/svg" xmlns:xlink="http://www.w3.org/1999/xlink">
    <!-- Generator: Sketch 50.2 (55047) - http://www.bohemiancoding.com/sketch -->
    <title>Group 5 Copy</title>
    <desc>Created with Sketch.</desc>
    <defs></defs>
    <g id="Page-1" stroke="none" stroke-width="1" fill="none" fill-rule="evenodd">
        <g id="Group-5-Copy" fill="#2D297C">
            <path d="M85.1843185,162.015979 C42.8146743,162.015979 8.34431383,127.545618 8.34431383,85.181537 C8.34431383,42.8146743 42.8146743,8.34431383 85.1843185,8.34431383 C127.551181,8.34431383 162.021542,42.8146743 162.021542,85.181537 C162.021542,127.545618 127.551181,162.015979 85.1843185,162.015979 M85.1843185,0 C38.2141759,0 0,38.2113945 0,85.181537 C0,132.15168 38.2141759,170.360293 85.1843185,170.360293 C132.154461,170.360293 170.365856,132.15168 170.365856,85.181537 C170.365856,38.2113945 132.154461,0 85.1843185,0" id="Fill-195"></path>
            <path d="M36.1481238,70.1197724 C38.4539359,70.1197724 40.3202807,68.2534276 40.3202807,65.9476155 C40.3202807,59.3055417 45.7273961,53.8984263 52.3694699,53.8984263 C59.0143252,53.8984263 64.4214405,59.3055417 64.4214405,65.9476155 C64.4214405,68.2534276 66.2877854,70.1197724 68.5935974,70.1197724 C70.8994095,70.1197724 72.7657543,68.2534276 72.7657543,65.9476155 C72.7657543,54.7022619 63.6148235,45.5541125 52.3694699,45.5541125 C41.1241163,45.5541125 31.9759669,54.7022619 31.9759669,65.9476155 C31.9759669,68.2534276 33.8423118,70.1197724 36.1481238,70.1197724" id="Fill-197"></path>
            <path d="M101.775318,70.1197724 C104.08113,70.1197724 105.947475,68.2534276 105.947475,65.9476155 C105.947475,59.3055417 111.351809,53.8984263 117.999445,53.8984263 C124.641519,53.8984263 130.045853,59.3055417 130.045853,65.9476155 C130.045853,68.2534276 131.912198,70.1197724 134.21801,70.1197724 C136.523822,70.1197724 138.390167,68.2534276 138.390167,65.9476155 C138.390167,54.7022619 129.244799,45.5541125 117.999445,45.5541125 C106.754092,45.5541125 97.6031608,54.7022619 97.6031608,65.9476155 C97.6031608,68.2534276 99.4695056,70.1197724 101.775318,70.1197724" id="Fill-199"></path>
            <path d="M120.837903,127.869934 L120.837903,113.690163 L134.695026,113.690163 C133.760463,120.994219 128.091893,126.77961 120.837903,127.869934 Z M35.6702728,113.690163 L49.5329595,113.690163 L49.5329595,127.869934 C42.2761879,126.782392 36.6076174,120.997001 35.6702728,113.690163 Z M49.5329595,95.3382358 L49.5329595,109.518006 L35.6702728,109.518006 C36.6076174,102.211169 42.2761879,96.4257781 49.5329595,95.3382358 Z M104.051925,109.518006 L116.665746,109.518006 L116.665746,95.0906879 L104.051925,95.0906879 L104.051925,109.518006 Z M87.2715095,128.117482 L99.8797677,128.117482 L99.8797677,113.690163 L87.2715095,113.690163 L87.2715095,128.117482 Z M70.4855315,128.117482 L83.0965712,128.117482 L83.0965712,113.690163 L70.4855315,113.690163 L70.4855315,128.117482 Z M87.2715095,109.518006 L99.8797677,109.518006 L99.8797677,95.0906879 L87.2715095,95.0906879 L87.2715095,109.518006 Z M70.488313,109.518006 L83.0993526,109.518006 L83.0993526,95.0906879 L70.488313,95.0906879 L70.488313,109.518006 Z M53.7051164,109.518006 L66.3133746,109.518006 L66.3133746,95.0906879 L53.7051164,95.0906879 L53.7051164,109.518006 Z M53.7051164,128.117482 L66.3133746,128.117482 L66.3133746,113.690163 L53.7051164,113.690163 L53.7051164,128.117482 Z M104.051925,128.117482 L116.665746,128.117482 L116.665746,113.690163 L104.051925,113.690163 L104.051925,128.117482 Z M134.695026,109.518006 L120.837903,109.518006 L120.837903,95.3382358 C128.091893,96.4285595 133.760463,102.21395 134.695026,109.518006 Z M141.16187,111.687528 C141.16187,111.659714 141.167433,111.631899 141.167433,111.604085 C141.167433,111.579052 141.16187,111.551238 141.16187,111.523423 L141.16187,109.518006 L141.061738,109.518006 C140.00201,97.9360989 130.247507,88.8324525 118.393019,88.8324525 L51.9722806,88.8324525 C40.117792,88.8324525 30.3660706,97.9360989 29.3091242,109.518006 L29.206211,109.518006 L29.206211,111.523423 C29.206211,111.551238 29.2034296,111.579052 29.2034296,111.604085 C29.2034296,111.631899 29.206211,111.659714 29.206211,111.687528 L29.206211,113.690163 L29.3091242,113.690163 C30.3660706,125.272071 40.117792,134.375717 51.9722806,134.375717 L118.393019,134.375717 C130.247507,134.375717 140.00201,125.272071 141.061738,113.690163 L141.16187,113.690163 L141.16187,111.687528 Z" id="Fill-201"></path>
        </g>
    </g>
</svg>