<?xml version="1.0" encoding="UTF-8"?>
<svg width="150px" height="150px" viewBox="0 0 150 150" version="1.1" xmlns="http://www.w3.org/2000/svg" xmlns:xlink="http://www.w3.org/1999/xlink">
    <!-- Generator: Sketch 50.2 (55047) - http://www.bohemiancoding.com/sketch -->
    <title>Group 6 Copy</title>
    <desc>Created with Sketch.</desc>
    <defs></defs>
    <g id="Page-1" stroke="none" stroke-width="1" fill="none" fill-rule="evenodd">
        <g id="Group-6-Copy">
            <g id="Group" transform="translate(36.526316, 28.631579)">
                <path d="M47.8486842,33.375 L53.2763158,33.375 L53.2763158,40.6118421 L60.5131579,33.375 L67.75,33.375 C76.7417763,33.375 84.0328947,26.0838816 84.0328947,17.0921053 C84.0328947,8.10032895 76.7417763,0.809210526 67.75,0.809210526 L46.0394737,0.809210526 C37.0476974,0.809210526 29.7855263,8.10032895 29.7855263,17.0921053" id="Stroke-15" stroke="#2D297C" stroke-width="2.5" stroke-linejoin="round"></path>
                <path d="M20.7105263,57.5731908 L20.7105263,65.4685855 L6.45032895,70.5777961 C3.03453947,71.7935855 0.809210526,75.0248355 0.809210526,78.646875 L0.809210526,84.0310855 L55.0855263,84.0310855 L55.0855263,78.646875 C55.0855263,75.0248355 52.8601974,71.7935855 49.4444079,70.5777961 L35.1842105,65.4685855 L35.1842105,57.0629934" id="Stroke-17" stroke="#2D297C" stroke-width="2.5" stroke-linejoin="round"></path>
                <path d="M41.8732237,42.6084868 C41.8732237,52.0742763 35.4758553,59.7525658 27.5913158,59.7525658 C19.6995395,59.7525658 13.3057895,52.0742763 13.3057895,42.6084868 C13.3057895,33.1426974 19.6995395,25.4752632 27.5913158,25.4752632 C35.4758553,25.4752632 41.8732237,33.1426974 41.8732237,42.6084868 Z" id="Stroke-19" stroke="#2D297C" stroke-width="2.5" stroke-linejoin="round"></path>
                <path d="M41.7990461,41.0608882 C41.3177961,41.1260197 40.930625,41.0934539 40.4457566,41.1839145 C35.5789803,42.1210855 32.4562829,40.3589145 29.7786513,35.6730592 C28.1684539,38.7487171 23.1497039,41.1839145 19.0210855,41.1839145 C16.9911513,41.1839145 15.1964145,40.8148355 13.4450987,39.8957566" id="Stroke-21" stroke="#2D297C" stroke-width="2.5" stroke-linejoin="round"></path>
                <polygon id="Fill-23" fill="#2D297C" points="67.75 20.7098026 71.3684211 20.7098026 71.3684211 17.0913816 67.75 17.0913816"></polygon>
                <polygon id="Fill-25" fill="#2D297C" points="56.8947368 20.7098026 60.5131579 20.7098026 60.5131579 17.0913816 56.8947368 17.0913816"></polygon>
                <polygon id="Fill-26" fill="#2D297C" points="46.0394737 20.7098026 49.6578947 20.7098026 49.6578947 17.0913816 46.0394737 17.0913816"></polygon>
            </g>
            <circle id="Oval-2" stroke="#2D297C" stroke-width="5" cx="75" cy="75" r="72.5"></circle>
        </g>
    </g>
</svg>