<?xml version="1.0" encoding="UTF-8"?>
<svg width="150px" height="150px" viewBox="0 0 150 150" version="1.1" xmlns="http://www.w3.org/2000/svg" xmlns:xlink="http://www.w3.org/1999/xlink">
    <!-- Generator: Sketch 50.2 (55047) - http://www.bohemiancoding.com/sketch -->
    <title>Group 8 Copy</title>
    <desc>Created with Sketch.</desc>
    <defs></defs>
    <g id="Page-1" stroke="none" stroke-width="1" fill="none" fill-rule="evenodd">
        <g id="Group-8-Copy" stroke="#2D297C">
            <g id="Group-3" transform="translate(32.578947, 48.368421)" stroke-linecap="round" stroke-linejoin="round" stroke-width="2.5">
                <polygon id="Stroke-27" points="73.1494079 43.5130921 42.3928289 43.5130921 11.63625 43.5130921 11.63625 7.32888158 73.1494079 7.32888158"></polygon>
                <path d="M4.39940789,50.7499342 L4.39940789,5.51967105 C4.39940789,2.52723684 6.83098684,0.0920394737 9.82703947,0.0920394737 L74.9586184,0.0920394737 C77.9546711,0.0920394737 80.38625,2.52723684 80.38625,5.51967105 L80.38625,50.7499342" id="Stroke-28"></path>
                <path d="M51.4388816,50.7499342 L51.4388816,54.3683553 L33.3467763,54.3683553 L33.3467763,50.7499342 L0.780986842,50.7499342 L0.780986842,57.9867763 C0.780986842,59.9877632 2.40203947,61.6051974 4.39940789,61.6051974 L80.38625,61.6051974 C82.3872368,61.6051974 84.0046711,59.9877632 84.0046711,57.9867763 L84.0046711,50.7499342 L51.4388816,50.7499342 Z" id="Stroke-29"></path>
            </g>
            <circle id="Oval-2-Copy-2" stroke-width="5" cx="75" cy="75" r="72.5"></circle>
        </g>
    </g>
</svg>