<?xml version="1.0" encoding="UTF-8"?>
<svg width="150px" height="150px" viewBox="0 0 150 150" version="1.1" xmlns="http://www.w3.org/2000/svg" xmlns:xlink="http://www.w3.org/1999/xlink">
    <!-- Generator: Sketch 50.2 (55047) - http://www.bohemiancoding.com/sketch -->
    <title>Group 7 Copy</title>
    <desc>Created with Sketch.</desc>
    <defs></defs>
    <g id="Page-1" stroke="none" stroke-width="1" fill="none" fill-rule="evenodd">
        <g id="Group-7-Copy">
            <g id="Group-2" transform="translate(38.526316, 37.526316)">
                <polygon id="Fill-1" fill="#2D297C" points="9.63552632 13.5657237 16.8723684 13.5657237 16.8723684 6.32888158 9.63552632 6.32888158"></polygon>
                <polygon id="Fill-2" fill="#2D297C" points="24.1092105 13.5657237 31.3460526 13.5657237 31.3460526 6.32888158 24.1092105 6.32888158"></polygon>
                <polygon id="Fill-3" fill="#2D297C" points="53.0565789 13.5657237 60.2934211 13.5657237 60.2934211 6.32888158 53.0565789 6.32888158"></polygon>
                <polygon id="Fill-4" fill="#2D297C" points="38.5828947 13.5657237 45.8197368 13.5657237 45.8197368 6.32888158 38.5828947 6.32888158"></polygon>
                <path d="M56.6757237,6.32888158 L56.6757237,2.71046053" id="Stroke-5" stroke="#2D297C" stroke-width="2.5" stroke-linecap="round" stroke-linejoin="round"></path>
                <path d="M42.2020395,6.32888158 L42.2020395,2.71046053" id="Stroke-6" stroke="#2D297C" stroke-width="2.5" stroke-linecap="round" stroke-linejoin="round"></path>
                <path d="M27.7283553,6.32888158 L27.7283553,2.71046053" id="Stroke-7" stroke="#2D297C" stroke-width="2.5" stroke-linecap="round" stroke-linejoin="round"></path>
                <path d="M13.2546711,6.32888158 L13.2546711,2.71046053" id="Stroke-8" stroke="#2D297C" stroke-width="2.5" stroke-linecap="round" stroke-linejoin="round"></path>
                <polyline id="Stroke-9" stroke="#2D297C" stroke-width="2.5" stroke-linecap="round" stroke-linejoin="round" points="33.1559868 73.2696711 0.590197368 73.2696711 0.590197368 0.90125 69.3401974 0.90125 69.3401974 35.27625"></polyline>
                <polygon id="Stroke-10" stroke="#2D297C" stroke-width="2.5" stroke-linecap="round" stroke-linejoin="round" points="56.6684868 80.5065132 44.0040132 84.1249342 47.6224342 71.4604605 74.7678289 44.3186842 83.8138816 53.3647368"></polygon>
                <path d="M67.5309868,51.5591447 L76.5770395,60.6051974" id="Stroke-12" stroke="#2D297C" stroke-width="2.5" stroke-linejoin="round"></path>
                <path d="M47.6224342,71.4604605 L56.6684868,80.5065132" id="Stroke-13" stroke="#2D297C" stroke-width="2.5" stroke-linecap="round" stroke-linejoin="round"></path>
            </g>
            <circle id="Oval-2-Copy" stroke="#2D297C" stroke-width="5" cx="75" cy="75" r="72.5"></circle>
        </g>
    </g>
</svg>