<?xml version="1.0" encoding="UTF-8"?>
<svg width="385px" height="171px" viewBox="0 0 385 171" version="1.1" xmlns="http://www.w3.org/2000/svg" xmlns:xlink="http://www.w3.org/1999/xlink">
    <!-- Generator: Sketch 50.2 (55047) - http://www.bohemiancoding.com/sketch -->
    <title>Group 33</title>
    <desc>Created with Sketch.</desc>
    <defs></defs>
    <g id="Page-1" stroke="none" stroke-width="1" fill="none" fill-rule="evenodd">
        <g id="Group-33">
            <rect id="Rectangle-4" fill="#FFF3E6" x="0" y="0" width="385" height="171"></rect>
            <g id="Group" transform="translate(123.000000, 51.000000)" fill="#2D297C">
                <path d="M0.1592,1.9007 C0.1592,1.2997 0.5592,0.9007 1.1592,0.9007 L7.2592,0.9007 C7.8592,0.9007 8.2602,1.2997 8.2602,1.9007 L8.2602,29.7027 C8.2602,30.1017 8.4592,30.3017 8.8592,30.3017 L23.4602,30.3017 C23.8602,30.3017 24.0602,30.1017 24.0602,29.7027 L24.0602,1.9007 C24.0602,1.2997 24.4602,0.9007 25.0602,0.9007 L31.1612,0.9007 C31.7612,0.9007 32.1612,1.2997 32.1612,1.9007 L32.1612,67.9047 C32.1612,68.5047 31.7612,68.9047 31.1612,68.9047 L25.0602,68.9047 C24.4602,68.9047 24.0602,68.5047 24.0602,67.9047 L24.0602,38.4027 C24.0602,38.0027 23.8602,37.8027 23.4602,37.8027 L8.8592,37.8027 C8.4592,37.8027 8.2602,38.0027 8.2602,38.4027 L8.2602,67.9047 C8.2602,68.5047 7.8592,68.9047 7.2592,68.9047 L1.1592,68.9047 C0.5592,68.9047 0.1592,68.5047 0.1592,67.9047 L0.1592,1.9007 Z" id="Fill-1"></path>
                <path d="M44.2573,1.9007 C44.2573,1.2997 44.6573,0.9007 45.2573,0.9007 L51.3583,0.9007 C51.9583,0.9007 52.3593,1.2997 52.3593,1.9007 L52.3593,67.9047 C52.3593,68.5047 51.9583,68.9047 51.3583,68.9047 L45.2573,68.9047 C44.6573,68.9047 44.2573,68.5047 44.2573,67.9047 L44.2573,1.9007 Z" id="Fill-3"></path>
                <path d="M63.3569,34.9027 C63.3569,15.6007 63.6559,13.1007 64.6559,10.1007 C66.7559,3.6007 71.8569,0.0007 79.5569,0.0007 C88.9589,0.0007 94.2579,5.3007 95.3589,14.8007 C95.4589,15.4017 95.2579,15.9017 94.6579,16.0017 L89.0579,17.1017 C88.3579,17.2017 87.9589,16.9017 87.8579,16.3007 C87.1579,10.7017 84.5579,7.6007 79.6579,7.6007 C76.0569,7.6007 73.4569,9.3007 72.4569,12.4007 C71.7569,14.4017 71.5559,15.9017 71.5559,34.9027 C71.5559,53.9037 71.7569,55.4037 72.4569,57.4037 C73.4569,60.5047 76.1579,62.2047 79.7569,62.2047 C83.3569,62.2047 86.0579,60.5047 87.0579,57.4037 C87.6579,55.5047 87.9589,53.9037 87.9589,40.0037 C87.9589,39.6027 87.7569,39.4027 87.3579,39.4027 L80.6579,39.4027 C80.0569,39.4027 79.6579,39.0037 79.6579,38.4027 L79.6579,33.1027 C79.6579,32.5027 80.0569,32.1017 80.6579,32.1017 L94.7579,32.1017 C95.3589,32.1017 95.7579,32.5027 95.7579,33.1027 L95.7579,36.0027 C95.7579,54.2037 95.4589,56.7037 94.4589,59.7047 C92.4589,66.2047 87.2569,69.8047 79.5569,69.8047 C71.8569,69.8047 66.7559,66.2047 64.6559,59.7047 C63.6559,56.7037 63.3569,54.2037 63.3569,34.9027" id="Fill-5"></path>
                <path d="M106.2554,1.9007 C106.2554,1.2997 106.6554,0.9007 107.2554,0.9007 L113.3564,0.9007 C113.9564,0.9007 114.3574,1.2997 114.3574,1.9007 L114.3574,29.7027 C114.3574,30.1017 114.5564,30.3017 114.9564,30.3017 L129.5574,30.3017 C129.9564,30.3017 130.1574,30.1017 130.1574,29.7027 L130.1574,1.9007 C130.1574,1.2997 130.5574,0.9007 131.1574,0.9007 L137.2574,0.9007 C137.8584,0.9007 138.2574,1.2997 138.2574,1.9007 L138.2574,67.9047 C138.2574,68.5047 137.8584,68.9047 137.2574,68.9047 L131.1574,68.9047 C130.5574,68.9047 130.1574,68.5047 130.1574,67.9047 L130.1574,38.4027 C130.1574,38.0027 129.9564,37.8027 129.5574,37.8027 L114.9564,37.8027 C114.5564,37.8027 114.3574,38.0027 114.3574,38.4027 L114.3574,67.9047 C114.3574,68.5047 113.9564,68.9047 113.3564,68.9047 L107.2554,68.9047 C106.6554,68.9047 106.2554,68.5047 106.2554,67.9047 L106.2554,1.9007 Z" id="Fill-7"></path>
            </g>
        </g>
    </g>
</svg>