<?xml version="1.0" encoding="UTF-8"?>
<svg width="241px" height="70px" viewBox="0 0 241 70" version="1.1" xmlns="http://www.w3.org/2000/svg" xmlns:xlink="http://www.w3.org/1999/xlink">
    <!-- Generator: Sketch 50.2 (55047) - http://www.bohemiancoding.com/sketch -->
    <title>Group 2</title>
    <desc>Created with Sketch.</desc>
    <defs>
        <polygon id="path-1" points="0.2944 0.0957 42.398 0.0957 42.398 68.0997 0.2944 68.0997"></polygon>
    </defs>
    <g id="Page-1" stroke="none" stroke-width="1" fill="none" fill-rule="evenodd">
        <g id="Group-2">
            <path d="M0,1.9007 C0,1.2997 0.4,0.9007 1,0.9007 L7.2,0.9007 C8,0.9007 8.4,1.2007 8.601,1.9007 L21.001,43.5037 L21.401,43.5037 L33.502,1.9007 C33.702,1.2007 34.202,0.9007 35.002,0.9007 L41.103,0.9007 C41.703,0.9007 42.103,1.2997 42.103,1.9007 L42.103,67.9047 C42.103,68.5047 41.703,68.9047 41.103,68.9047 L35.702,68.9047 C35.102,68.9047 34.702,68.5047 34.702,67.9047 L34.702,20.8017 L34.202,20.8017 L23.901,55.8037 C23.701,56.4037 23.301,56.8037 22.701,56.8037 L19.401,56.8037 C18.701,56.8037 18.401,56.4037 18.201,55.8037 L7.9,20.8017 L7.4,20.8017 L7.4,67.9047 C7.4,68.5047 7,68.9047 6.4,68.9047 L1,68.9047 C0.4,68.9047 0,68.5047 0,67.9047 L0,1.9007 Z" id="Fill-9" fill="#2D297C"></path>
            <path d="M54.1987,1.9007 C54.1987,1.2997 54.5987,0.9007 55.1987,0.9007 L80.9007,0.9007 C81.5007,0.9007 81.9007,1.2997 81.9007,1.9007 L81.9007,7.4007 C81.9007,8.0017 81.5007,8.4007 80.9007,8.4007 L62.8987,8.4007 C62.4987,8.4007 62.2997,8.6007 62.2997,9.0017 L62.2997,30.2027 C62.2997,30.6017 62.4987,30.8017 62.8987,30.8017 L78.4997,30.8017 C79.0997,30.8017 79.4997,31.2027 79.4997,31.8017 L79.4997,37.3027 C79.4997,37.9027 79.0997,38.3027 78.4997,38.3027 L62.8987,38.3027 C62.4987,38.3027 62.2997,38.5027 62.2997,38.9027 L62.2997,60.8037 C62.2997,61.2047 62.4987,61.4047 62.8987,61.4047 L80.9007,61.4047 C81.5007,61.4047 81.9007,61.8037 81.9007,62.4047 L81.9007,67.9047 C81.9007,68.5047 81.5007,68.9047 80.9007,68.9047 L55.1987,68.9047 C54.5987,68.9047 54.1987,68.5047 54.1987,67.9047 L54.1987,1.9007 Z" id="Fill-11" fill="#2D297C"></path>
            <path d="M99.6978,61.4046 L105.2988,61.4046 C109.8978,61.4046 112.4988,59.6036 113.8988,55.6036 C114.7988,52.8036 115.1988,49.1036 115.1988,34.9026 C115.1988,20.7016 114.7988,17.0016 113.8988,14.2016 C112.4988,10.2016 109.8978,8.4006 105.2988,8.4006 L99.6978,8.4006 C99.2988,8.4006 99.0978,8.6006 99.0978,9.0016 L99.0978,60.8036 C99.0978,61.2046 99.2988,61.4046 99.6978,61.4046 Z M90.9978,1.9006 C90.9978,1.3006 91.3978,0.9006 91.9978,0.9006 L106.0978,0.9006 C114.6988,0.9006 119.5988,4.5006 121.7998,11.5016 C122.9998,15.2016 123.3998,19.7016 123.3998,34.9026 C123.3998,50.1036 122.9998,54.6036 121.7998,58.3036 C119.5988,65.3036 114.6988,68.9046 106.0978,68.9046 L91.9978,68.9046 C91.3978,68.9046 90.9978,68.5046 90.9978,67.9046 L90.9978,1.9006 Z" id="Fill-13" fill="#2D297C"></path>
            <path d="M134.3979,1.9007 C134.3979,1.2997 134.7969,0.9007 135.3979,0.9007 L141.4979,0.9007 C142.0969,0.9007 142.4979,1.2997 142.4979,1.9007 L142.4979,67.9047 C142.4979,68.5047 142.0969,68.9047 141.4979,68.9047 L135.3979,68.9047 C134.7969,68.9047 134.3979,68.5047 134.3979,67.9047 L134.3979,1.9007 Z" id="Fill-15" fill="#2D297C"></path>
            <path d="M154.4956,52.2034 L154.4956,1.9004 C154.4956,1.3004 154.8956,0.9004 155.4956,0.9004 L161.5976,0.9004 C162.1966,0.9004 162.5976,1.3004 162.5976,1.9004 L162.5976,53.2034 C162.5976,59.1034 165.5976,62.2044 170.3966,62.2044 C175.1966,62.2044 178.1976,59.1034 178.1976,53.2034 L178.1976,1.9004 C178.1976,1.3004 178.5976,0.9004 179.1976,0.9004 L185.2986,0.9004 C185.8976,0.9004 186.2986,1.3004 186.2986,1.9004 L186.2986,52.2034 C186.2986,63.9044 180.0976,69.8054 170.3966,69.8054 C160.6966,69.8054 154.4956,63.9044 154.4956,52.2034" id="Fill-17" fill="#2D297C"></path>
            <g id="Group-21" transform="translate(198.000000, 0.805000)">
                <mask id="mask-2" fill="white">
                    <use xlink:href="#path-1"></use>
                </mask>
                <g id="Clip-20"></g>
                <path d="M0.2944,1.0957 C0.2944,0.4947 0.6944,0.0957 1.2944,0.0957 L7.4954,0.0957 C8.2954,0.0957 8.6944,0.3957 8.8964,1.0957 L21.2964,42.6987 L21.6964,42.6987 L33.7964,1.0957 C33.9974,0.3957 34.4974,0.0957 35.2964,0.0957 L41.3984,0.0957 C41.9974,0.0957 42.3984,0.4947 42.3984,1.0957 L42.3984,67.0997 C42.3984,67.6997 41.9974,68.0997 41.3984,68.0997 L35.9974,68.0997 C35.3974,68.0997 34.9974,67.6997 34.9974,67.0997 L34.9974,19.9967 L34.4974,19.9967 L24.1964,54.9987 C23.9954,55.5987 23.5964,55.9987 22.9954,55.9987 L19.6954,55.9987 C18.9954,55.9987 18.6954,55.5987 18.4954,54.9987 L8.1944,19.9967 L7.6944,19.9967 L7.6944,67.0997 C7.6944,67.6997 7.2954,68.0997 6.6944,68.0997 L1.2944,68.0997 C0.6944,68.0997 0.2944,67.6997 0.2944,67.0997 L0.2944,1.0957 Z" id="Fill-19" fill="#2D297C" mask="url(#mask-2)"></path>
            </g>
        </g>
    </g>
</svg>