<?xml version="1.0" encoding="UTF-8"?>
<svg width="125px" height="70px" viewBox="0 0 125 70" version="1.1" xmlns="http://www.w3.org/2000/svg" xmlns:xlink="http://www.w3.org/1999/xlink">
    <!-- Generator: Sketch 50.2 (55047) - http://www.bohemiancoding.com/sketch -->
    <title>Group 3</title>
    <desc>Created with Sketch.</desc>
    <defs></defs>
    <g id="Page-1" stroke="none" stroke-width="1" fill="none" fill-rule="evenodd">
        <g id="Group-3" fill="#2D297C">
            <path d="M0.0635,1.9007 C0.0635,1.2997 0.4635,0.9007 1.0635,0.9007 L7.1635,0.9007 C7.7635,0.9007 8.1645,1.2997 8.1645,1.9007 L8.1645,60.8037 C8.1645,61.2047 8.3635,61.4047 8.7635,61.4047 L26.5645,61.4047 C27.1655,61.4047 27.5645,61.8037 27.5645,62.4047 L27.5645,67.9047 C27.5645,68.5047 27.1655,68.9047 26.5645,68.9047 L1.0635,68.9047 C0.4635,68.9047 0.0635,68.5047 0.0635,67.9047 L0.0635,1.9007 Z" id="Fill-22"></path>
            <path d="M55.9634,57.4036 C56.5644,55.4036 56.7634,53.9036 56.7634,34.9026 C56.7634,15.9016 56.5644,14.4016 55.9634,12.4006 C54.9634,9.3006 52.3624,7.6006 48.7634,7.6006 C45.1624,7.6006 42.6624,9.3006 41.6624,12.4006 C40.9624,14.4016 40.7624,15.9016 40.7624,34.9026 C40.7624,53.9036 40.9624,55.4036 41.6624,57.4036 C42.6624,60.5046 45.1624,62.2046 48.7634,62.2046 C52.3624,62.2046 54.9634,60.5046 55.9634,57.4036 M33.8614,59.7046 C32.8614,56.7036 32.5624,54.2036 32.5624,34.9026 C32.5624,15.6006 32.8614,13.1006 33.8614,10.1006 C35.9624,3.6006 41.0624,0.0006 48.7634,0.0006 C56.4634,0.0006 61.6634,3.6006 63.6634,10.1006 C64.6634,13.1006 64.9644,15.6006 64.9644,34.9026 C64.9644,54.2036 64.6634,56.7036 63.6634,59.7046 C61.6634,66.2046 56.4634,69.8046 48.7634,69.8046 C41.0624,69.8046 35.9624,66.2046 33.8614,59.7046" id="Fill-24"></path>
            <path d="M106.8638,68.9046 C106.2628,68.9046 105.9648,68.5046 105.8638,67.9046 L97.9638,19.5016 L97.7628,19.5016 L89.5618,67.9046 C89.4628,68.5046 89.1628,68.9046 88.5618,68.9046 L83.2618,68.9046 C82.6618,68.9046 82.3628,68.5046 82.2618,67.9046 L71.4618,1.9006 C71.3618,1.3006 71.5618,0.9006 72.2608,0.9006 L78.3618,0.9006 C78.9628,0.9006 79.3618,1.2006 79.4628,1.9006 L86.0618,50.7036 L86.2628,50.7036 L94.5628,1.9006 C94.6638,1.2006 94.9628,0.9006 95.5628,0.9006 L99.9638,0.9006 C100.5638,0.9006 100.8628,1.2006 100.9638,1.9006 L109.2628,50.7036 L109.4648,50.7036 L116.2638,1.9006 C116.3648,1.2006 116.7638,0.9006 117.3648,0.9006 L123.2648,0.9006 C123.9648,0.9006 124.1648,1.3006 124.0648,1.9006 L113.2638,67.9046 C113.1638,68.5046 112.8648,68.9046 112.2638,68.9046 L106.8638,68.9046 Z" id="Fill-26"></path>
        </g>
    </g>
</svg>