<?xml version="1.0" encoding="UTF-8"?>
<svg width="171px" height="171px" viewBox="0 0 171 171" version="1.1" xmlns="http://www.w3.org/2000/svg" xmlns:xlink="http://www.w3.org/1999/xlink">
    <!-- Generator: Sketch 50.2 (55047) - http://www.bohemiancoding.com/sketch -->
    <title>Group Copy 5</title>
    <desc>Created with Sketch.</desc>
    <defs>
        <polygon id="path-1" points="0.119686094 0.107930382 170.473511 0.107930382 170.473511 170.761779 0.119686094 170.761779"></polygon>
    </defs>
    <g id="Page-1" stroke="none" stroke-width="1" fill="none" fill-rule="evenodd">
        <g id="Group-Copy-5">
            <path d="M125.699984,102.932484 C119.694935,122.254166 101.001249,135.745223 80.2408542,135.745223 C77.8970755,135.745223 76,137.594293 76,139.872612 C76,142.153682 77.8970755,144 80.2408542,144 C104.710583,144 126.740407,128.095796 133.816979,105.323618 C134.495516,103.141605 133.228914,100.835771 130.984089,100.178141 C128.761881,99.5177584 126.378521,100.750472 125.699984,102.932484 Z" id="Fill-37" fill="#2D297C"></path>
            <g id="Group-41">
                <mask id="mask-2" fill="white">
                    <use xlink:href="#path-1"></use>
                </mask>
                <g id="Clip-40"></g>
                <path d="M85.2979892,162.403155 C42.9313369,162.403155 8.46341068,127.873679 8.46341068,85.4341582 C8.46341068,42.9946375 42.9313369,8.46516137 85.2979892,8.46516137 C127.66186,8.46516137 162.129786,42.9946375 162.129786,85.4341582 C162.129786,127.873679 127.66186,162.403155 85.2979892,162.403155 M85.2979892,0.106537278 C38.3311635,0.106537278 0.119686094,38.3834632 0.119686094,85.4341582 C0.119686094,132.484853 38.3311635,170.761779 85.2979892,170.761779 C132.264815,170.761779 170.473511,132.484853 170.473511,85.4341582 C170.473511,38.3834632 132.264815,0.106537278 85.2979892,0.106537278" id="Fill-39" fill="#2D297C" mask="url(#mask-2)"></path>
            </g>
            <path d="M52.9986362,49 C41.9710194,49 33,58.6822917 33,70.5842391 C33,73.024683 34.830208,75 37.091374,75 C39.3525401,75 41.182748,73.024683 41.182748,70.5842391 C41.182748,63.551404 46.4851688,57.8315217 52.9986362,57.8315217 C59.5148312,57.8315217 64.817252,63.551404 64.817252,70.5842391 C64.817252,73.024683 66.6474599,75 68.908626,75 C71.169792,75 73,73.024683 73,70.5842391 C73,58.6822917 64.026253,49 52.9986362,49" id="Fill-42" fill="#2D297C"></path>
            <path d="M98,70.5842391 C98,73.024683 99.8303328,75 102.091653,75 C104.352973,75 106.183306,73.024683 106.183306,70.5842391 C106.183306,63.551404 111.483361,57.8315217 117.997272,57.8315217 C124.516639,57.8315217 129.816694,63.551404 129.816694,70.5842391 C129.816694,73.024683 131.647027,75 133.908347,75 C136.169667,75 138,73.024683 138,70.5842391 C138,58.6822917 129.025641,49 117.997272,49 C106.968903,49 98,58.6822917 98,70.5842391 Z" id="Fill-44" fill="#2D297C"></path>
        </g>
    </g>
</svg>