<?xml version="1.0" encoding="UTF-8"?>
<svg width="170px" height="170px" viewBox="0 0 170 170" version="1.1" xmlns="http://www.w3.org/2000/svg" xmlns:xlink="http://www.w3.org/1999/xlink">
    <!-- Generator: Sketch 50.2 (55047) - http://www.bohemiancoding.com/sketch -->
    <title>Group 5 Copy</title>
    <desc>Created with Sketch.</desc>
    <defs></defs>
    <g id="Page-1" stroke="none" stroke-width="1" fill="none" fill-rule="evenodd">
        <g id="Group-5-Copy" fill="#2D297C">
            <path d="M85.2443274,160.771718 C43.2334887,160.771718 9.05279516,126.591024 9.05279516,84.5829435 C9.05279516,42.5721048 43.2334887,8.39141129 85.2443274,8.39141129 C127.257924,8.39141129 161.43586,42.5721048 161.43586,84.5829435 C161.43586,126.591024 127.257924,160.771718 85.2443274,160.771718 M85.2443274,0.117217742 C38.6688919,0.117217742 0.778601613,38.0102661 0.778601613,84.5829435 C0.778601613,131.158379 38.6688919,169.045911 85.2443274,169.045911 C131.819763,169.045911 169.710053,131.158379 169.710053,84.5829435 C169.710053,38.0102661 131.819763,0.117217742 85.2443274,0.117217742" id="Fill-105"></path>
            <path d="M49.2993,57.7011919 C52.3662677,57.7011919 55.1353645,58.8954339 57.2535581,60.7984984 C53.5218968,62.0285952 50.8079613,65.5037565 50.8079613,69.6491274 C50.8079613,74.8204984 55.0002194,79.0099984 60.1688323,79.0099984 C65.3402032,79.0099984 69.5297032,74.8204984 69.5297032,69.6491274 C69.5297032,68.9871919 69.4579935,68.3445629 69.3283645,67.7212403 C68.3409774,57.4833048 59.7909774,49.4269984 49.2993,49.4269984 C38.1484452,49.4269984 29.077171,58.4982726 29.077171,69.6491274 C29.077171,71.9355629 30.9278323,73.7862242 33.2142677,73.7862242 C35.4979452,73.7862242 37.3513645,71.9355629 37.3513645,69.6491274 C37.3513645,63.0628694 42.7102839,57.7011919 49.2993,57.7011919" id="Fill-107"></path>
            <path d="M117.04426,49.4269984 C105.893405,49.4269984 96.8221306,58.4982726 96.8221306,69.6491274 C96.8221306,71.9355629 98.6727919,73.7862242 100.959227,73.7862242 C103.242905,73.7862242 105.096324,71.9355629 105.096324,69.6491274 C105.096324,63.0628694 110.455244,57.7011919 117.04426,57.7011919 C120.111227,57.7011919 122.880324,58.8954339 124.998518,60.7984984 C121.266856,62.0285952 118.552921,65.5037565 118.552921,69.6491274 C118.552921,74.8204984 122.745179,79.0099984 127.913792,79.0099984 C133.085163,79.0099984 137.274663,74.8204984 137.274663,69.6491274 C137.274663,68.9871919 137.202953,68.3445629 137.073324,67.7212403 C136.085937,57.4833048 127.535937,49.4269984 117.04426,49.4269984" id="Fill-109"></path>
            <path d="M85.2443274,99.2081323 C66.0592306,99.2081323 48.1235371,108.684842 37.2677952,124.549229 C35.977021,126.430229 36.4596823,129.009019 38.3461984,130.297035 C40.2327145,131.590568 42.8032306,131.105148 44.0967629,129.218632 C53.4107468,115.607584 68.7924726,107.482326 85.2443274,107.482326 C101.69894,107.482326 117.077908,115.607584 126.391892,129.218632 C127.194489,130.39081 128.493537,131.019648 129.811892,131.019648 C130.614489,131.019648 131.430876,130.785213 132.145215,130.297035 C134.028973,129.009019 134.511634,126.430229 133.22086,124.549229 C122.365118,108.684842 104.429424,99.2081323 85.2443274,99.2081323" id="Fill-111"></path>
        </g>
    </g>
</svg>